STARTFONT 2.1
COMMENT
COMMENT Converted from OpenType font "KH-Dot-Kabutochou-16.ttf" by "otf2bdf 3.0".
COMMENT
FONT -FreeType-KH Dot Kabutochou 16-Medium-R-Normal--17-120-100-100-P-151-ISO10646-1
SIZE 12 100 100
FONTBOUNDINGBOX 16 16 0 -2
STARTPROPERTIES 19
FOUNDRY "FreeType"
FAMILY_NAME "KH Dot Kabutochou 16"
WEIGHT_NAME "Medium"
SLANT "R"
SETWIDTH_NAME "Normal"
ADD_STYLE_NAME ""
PIXEL_SIZE 17
POINT_SIZE 120
RESOLUTION_X 100
RESOLUTION_Y 100
SPACING "P"
AVERAGE_WIDTH 151
CHARSET_REGISTRY "ISO10646"
CHARSET_ENCODING "1"
FONT_ASCENT 13
FONT_DESCENT 2
COPYRIGHT "Copyright (c) Keitarou Hiraki, Font Silo. 1990-2015"
_OTF_FONTFILE "KH-Dot-Kabutochou-16.ttf"
_OTF_PSNAME "KH-Dot-Kabutochou-16"
ENDPROPERTIES
CHARS 7264
STARTCHAR 0020
ENCODING 32
SWIDTH 480 0
DWIDTH 8 0
BBX 8 16 0 -2
BITMAP
00
00
00
00
00
00
00
00
00
00
00
00
00
00
00
00
ENDCHAR
STARTCHAR 0021
ENCODING 33
SWIDTH 480 0
DWIDTH 8 0
BBX 8 16 0 -2
BITMAP
00
00
10
10
10
10
10
10
10
00
00
10
10
10
00
00
ENDCHAR
STARTCHAR 0022
ENCODING 34
SWIDTH 480 0
DWIDTH 8 0
BBX 8 16 0 -2
BITMAP
00
6C
6C
6C
FC
D8
00
00
00
00
00
00
00
00
00
00
ENDCHAR
STARTCHAR 0023
ENCODING 35
SWIDTH 480 0
DWIDTH 8 0
BBX 8 16 0 -2
BITMAP
00
44
44
44
FE
FE
44
44
FE
FE
44
44
44
00
00
00
ENDCHAR
STARTCHAR 0024
ENCODING 36
SWIDTH 480 0
DWIDTH 8 0
BBX 8 16 0 -2
BITMAP
10
7C
FE
92
92
90
F8
7C
12
92
92
FE
7C
10
10
00
ENDCHAR
STARTCHAR 0025
ENCODING 37
SWIDTH 480 0
DWIDTH 8 0
BBX 8 16 0 -2
BITMAP
00
60
F0
96
F6
6C
18
30
6C
DE
D2
1E
0C
00
00
00
ENDCHAR
STARTCHAR 0026
ENCODING 38
SWIDTH 480 0
DWIDTH 8 0
BBX 8 16 0 -2
BITMAP
00
70
F8
88
D8
50
6E
6E
D4
9C
8A
FE
76
00
00
00
ENDCHAR
STARTCHAR 0027
ENCODING 39
SWIDTH 480 0
DWIDTH 8 0
BBX 8 16 0 -2
BITMAP
00
30
30
30
70
60
00
00
00
00
00
00
00
00
00
00
ENDCHAR
STARTCHAR 0028
ENCODING 40
SWIDTH 480 0
DWIDTH 8 0
BBX 8 16 0 -2
BITMAP
06
0E
08
18
10
10
10
10
10
10
10
18
08
0E
06
00
ENDCHAR
STARTCHAR 0029
ENCODING 41
SWIDTH 480 0
DWIDTH 8 0
BBX 8 16 0 -2
BITMAP
60
70
10
18
08
08
08
08
08
08
08
18
10
70
60
00
ENDCHAR
STARTCHAR 002A
ENCODING 42
SWIDTH 480 0
DWIDTH 8 0
BBX 8 16 0 -2
BITMAP
00
00
00
10
92
D6
7C
38
38
7C
D6
92
10
00
00
00
ENDCHAR
STARTCHAR 002B
ENCODING 43
SWIDTH 480 0
DWIDTH 8 0
BBX 8 16 0 -2
BITMAP
00
00
00
00
10
10
10
FE
FE
10
10
10
00
00
00
00
ENDCHAR
STARTCHAR 002C
ENCODING 44
SWIDTH 480 0
DWIDTH 8 0
BBX 8 16 0 -2
BITMAP
00
00
00
00
00
00
00
00
00
00
18
18
18
38
30
00
ENDCHAR
STARTCHAR 002D
ENCODING 45
SWIDTH 480 0
DWIDTH 8 0
BBX 8 16 0 -2
BITMAP
00
00
00
00
00
00
00
FE
FE
00
00
00
00
00
00
00
ENDCHAR
STARTCHAR 002E
ENCODING 46
SWIDTH 480 0
DWIDTH 8 0
BBX 8 16 0 -2
BITMAP
00
00
00
00
00
00
00
00
00
00
18
18
18
00
00
00
ENDCHAR
STARTCHAR 002F
ENCODING 47
SWIDTH 480 0
DWIDTH 8 0
BBX 8 16 0 -2
BITMAP
06
06
0C
0C
0C
18
18
18
30
30
30
60
60
60
C0
C0
ENDCHAR
STARTCHAR 0030
ENCODING 48
SWIDTH 480 0
DWIDTH 8 0
BBX 8 16 0 -2
BITMAP
00
18
3C
66
42
42
42
42
42
42
66
3C
18
00
00
00
ENDCHAR
STARTCHAR 0031
ENCODING 49
SWIDTH 480 0
DWIDTH 8 0
BBX 8 16 0 -2
BITMAP
00
08
38
38
08
08
08
08
08
08
08
3C
3C
00
00
00
ENDCHAR
STARTCHAR 0032
ENCODING 50
SWIDTH 480 0
DWIDTH 8 0
BBX 8 16 0 -2
BITMAP
00
3C
7E
42
42
06
1C
38
60
42
42
7E
7E
00
00
00
ENDCHAR
STARTCHAR 0033
ENCODING 51
SWIDTH 480 0
DWIDTH 8 0
BBX 8 16 0 -2
BITMAP
00
3C
7E
42
42
06
3C
3C
06
42
42
7E
3C
00
00
00
ENDCHAR
STARTCHAR 0034
ENCODING 52
SWIDTH 480 0
DWIDTH 8 0
BBX 8 16 0 -2
BITMAP
00
04
0C
0C
1C
14
34
24
7E
7E
04
04
04
00
00
00
ENDCHAR
STARTCHAR 0035
ENCODING 53
SWIDTH 480 0
DWIDTH 8 0
BBX 8 16 0 -2
BITMAP
00
7C
7C
40
40
58
7C
66
02
02
46
7C
38
00
00
00
ENDCHAR
STARTCHAR 0036
ENCODING 54
SWIDTH 480 0
DWIDTH 8 0
BBX 8 16 0 -2
BITMAP
00
1C
3E
62
40
58
7C
66
42
42
66
3C
18
00
00
00
ENDCHAR
STARTCHAR 0037
ENCODING 55
SWIDTH 480 0
DWIDTH 8 0
BBX 8 16 0 -2
BITMAP
00
7E
7E
46
44
0C
08
08
18
10
10
38
38
00
00
00
ENDCHAR
STARTCHAR 0038
ENCODING 56
SWIDTH 480 0
DWIDTH 8 0
BBX 8 16 0 -2
BITMAP
00
3C
7E
42
42
66
3C
3C
66
42
42
7E
3C
00
00
00
ENDCHAR
STARTCHAR 0039
ENCODING 57
SWIDTH 480 0
DWIDTH 8 0
BBX 8 16 0 -2
BITMAP
00
18
3C
66
42
42
66
3E
1A
02
46
7C
38
00
00
00
ENDCHAR
STARTCHAR 003A
ENCODING 58
SWIDTH 480 0
DWIDTH 8 0
BBX 8 16 0 -2
BITMAP
00
00
00
00
18
18
18
00
00
00
18
18
18
00
00
00
ENDCHAR
STARTCHAR 003B
ENCODING 59
SWIDTH 480 0
DWIDTH 8 0
BBX 8 16 0 -2
BITMAP
00
00
00
00
18
18
18
00
00
00
18
18
18
38
30
00
ENDCHAR
STARTCHAR 003C
ENCODING 60
SWIDTH 480 0
DWIDTH 8 0
BBX 8 16 0 -2
BITMAP
00
02
06
0C
18
30
60
C0
C0
60
30
18
0C
06
02
00
ENDCHAR
STARTCHAR 003D
ENCODING 61
SWIDTH 480 0
DWIDTH 8 0
BBX 8 16 0 -2
BITMAP
00
00
00
00
00
FE
FE
00
00
FE
FE
00
00
00
00
00
ENDCHAR
STARTCHAR 003E
ENCODING 62
SWIDTH 480 0
DWIDTH 8 0
BBX 8 16 0 -2
BITMAP
00
80
C0
60
30
18
0C
06
06
0C
18
30
60
C0
80
00
ENDCHAR
STARTCHAR 003F
ENCODING 63
SWIDTH 480 0
DWIDTH 8 0
BBX 8 16 0 -2
BITMAP
00
38
7C
C6
82
06
1C
18
10
00
10
10
10
00
00
00
ENDCHAR
STARTCHAR 0040
ENCODING 64
SWIDTH 480 0
DWIDTH 8 0
BBX 8 16 0 -2
BITMAP
00
00
38
7C
C6
9A
BA
AA
AA
BE
9C
C2
7E
3C
00
00
ENDCHAR
STARTCHAR 0041
ENCODING 65
SWIDTH 480 0
DWIDTH 8 0
BBX 8 16 0 -2
BITMAP
00
38
38
10
38
28
28
44
7C
7C
44
EE
EE
00
00
00
ENDCHAR
STARTCHAR 0042
ENCODING 66
SWIDTH 480 0
DWIDTH 8 0
BBX 8 16 0 -2
BITMAP
00
F8
FC
46
42
46
7C
7C
46
42
46
FC
F8
00
00
00
ENDCHAR
STARTCHAR 0043
ENCODING 67
SWIDTH 480 0
DWIDTH 8 0
BBX 8 16 0 -2
BITMAP
00
3A
7E
46
82
82
80
80
82
82
46
7C
38
00
00
00
ENDCHAR
STARTCHAR 0044
ENCODING 68
SWIDTH 480 0
DWIDTH 8 0
BBX 8 16 0 -2
BITMAP
00
F8
FC
44
42
42
42
42
42
42
44
FC
F8
00
00
00
ENDCHAR
STARTCHAR 0045
ENCODING 69
SWIDTH 480 0
DWIDTH 8 0
BBX 8 16 0 -2
BITMAP
00
FE
FE
42
42
48
78
78
48
42
42
FE
FE
00
00
00
ENDCHAR
STARTCHAR 0046
ENCODING 70
SWIDTH 480 0
DWIDTH 8 0
BBX 8 16 0 -2
BITMAP
00
FE
FE
42
42
48
78
78
48
40
40
F0
F0
00
00
00
ENDCHAR
STARTCHAR 0047
ENCODING 71
SWIDTH 480 0
DWIDTH 8 0
BBX 8 16 0 -2
BITMAP
00
3A
7E
46
82
80
9E
9E
82
82
46
7E
3A
00
00
00
ENDCHAR
STARTCHAR 0048
ENCODING 72
SWIDTH 480 0
DWIDTH 8 0
BBX 8 16 0 -2
BITMAP
00
E7
E7
42
42
42
7E
7E
42
42
42
E7
E7
00
00
00
ENDCHAR
STARTCHAR 0049
ENCODING 73
SWIDTH 480 0
DWIDTH 8 0
BBX 8 16 0 -2
BITMAP
00
38
38
10
10
10
10
10
10
10
10
38
38
00
00
00
ENDCHAR
STARTCHAR 004A
ENCODING 74
SWIDTH 480 0
DWIDTH 8 0
BBX 8 16 0 -2
BITMAP
00
1E
1E
04
04
04
04
04
04
04
04
44
44
7C
38
00
ENDCHAR
STARTCHAR 004B
ENCODING 75
SWIDTH 480 0
DWIDTH 8 0
BBX 8 16 0 -2
BITMAP
00
EE
EE
44
4C
48
70
70
48
4C
44
EE
EE
00
00
00
ENDCHAR
STARTCHAR 004C
ENCODING 76
SWIDTH 480 0
DWIDTH 8 0
BBX 8 16 0 -2
BITMAP
00
F0
F0
40
40
40
40
40
40
42
42
FE
FE
00
00
00
ENDCHAR
STARTCHAR 004D
ENCODING 77
SWIDTH 480 0
DWIDTH 8 0
BBX 8 16 0 -2
BITMAP
00
C7
C7
66
6E
6A
5A
52
52
42
42
E7
E7
00
00
00
ENDCHAR
STARTCHAR 004E
ENCODING 78
SWIDTH 480 0
DWIDTH 8 0
BBX 8 16 0 -2
BITMAP
00
CE
CE
64
64
54
54
54
54
4C
4C
C6
C6
00
00
00
ENDCHAR
STARTCHAR 004F
ENCODING 79
SWIDTH 480 0
DWIDTH 8 0
BBX 8 16 0 -2
BITMAP
00
38
7C
44
82
82
82
82
82
82
44
7C
38
00
00
00
ENDCHAR
STARTCHAR 0050
ENCODING 80
SWIDTH 480 0
DWIDTH 8 0
BBX 8 16 0 -2
BITMAP
00
F8
FC
42
42
42
7C
78
40
40
40
F0
F0
00
00
00
ENDCHAR
STARTCHAR 0051
ENCODING 81
SWIDTH 480 0
DWIDTH 8 0
BBX 8 16 0 -2
BITMAP
00
38
7C
44
82
82
82
B2
BA
8E
44
7E
3A
02
00
00
ENDCHAR
STARTCHAR 0052
ENCODING 82
SWIDTH 480 0
DWIDTH 8 0
BBX 8 16 0 -2
BITMAP
00
FC
FE
42
42
42
7E
7C
44
44
44
EE
EE
00
00
00
ENDCHAR
STARTCHAR 0053
ENCODING 83
SWIDTH 480 0
DWIDTH 8 0
BBX 8 16 0 -2
BITMAP
00
3A
7E
C6
82
E0
78
1C
86
82
C6
FC
B8
00
00
00
ENDCHAR
STARTCHAR 0054
ENCODING 84
SWIDTH 480 0
DWIDTH 8 0
BBX 8 16 0 -2
BITMAP
00
FE
FE
10
10
10
10
10
10
10
10
38
38
00
00
00
ENDCHAR
STARTCHAR 0055
ENCODING 85
SWIDTH 480 0
DWIDTH 8 0
BBX 8 16 0 -2
BITMAP
00
EE
EE
44
44
44
44
44
44
44
44
7C
38
00
00
00
ENDCHAR
STARTCHAR 0056
ENCODING 86
SWIDTH 480 0
DWIDTH 8 0
BBX 8 16 0 -2
BITMAP
00
EE
EE
44
44
44
6C
28
28
38
10
38
38
00
00
00
ENDCHAR
STARTCHAR 0057
ENCODING 87
SWIDTH 480 0
DWIDTH 8 0
BBX 8 16 0 -2
BITMAP
00
D6
D6
92
92
92
92
92
92
92
92
FE
6C
00
00
00
ENDCHAR
STARTCHAR 0058
ENCODING 88
SWIDTH 480 0
DWIDTH 8 0
BBX 8 16 0 -2
BITMAP
00
EE
EE
44
44
44
38
38
44
44
44
EE
EE
00
00
00
ENDCHAR
STARTCHAR 0059
ENCODING 89
SWIDTH 480 0
DWIDTH 8 0
BBX 8 16 0 -2
BITMAP
00
EE
EE
44
44
28
28
38
10
10
10
38
38
00
00
00
ENDCHAR
STARTCHAR 005A
ENCODING 90
SWIDTH 480 0
DWIDTH 8 0
BBX 8 16 0 -2
BITMAP
00
FE
FE
84
8C
08
18
30
20
62
42
FE
FE
00
00
00
ENDCHAR
STARTCHAR 005B
ENCODING 91
SWIDTH 480 0
DWIDTH 8 0
BBX 8 16 0 -2
BITMAP
3E
3E
20
20
20
20
20
20
20
20
20
20
3E
3E
00
00
ENDCHAR
STARTCHAR 005C
ENCODING 92
SWIDTH 480 0
DWIDTH 8 0
BBX 8 16 0 -2
BITMAP
C0
C0
60
60
60
30
30
30
18
18
18
0C
0C
0C
06
06
ENDCHAR
STARTCHAR 005D
ENCODING 93
SWIDTH 480 0
DWIDTH 8 0
BBX 8 16 0 -2
BITMAP
7C
7C
04
04
04
04
04
04
04
04
04
04
7C
7C
00
00
ENDCHAR
STARTCHAR 005E
ENCODING 94
SWIDTH 480 0
DWIDTH 8 0
BBX 8 16 0 -2
BITMAP
00
10
38
6C
C6
82
00
00
00
00
00
00
00
00
00
00
ENDCHAR
STARTCHAR 005F
ENCODING 95
SWIDTH 480 0
DWIDTH 8 0
BBX 8 16 0 -2
BITMAP
00
00
00
00
00
00
00
00
00
00
00
00
FE
FE
00
00
ENDCHAR
STARTCHAR 0060
ENCODING 96
SWIDTH 480 0
DWIDTH 8 0
BBX 8 16 0 -2
BITMAP
00
0C
1C
18
18
18
00
00
00
00
00
00
00
00
00
00
ENDCHAR
STARTCHAR 0061
ENCODING 97
SWIDTH 480 0
DWIDTH 8 0
BBX 8 16 0 -2
BITMAP
00
00
00
00
34
7C
CC
84
84
84
CC
7E
36
00
00
00
ENDCHAR
STARTCHAR 0062
ENCODING 98
SWIDTH 480 0
DWIDTH 8 0
BBX 8 16 0 -2
BITMAP
C0
C0
40
40
58
7C
66
42
42
42
66
7C
58
00
00
00
ENDCHAR
STARTCHAR 0063
ENCODING 99
SWIDTH 480 0
DWIDTH 8 0
BBX 8 16 0 -2
BITMAP
00
00
00
00
1C
3E
62
40
40
40
62
3E
1C
00
00
00
ENDCHAR
STARTCHAR 0064
ENCODING 100
SWIDTH 480 0
DWIDTH 8 0
BBX 8 16 0 -2
BITMAP
06
06
02
02
3A
7E
C6
82
82
82
C6
7E
3A
00
00
00
ENDCHAR
STARTCHAR 0065
ENCODING 101
SWIDTH 480 0
DWIDTH 8 0
BBX 8 16 0 -2
BITMAP
00
00
00
00
38
7C
C6
FE
FE
80
C0
7E
3C
00
00
00
ENDCHAR
STARTCHAR 0066
ENCODING 102
SWIDTH 480 0
DWIDTH 8 0
BBX 8 16 0 -2
BITMAP
0E
1E
10
10
7E
7E
10
10
10
10
10
38
38
00
00
00
ENDCHAR
STARTCHAR 0067
ENCODING 103
SWIDTH 480 0
DWIDTH 8 0
BBX 8 16 0 -2
BITMAP
00
00
00
00
3A
7E
C6
82
82
C6
7E
3A
06
7C
78
00
ENDCHAR
STARTCHAR 0068
ENCODING 104
SWIDTH 480 0
DWIDTH 8 0
BBX 8 16 0 -2
BITMAP
C0
C0
40
40
58
7C
64
44
44
44
44
EE
EE
00
00
00
ENDCHAR
STARTCHAR 0069
ENCODING 105
SWIDTH 480 0
DWIDTH 8 0
BBX 8 16 0 -2
BITMAP
18
18
00
00
18
18
08
08
08
08
08
1C
1C
00
00
00
ENDCHAR
STARTCHAR 006A
ENCODING 106
SWIDTH 480 0
DWIDTH 8 0
BBX 8 16 0 -2
BITMAP
0C
0C
00
00
0C
0C
04
04
04
04
04
44
44
7C
38
00
ENDCHAR
STARTCHAR 006B
ENCODING 107
SWIDTH 480 0
DWIDTH 8 0
BBX 8 16 0 -2
BITMAP
C0
C0
40
40
44
4C
58
70
70
58
4C
E6
E6
00
00
00
ENDCHAR
STARTCHAR 006C
ENCODING 108
SWIDTH 480 0
DWIDTH 8 0
BBX 8 16 0 -2
BITMAP
30
30
10
10
10
10
10
10
10
10
10
38
38
00
00
00
ENDCHAR
STARTCHAR 006D
ENCODING 109
SWIDTH 480 0
DWIDTH 8 0
BBX 8 16 0 -2
BITMAP
00
00
00
00
EC
FE
92
92
92
92
92
DA
DA
00
00
00
ENDCHAR
STARTCHAR 006E
ENCODING 110
SWIDTH 480 0
DWIDTH 8 0
BBX 8 16 0 -2
BITMAP
00
00
00
00
D8
FC
64
44
44
44
44
EE
EE
00
00
00
ENDCHAR
STARTCHAR 006F
ENCODING 111
SWIDTH 480 0
DWIDTH 8 0
BBX 8 16 0 -2
BITMAP
00
00
00
00
38
7C
C6
82
82
82
C6
7C
38
00
00
00
ENDCHAR
STARTCHAR 0070
ENCODING 112
SWIDTH 480 0
DWIDTH 8 0
BBX 8 16 0 -2
BITMAP
00
00
00
00
D8
FC
66
42
42
42
66
7C
58
E0
E0
00
ENDCHAR
STARTCHAR 0071
ENCODING 113
SWIDTH 480 0
DWIDTH 8 0
BBX 8 16 0 -2
BITMAP
00
00
00
00
3A
7E
C6
82
82
82
C6
7E
3A
06
06
00
ENDCHAR
STARTCHAR 0072
ENCODING 114
SWIDTH 480 0
DWIDTH 8 0
BBX 8 16 0 -2
BITMAP
00
00
00
00
6E
7E
30
20
20
20
20
70
70
00
00
00
ENDCHAR
STARTCHAR 0073
ENCODING 115
SWIDTH 480 0
DWIDTH 8 0
BBX 8 16 0 -2
BITMAP
00
00
00
00
7C
FE
82
F8
7C
06
82
FE
7C
00
00
00
ENDCHAR
STARTCHAR 0074
ENCODING 116
SWIDTH 480 0
DWIDTH 8 0
BBX 8 16 0 -2
BITMAP
00
10
10
10
7C
7C
10
10
10
10
10
1C
0C
00
00
00
ENDCHAR
STARTCHAR 0075
ENCODING 117
SWIDTH 480 0
DWIDTH 8 0
BBX 8 16 0 -2
BITMAP
00
00
00
00
C6
C6
42
42
42
42
66
3E
1A
00
00
00
ENDCHAR
STARTCHAR 0076
ENCODING 118
SWIDTH 480 0
DWIDTH 8 0
BBX 8 16 0 -2
BITMAP
00
00
00
00
EE
EE
44
44
28
28
10
38
38
00
00
00
ENDCHAR
STARTCHAR 0077
ENCODING 119
SWIDTH 480 0
DWIDTH 8 0
BBX 8 16 0 -2
BITMAP
00
00
00
00
D6
D6
92
92
92
92
92
FE
6C
00
00
00
ENDCHAR
STARTCHAR 0078
ENCODING 120
SWIDTH 480 0
DWIDTH 8 0
BBX 8 16 0 -2
BITMAP
00
00
00
00
EE
EE
44
38
38
44
44
EE
EE
00
00
00
ENDCHAR
STARTCHAR 0079
ENCODING 121
SWIDTH 480 0
DWIDTH 8 0
BBX 8 16 0 -2
BITMAP
00
00
00
00
EE
EE
44
44
28
28
10
10
30
E0
C0
00
ENDCHAR
STARTCHAR 007A
ENCODING 122
SWIDTH 480 0
DWIDTH 8 0
BBX 8 16 0 -2
BITMAP
00
00
00
00
FE
FE
8C
18
30
62
C2
FE
FE
00
00
00
ENDCHAR
STARTCHAR 007B
ENCODING 123
SWIDTH 480 0
DWIDTH 8 0
BBX 8 16 0 -2
BITMAP
06
0E
18
10
10
10
60
60
10
10
10
10
18
0E
06
00
ENDCHAR
STARTCHAR 007C
ENCODING 124
SWIDTH 480 0
DWIDTH 8 0
BBX 8 16 0 -2
BITMAP
10
10
10
10
10
10
10
10
10
10
10
10
10
10
10
10
ENDCHAR
STARTCHAR 007D
ENCODING 125
SWIDTH 480 0
DWIDTH 8 0
BBX 8 16 0 -2
BITMAP
60
70
18
08
08
08
06
06
08
08
08
08
18
70
60
00
ENDCHAR
STARTCHAR 00A0
ENCODING 160
SWIDTH 480 0
DWIDTH 8 0
BBX 8 16 0 -2
BITMAP
00
00
00
00
00
00
00
00
00
00
00
00
00
00
00
00
ENDCHAR
STARTCHAR 00A2
ENCODING 162
SWIDTH 960 0
DWIDTH 16 0
BBX 7 13 4 -1
BITMAP
04
04
04
08
3C
7E
CA
88
90
D0
7E
3C
20
ENDCHAR
STARTCHAR 00A3
ENCODING 163
SWIDTH 960 0
DWIDTH 16 0
BBX 11 13 2 -1
BITMAP
0F00
1F80
3080
2000
1000
FF80
FF80
0800
6820
F820
9E20
F7E0
61C0
ENDCHAR
STARTCHAR 00A5
ENCODING 165
SWIDTH 480 0
DWIDTH 8 0
BBX 7 16 0 -2
BITMAP
C0
C0
60
60
60
30
30
30
18
18
18
0C
0C
0C
06
06
ENDCHAR
STARTCHAR 00A7
ENCODING 167
SWIDTH 960 0
DWIDTH 16 0
BBX 15 15 0 -1
BITMAP
0380
07C0
0C60
0820
0F00
07C0
0CE0
0820
0E60
07C0
01E0
0820
0C60
07C0
0380
ENDCHAR
STARTCHAR 00A8
ENCODING 168
SWIDTH 960 0
DWIDTH 16 0
BBX 15 15 0 -1
BITMAP
0CC0
0CC0
0000
0000
0000
0000
0000
0000
0000
0000
0000
0000
0000
0000
0000
ENDCHAR
STARTCHAR 00AC
ENCODING 172
SWIDTH 960 0
DWIDTH 16 0
BBX 15 15 0 -1
BITMAP
0000
0000
0000
0000
0000
0000
3FF8
3FF8
0008
0008
0008
0008
0000
0000
0000
ENDCHAR
STARTCHAR 00B0
ENCODING 176
SWIDTH 960 0
DWIDTH 16 0
BBX 15 15 0 -1
BITMAP
7000
F800
8800
F800
7000
0000
0000
0000
0000
0000
0000
0000
0000
0000
0000
ENDCHAR
STARTCHAR 00B1
ENCODING 177
SWIDTH 960 0
DWIDTH 16 0
BBX 15 15 0 -1
BITMAP
0000
0100
0100
0100
3FF8
3FF8
0100
0100
0100
0000
0000
3FF8
3FF8
0000
0000
ENDCHAR
STARTCHAR 00B4
ENCODING 180
SWIDTH 960 0
DWIDTH 16 0
BBX 15 15 0 -1
BITMAP
0180
0180
0300
0200
0000
0000
0000
0000
0000
0000
0000
0000
0000
0000
0000
ENDCHAR
STARTCHAR 00B6
ENCODING 182
SWIDTH 960 0
DWIDTH 16 0
BBX 15 15 0 -1
BITMAP
0000
0FE0
1FE0
3E20
3E20
1E20
0E20
0220
0220
0220
0220
0220
0220
0220
0220
ENDCHAR
STARTCHAR 00D7
ENCODING 215
SWIDTH 960 0
DWIDTH 16 0
BBX 15 15 0 -1
BITMAP
0000
0000
1010
1830
0C60
06C0
0380
0100
0380
06C0
0C60
1830
1010
0000
0000
ENDCHAR
STARTCHAR 00F7
ENCODING 247
SWIDTH 960 0
DWIDTH 16 0
BBX 15 15 0 -1
BITMAP
0000
0000
0000
0380
0380
0000
0000
3FF8
3FF8
0000
0000
0380
0380
0000
0000
ENDCHAR
STARTCHAR 0391
ENCODING 913
SWIDTH 960 0
DWIDTH 16 0
BBX 15 15 0 -1
BITMAP
0000
0100
0100
0380
0280
06C0
0440
0C60
0820
0FE0
1FF0
1010
783C
783C
0000
ENDCHAR
STARTCHAR 0392
ENCODING 914
SWIDTH 960 0
DWIDTH 16 0
BBX 15 15 0 -1
BITMAP
0000
3FC0
3FE0
0830
0810
0830
0FE0
0FE0
0830
0810
0810
0830
3FE0
3FC0
0000
ENDCHAR
STARTCHAR 0393
ENCODING 915
SWIDTH 960 0
DWIDTH 16 0
BBX 15 15 0 -1
BITMAP
0000
1FF8
1FF8
0408
0408
0400
0400
0400
0400
0400
0400
0400
1F80
1F80
0000
ENDCHAR
STARTCHAR 0394
ENCODING 916
SWIDTH 960 0
DWIDTH 16 0
BBX 15 15 0 -1
BITMAP
0000
0100
0100
0380
0280
06C0
0440
0C60
0820
1830
1010
3018
7FFC
7FFC
0000
ENDCHAR
STARTCHAR 0395
ENCODING 917
SWIDTH 960 0
DWIDTH 16 0
BBX 15 15 0 -1
BITMAP
0000
3FF8
3FF8
0808
0808
0840
0FC0
0FC0
0840
0800
0808
0808
3FF8
3FF8
0000
ENDCHAR
STARTCHAR 0396
ENCODING 918
SWIDTH 960 0
DWIDTH 16 0
BBX 15 15 0 -1
BITMAP
0000
1FF0
1FF0
1060
1040
00C0
0180
0100
0300
0600
0C10
1810
3FF0
3FF0
0000
ENDCHAR
STARTCHAR 0397
ENCODING 919
SWIDTH 960 0
DWIDTH 16 0
BBX 15 15 0 -1
BITMAP
0000
3E7C
3E7C
0810
0810
0810
0FF0
0FF0
0810
0810
0810
0810
3E7C
3E7C
0000
ENDCHAR
STARTCHAR 0398
ENCODING 920
SWIDTH 960 0
DWIDTH 16 0
BBX 15 15 0 -1
BITMAP
0000
07C0
0FE0
1830
1010
3458
27C8
27C8
2448
3018
1010
1830
0FE0
07C0
0000
ENDCHAR
STARTCHAR 0399
ENCODING 921
SWIDTH 960 0
DWIDTH 16 0
BBX 15 15 0 -1
BITMAP
0000
07C0
07C0
0100
0100
0100
0100
0100
0100
0100
0100
0100
07C0
07C0
0000
ENDCHAR
STARTCHAR 039A
ENCODING 922
SWIDTH 960 0
DWIDTH 16 0
BBX 15 15 0 -1
BITMAP
0000
7CF8
7CF8
1060
10C0
1180
1300
1700
1D80
18C0
1060
1030
7C7C
7C7C
0000
ENDCHAR
STARTCHAR 039B
ENCODING 923
SWIDTH 960 0
DWIDTH 16 0
BBX 15 15 0 -1
BITMAP
0000
0100
0100
0380
0280
06C0
0440
0440
0C60
0820
1830
1010
783C
783C
0000
ENDCHAR
STARTCHAR 039C
ENCODING 924
SWIDTH 960 0
DWIDTH 16 0
BBX 15 15 0 -1
BITMAP
0000
F01E
F83E
2828
2828
2C68
2448
2448
26C8
2288
2288
2388
F93E
F93E
0000
ENDCHAR
STARTCHAR 039D
ENCODING 925
SWIDTH 960 0
DWIDTH 16 0
BBX 15 15 0 -1
BITMAP
0000
787C
7C7C
1410
1610
1210
1310
1110
1190
1090
10D0
1050
7C70
7C30
0000
ENDCHAR
STARTCHAR 039E
ENCODING 926
SWIDTH 960 0
DWIDTH 16 0
BBX 15 15 0 -1
BITMAP
0000
3FF8
3FF8
0000
0000
0000
1FF0
1FF0
0000
0000
0000
0000
3FF8
3FF8
0000
ENDCHAR
STARTCHAR 039F
ENCODING 927
SWIDTH 960 0
DWIDTH 16 0
BBX 15 15 0 -1
BITMAP
0000
07C0
0FE0
1830
1010
3018
2008
2008
2008
3018
1010
1830
0FE0
07C0
0000
ENDCHAR
STARTCHAR 03A0
ENCODING 928
SWIDTH 960 0
DWIDTH 16 0
BBX 15 15 0 -1
BITMAP
0000
3FF8
3FF8
0820
0820
0820
0820
0820
0820
0820
0820
0820
3C78
3C78
0000
ENDCHAR
STARTCHAR 03A1
ENCODING 929
SWIDTH 960 0
DWIDTH 16 0
BBX 15 15 0 -1
BITMAP
0000
3FC0
3FE0
0830
0810
0810
0830
0FE0
0FC0
0800
0800
0800
3F00
3F00
0000
ENDCHAR
STARTCHAR 03A3
ENCODING 931
SWIDTH 960 0
DWIDTH 16 0
BBX 15 15 0 -1
BITMAP
0000
3FF8
3FF8
1808
0C08
0600
0300
0180
0300
0600
0C08
1808
3FF8
3FF8
0000
ENDCHAR
STARTCHAR 03A4
ENCODING 932
SWIDTH 960 0
DWIDTH 16 0
BBX 15 15 0 -1
BITMAP
0000
3FF8
3FF8
2108
2108
0100
0100
0100
0100
0100
0100
0100
0FE0
0FE0
0000
ENDCHAR
STARTCHAR 03A5
ENCODING 933
SWIDTH 960 0
DWIDTH 16 0
BBX 15 15 0 -1
BITMAP
0000
0000
1C70
3EF8
2388
2108
0100
0100
0100
0100
0100
0100
07C0
07C0
0000
ENDCHAR
STARTCHAR 03A6
ENCODING 934
SWIDTH 960 0
DWIDTH 16 0
BBX 15 15 0 -1
BITMAP
0000
0100
0100
07C0
0FE0
1930
3118
2108
3118
1930
0FE0
07C0
0100
0100
0000
ENDCHAR
STARTCHAR 03A7
ENCODING 935
SWIDTH 960 0
DWIDTH 16 0
BBX 15 15 0 -1
BITMAP
0000
3C78
3C78
1830
0C60
06C0
0380
0100
0380
06C0
0C60
1830
3C78
3C78
0000
ENDCHAR
STARTCHAR 03A8
ENCODING 936
SWIDTH 960 0
DWIDTH 16 0
BBX 15 15 0 -1
BITMAP
0000
07C0
07C0
610C
711C
1110
1110
1930
0FE0
07C0
0100
0100
07C0
07C0
0000
ENDCHAR
STARTCHAR 03A9
ENCODING 937
SWIDTH 960 0
DWIDTH 16 0
BBX 15 15 0 -1
BITMAP
0000
07C0
0FE0
1830
3018
2008
2008
2008
3018
1830
0C60
2448
3C78
3C78
0000
ENDCHAR
STARTCHAR 03B1
ENCODING 945
SWIDTH 960 0
DWIDTH 16 0
BBX 15 15 0 -1
BITMAP
0000
0000
0000
0000
0000
0788
0FC8
1858
1070
3060
20C0
23C0
3F70
1C30
0000
ENDCHAR
STARTCHAR 03B2
ENCODING 946
SWIDTH 960 0
DWIDTH 16 0
BBX 15 15 0 -1
BITMAP
0000
01E0
03F0
0610
0410
0C30
09E0
09C0
0860
1820
1420
17E0
13C0
1000
1000
ENDCHAR
STARTCHAR 03B3
ENCODING 947
SWIDTH 960 0
DWIDTH 16 0
BBX 15 15 0 -1
BITMAP
0000
0000
0000
0000
0000
0C38
0E78
02C0
0180
0100
0100
0300
0200
0200
0200
ENDCHAR
STARTCHAR 03B4
ENCODING 948
SWIDTH 960 0
DWIDTH 16 0
BBX 15 15 0 -1
BITMAP
0000
01E0
03F0
0218
0208
01C8
03E0
0620
0420
0C60
0840
08C0
0F80
0700
0000
ENDCHAR
STARTCHAR 03B5
ENCODING 949
SWIDTH 960 0
DWIDTH 16 0
BBX 15 15 0 -1
BITMAP
0000
0000
0000
0000
0000
03E0
07E0
0400
03C0
07C0
0C00
0820
0FE0
07C0
0000
ENDCHAR
STARTCHAR 03B6
ENCODING 950
SWIDTH 960 0
DWIDTH 16 0
BBX 15 15 0 -1
BITMAP
0000
0200
0600
0430
07F0
03C0
0300
0600
0C00
1800
1F80
0FC0
0040
01C0
0180
ENDCHAR
STARTCHAR 03B7
ENCODING 951
SWIDTH 960 0
DWIDTH 16 0
BBX 15 15 0 -1
BITMAP
0000
0000
0000
0000
0000
0CE0
0FF0
0310
0610
0430
0C20
0860
0840
00C0
0080
ENDCHAR
STARTCHAR 03B8
ENCODING 952
SWIDTH 960 0
DWIDTH 16 0
BBX 15 15 0 -1
BITMAP
0000
01C0
03E0
0620
0420
0C20
0FE0
0FC0
1840
10C0
1080
1180
1F00
0E00
0000
ENDCHAR
STARTCHAR 03B9
ENCODING 953
SWIDTH 960 0
DWIDTH 16 0
BBX 15 15 0 -1
BITMAP
0000
0000
0000
0000
0000
0100
0100
0300
0200
0600
0400
0440
07C0
0380
0000
ENDCHAR
STARTCHAR 03BA
ENCODING 954
SWIDTH 960 0
DWIDTH 16 0
BBX 15 15 0 -1
BITMAP
0000
0000
0000
0000
0000
0460
04E0
0580
0700
0E00
0900
1920
11E0
10C0
0000
ENDCHAR
STARTCHAR 03BB
ENCODING 955
SWIDTH 960 0
DWIDTH 16 0
BBX 15 15 0 -1
BITMAP
0000
0300
0380
0080
00C0
0040
0040
00C0
01C0
0340
0640
0C40
1870
1030
0000
ENDCHAR
STARTCHAR 03BC
ENCODING 956
SWIDTH 960 0
DWIDTH 16 0
BBX 15 15 0 -1
BITMAP
0000
0000
0000
0000
0000
0400
0420
0C20
0860
0840
18C0
1FF0
1730
3000
2000
ENDCHAR
STARTCHAR 03BD
ENCODING 957
SWIDTH 960 0
DWIDTH 16 0
BBX 15 15 0 -1
BITMAP
0000
0000
0000
0000
0000
0800
0C10
0410
0420
0C60
08C0
0B80
0F00
0C00
0000
ENDCHAR
STARTCHAR 03BE
ENCODING 958
SWIDTH 960 0
DWIDTH 16 0
BBX 15 15 0 -1
BITMAP
0000
01C0
03C0
0200
03F0
07F0
0400
07E0
0FE0
1800
1F80
0FC0
0040
03C0
0380
ENDCHAR
STARTCHAR 03BF
ENCODING 959
SWIDTH 960 0
DWIDTH 16 0
BBX 15 15 0 -1
BITMAP
0000
0000
0000
0000
0000
01C0
03E0
0620
0420
0C60
0840
08C0
0F80
0700
0000
ENDCHAR
STARTCHAR 03C0
ENCODING 960
SWIDTH 960 0
DWIDTH 16 0
BBX 15 15 0 -1
BITMAP
0000
0000
0000
0000
0000
1FF0
1FF0
0640
04C0
0C80
0980
1920
11E0
10C0
0000
ENDCHAR
STARTCHAR 03C1
ENCODING 961
SWIDTH 960 0
DWIDTH 16 0
BBX 15 15 0 -1
BITMAP
0000
0000
0000
0000
0000
01C0
03E0
0620
0420
0C60
0C40
0FC0
1B80
1000
1000
ENDCHAR
STARTCHAR 03C3
ENCODING 963
SWIDTH 960 0
DWIDTH 16 0
BBX 15 15 0 -1
BITMAP
0000
0000
0000
0000
0000
03F0
07F0
0CC0
0840
18C0
1080
1180
1F00
0E00
0000
ENDCHAR
STARTCHAR 03C4
ENCODING 964
SWIDTH 960 0
DWIDTH 16 0
BBX 15 15 0 -1
BITMAP
0000
0000
0000
0000
0000
1FF0
1FF0
0300
0200
0600
0400
0440
07C0
0380
0000
ENDCHAR
STARTCHAR 03C5
ENCODING 965
SWIDTH 960 0
DWIDTH 16 0
BBX 15 15 0 -1
BITMAP
0000
0000
0000
0000
0000
0820
0820
0820
0820
1860
1040
10C0
1F80
0F00
0000
ENDCHAR
STARTCHAR 03C6
ENCODING 966
SWIDTH 960 0
DWIDTH 16 0
BBX 15 15 0 -1
BITMAP
0000
0000
0040
0040
0080
07C0
0FE0
1930
1110
1310
1A30
0FE0
07C0
0400
0400
ENDCHAR
STARTCHAR 03C7
ENCODING 967
SWIDTH 960 0
DWIDTH 16 0
BBX 15 15 0 -1
BITMAP
0000
0000
0000
0000
0000
0C10
0E30
0360
01C0
0180
0300
0700
0C80
18E0
1060
ENDCHAR
STARTCHAR 03C8
ENCODING 968
SWIDTH 960 0
DWIDTH 16 0
BBX 15 15 0 -1
BITMAP
0000
0000
0040
0040
00C0
08A0
09B0
0910
1910
1330
1260
1FC0
0F80
0400
0400
ENDCHAR
STARTCHAR 03C9
ENCODING 969
SWIDTH 960 0
DWIDTH 16 0
BBX 15 15 0 -1
BITMAP
0000
0000
0000
0000
0000
0400
0C10
1818
1108
3118
2310
2630
3FE0
19C0
0000
ENDCHAR
STARTCHAR 0401
ENCODING 1025
SWIDTH 960 0
DWIDTH 16 0
BBX 15 15 0 -1
BITMAP
0660
0660
3FF8
3FF8
0808
0808
0840
0FC0
0FC0
0840
0808
0808
3FF8
3FF8
0000
ENDCHAR
STARTCHAR 0410
ENCODING 1040
SWIDTH 960 0
DWIDTH 16 0
BBX 15 15 0 -1
BITMAP
0000
0100
0100
0380
0280
06C0
0440
0C60
0820
0FE0
1FF0
1010
783C
783C
0000
ENDCHAR
STARTCHAR 0411
ENCODING 1041
SWIDTH 960 0
DWIDTH 16 0
BBX 15 15 0 -1
BITMAP
0000
3FF0
3FF0
0810
0810
0800
0FC0
0FE0
0830
0810
0810
0830
3FE0
3FC0
0000
ENDCHAR
STARTCHAR 0412
ENCODING 1042
SWIDTH 960 0
DWIDTH 16 0
BBX 15 15 0 -1
BITMAP
0000
3FC0
3FE0
0830
0810
0830
0FE0
0FE0
0830
0810
0810
0830
3FE0
3FC0
0000
ENDCHAR
STARTCHAR 0413
ENCODING 1043
SWIDTH 960 0
DWIDTH 16 0
BBX 15 15 0 -1
BITMAP
0000
1FF8
1FF8
0408
0408
0400
0400
0400
0400
0400
0400
0400
1F80
1F80
0000
ENDCHAR
STARTCHAR 0414
ENCODING 1044
SWIDTH 960 0
DWIDTH 16 0
BBX 15 15 0 -1
BITMAP
0000
07E0
07E0
0420
0420
0420
0420
0420
0420
0420
0C20
0820
3FF8
3FF8
2008
ENDCHAR
STARTCHAR 0415
ENCODING 1045
SWIDTH 960 0
DWIDTH 16 0
BBX 15 15 0 -1
BITMAP
0000
3FF8
3FF8
0808
0808
0840
0FC0
0FC0
0840
0800
0808
0808
3FF8
3FF8
0000
ENDCHAR
STARTCHAR 0416
ENCODING 1046
SWIDTH 960 0
DWIDTH 16 0
BBX 15 15 0 -1
BITMAP
0000
67CC
77DC
1110
1110
1930
0FE0
0FE0
1930
3118
2108
2108
F7DE
F7DE
0000
ENDCHAR
STARTCHAR 0417
ENCODING 1047
SWIDTH 960 0
DWIDTH 16 0
BBX 15 15 0 -1
BITMAP
0000
17C0
1FE0
1830
1010
1030
03E0
03E0
0030
0010
1010
1030
1FE0
0FC0
0000
ENDCHAR
STARTCHAR 0418
ENCODING 1048
SWIDTH 960 0
DWIDTH 16 0
BBX 15 15 0 -1
BITMAP
0000
7C3C
7C7C
1050
10D0
1090
1190
1110
1310
1210
1610
1410
7C7C
787C
0000
ENDCHAR
STARTCHAR 0419
ENCODING 1049
SWIDTH 960 0
DWIDTH 16 0
BBX 15 15 0 -1
BITMAP
06C0
06C0
7BBC
787C
1050
10D0
1090
1190
1110
1310
1210
1610
7C7C
787C
0000
ENDCHAR
STARTCHAR 041A
ENCODING 1050
SWIDTH 960 0
DWIDTH 16 0
BBX 15 15 0 -1
BITMAP
0000
7CF8
7CF8
1060
10C0
1180
1300
1700
1D80
18C0
1060
1030
7C7C
7C7C
0000
ENDCHAR
STARTCHAR 041B
ENCODING 1051
SWIDTH 960 0
DWIDTH 16 0
BBX 15 15 0 -1
BITMAP
0000
03E0
03E0
0220
0220
0220
0220
0220
0220
0620
4420
4C20
78F0
30F0
0000
ENDCHAR
STARTCHAR 041C
ENCODING 1052
SWIDTH 960 0
DWIDTH 16 0
BBX 15 15 0 -1
BITMAP
0000
F01E
F83E
2828
2828
2C68
2448
2448
26C8
2288
2288
2388
F93E
F93E
0000
ENDCHAR
STARTCHAR 041D
ENCODING 1053
SWIDTH 960 0
DWIDTH 16 0
BBX 15 15 0 -1
BITMAP
0000
3E7C
3E7C
0810
0810
0810
0FF0
0FF0
0810
0810
0810
0810
3E7C
3E7C
0000
ENDCHAR
STARTCHAR 041E
ENCODING 1054
SWIDTH 960 0
DWIDTH 16 0
BBX 15 15 0 -1
BITMAP
0000
07C0
0FE0
1830
1010
3018
2008
2008
2008
3018
1010
1830
0FE0
07C0
0000
ENDCHAR
STARTCHAR 041F
ENCODING 1055
SWIDTH 960 0
DWIDTH 16 0
BBX 15 15 0 -1
BITMAP
0000
3FF8
3FF8
0820
0820
0820
0820
0820
0820
0820
0820
0820
3C78
3C78
0000
ENDCHAR
STARTCHAR 0420
ENCODING 1056
SWIDTH 960 0
DWIDTH 16 0
BBX 15 15 0 -1
BITMAP
0000
3FC0
3FE0
0830
0810
0810
0830
0FE0
0FC0
0800
0800
0800
3F00
3F00
0000
ENDCHAR
STARTCHAR 0421
ENCODING 1057
SWIDTH 960 0
DWIDTH 16 0
BBX 15 15 0 -1
BITMAP
0000
03D0
07F0
0C30
0810
1810
1000
1000
1000
1808
0808
0C18
07F0
03E0
0000
ENDCHAR
STARTCHAR 0422
ENCODING 1058
SWIDTH 960 0
DWIDTH 16 0
BBX 15 15 0 -1
BITMAP
0000
3FF8
3FF8
2108
2108
0100
0100
0100
0100
0100
0100
0100
0FE0
0FE0
0000
ENDCHAR
STARTCHAR 0423
ENCODING 1059
SWIDTH 960 0
DWIDTH 16 0
BBX 15 15 0 -1
BITMAP
0000
7C7C
7C7C
1010
1830
0820
0C60
0440
06C0
0280
1380
1100
1F00
0E00
0000
ENDCHAR
STARTCHAR 0424
ENCODING 1060
SWIDTH 960 0
DWIDTH 16 0
BBX 15 15 0 -1
BITMAP
0000
0100
0100
07C0
0FE0
1930
3118
2108
3118
1930
0FE0
07C0
0100
0100
0000
ENDCHAR
STARTCHAR 0425
ENCODING 1061
SWIDTH 960 0
DWIDTH 16 0
BBX 15 15 0 -1
BITMAP
0000
3C78
3C78
1830
0C60
06C0
0380
0100
0380
06C0
0C60
1830
3C78
3C78
0000
ENDCHAR
STARTCHAR 0426
ENCODING 1062
SWIDTH 960 0
DWIDTH 16 0
BBX 15 15 0 -1
BITMAP
0000
7CF8
7CF8
1020
1020
1020
1020
1020
1020
1020
1020
1020
1FF8
1FF8
0008
ENDCHAR
STARTCHAR 0427
ENCODING 1063
SWIDTH 960 0
DWIDTH 16 0
BBX 15 15 0 -1
BITMAP
0000
7CF8
7CF8
1020
1020
1020
1020
1860
0FE0
07A0
0020
0020
01F8
01F8
0000
ENDCHAR
STARTCHAR 0428
ENCODING 1064
SWIDTH 960 0
DWIDTH 16 0
BBX 15 15 0 -1
BITMAP
0000
F7BE
F7BE
2108
2108
2108
2108
2108
2108
2108
2108
2108
3FF8
3FF8
0000
ENDCHAR
STARTCHAR 0429
ENCODING 1065
SWIDTH 960 0
DWIDTH 16 0
BBX 15 15 0 -1
BITMAP
0000
F7BE
F7BE
2108
2108
2108
2108
2108
2108
2108
2108
2108
3FFE
3FFE
0002
ENDCHAR
STARTCHAR 042A
ENCODING 1066
SWIDTH 960 0
DWIDTH 16 0
BBX 15 15 0 -1
BITMAP
0000
3E00
3E00
2200
2200
0200
03E0
03F0
0218
0208
0208
0218
0FF0
0FE0
0000
ENDCHAR
STARTCHAR 042B
ENCODING 1067
SWIDTH 960 0
DWIDTH 16 0
BBX 15 15 0 -1
BITMAP
0000
0000
F83E
F83E
2008
2008
3E08
3F08
2188
2088
2088
2188
FF3E
FE3E
0000
ENDCHAR
STARTCHAR 042C
ENCODING 1068
SWIDTH 960 0
DWIDTH 16 0
BBX 15 15 0 -1
BITMAP
0000
0000
3E00
3E00
0800
0800
0FC0
0FE0
0830
0810
0810
0830
3FE0
3FC0
0000
ENDCHAR
STARTCHAR 042D
ENCODING 1069
SWIDTH 960 0
DWIDTH 16 0
BBX 15 15 0 -1
BITMAP
0000
07C0
0FE0
1830
1010
0618
0F38
09E8
00C8
0018
1010
1830
0FE0
07C0
0000
ENDCHAR
STARTCHAR 042E
ENCODING 1070
SWIDTH 960 0
DWIDTH 16 0
BBX 15 15 0 -1
BITMAP
0000
7CF0
7DF8
1108
130C
1204
1E04
1E04
1204
1204
130C
1108
7DF8
7CF0
0000
ENDCHAR
STARTCHAR 042F
ENCODING 1071
SWIDTH 960 0
DWIDTH 16 0
BBX 15 15 0 -1
BITMAP
0000
07F8
0FF8
1820
1020
1820
0FE0
07E0
0C20
0820
1820
1020
7CF8
7CF8
0000
ENDCHAR
STARTCHAR 0430
ENCODING 1072
SWIDTH 960 0
DWIDTH 16 0
BBX 15 15 0 -1
BITMAP
0000
0000
0000
0000
0000
0780
0FC0
0840
07C0
0FC0
1840
10C0
1FC0
0F40
0000
ENDCHAR
STARTCHAR 0431
ENCODING 1073
SWIDTH 960 0
DWIDTH 16 0
BBX 15 15 0 -1
BITMAP
0000
07C0
0FC0
1800
1000
1780
1FC0
1860
1020
1020
1020
1860
0FC0
0780
0000
ENDCHAR
STARTCHAR 0432
ENCODING 1074
SWIDTH 960 0
DWIDTH 16 0
BBX 15 15 0 -1
BITMAP
0000
0000
0000
0000
0000
1F80
1FC0
0840
0FC0
0FE0
0820
0820
1FE0
1FC0
0000
ENDCHAR
STARTCHAR 0433
ENCODING 1075
SWIDTH 960 0
DWIDTH 16 0
BBX 15 15 0 -1
BITMAP
0000
0000
0000
0000
0000
1FE0
1FE0
0820
0820
0800
0800
0800
1E00
1E00
0000
ENDCHAR
STARTCHAR 0434
ENCODING 1076
SWIDTH 960 0
DWIDTH 16 0
BBX 15 15 0 -1
BITMAP
0000
0000
0000
0000
0000
03E0
03E0
0220
0220
0220
0620
0420
1FF0
1FF0
1010
ENDCHAR
STARTCHAR 0435
ENCODING 1077
SWIDTH 960 0
DWIDTH 16 0
BBX 15 15 0 -1
BITMAP
0000
0000
0000
0000
0000
0780
0FC0
1860
1FE0
1FE0
1000
1820
0FE0
07C0
0000
ENDCHAR
STARTCHAR 0436
ENCODING 1078
SWIDTH 960 0
DWIDTH 16 0
BBX 15 15 0 -1
BITMAP
0000
0000
0000
0000
0000
3398
3BB8
0920
0FE0
07C0
0D60
0920
3BB8
3BB8
0000
ENDCHAR
STARTCHAR 0437
ENCODING 1079
SWIDTH 960 0
DWIDTH 16 0
BBX 15 15 0 -1
BITMAP
0000
0000
0000
0000
0000
07C0
0FE0
0820
03E0
03C0
1060
1820
0FE0
07C0
0000
ENDCHAR
STARTCHAR 0438
ENCODING 1080
SWIDTH 960 0
DWIDTH 16 0
BBX 15 15 0 -1
BITMAP
0000
0000
0000
0000
0000
1C70
1C70
08E0
09A0
0920
0B20
0E20
1C70
1C70
0000
ENDCHAR
STARTCHAR 0439
ENCODING 1081
SWIDTH 960 0
DWIDTH 16 0
BBX 15 15 0 -1
BITMAP
0000
0000
06C0
06C0
0380
1C70
1C70
08E0
09A0
0920
0B20
0E20
1C70
1C70
0000
ENDCHAR
STARTCHAR 043A
ENCODING 1082
SWIDTH 960 0
DWIDTH 16 0
BBX 15 15 0 -1
BITMAP
0000
0000
0000
0000
0000
1CE0
1CE0
0840
0EC0
0F80
0980
08C0
1CE0
1CE0
0000
ENDCHAR
STARTCHAR 043B
ENCODING 1083
SWIDTH 960 0
DWIDTH 16 0
BBX 15 15 0 -1
BITMAP
0000
0000
0000
0000
0000
03E0
03E0
0220
0220
0220
0220
2620
3C70
1870
0000
ENDCHAR
STARTCHAR 043C
ENCODING 1084
SWIDTH 960 0
DWIDTH 16 0
BBX 15 15 0 -1
BITMAP
0000
0000
0000
0000
0000
3838
3838
1C70
1450
16D0
1290
1390
3938
3838
0000
ENDCHAR
STARTCHAR 043D
ENCODING 1085
SWIDTH 960 0
DWIDTH 16 0
BBX 15 15 0 -1
BITMAP
0000
0000
0000
0000
0000
1C70
1C70
0820
0FE0
0FE0
0820
0820
1C70
1C70
0000
ENDCHAR
STARTCHAR 043E
ENCODING 1086
SWIDTH 960 0
DWIDTH 16 0
BBX 15 15 0 -1
BITMAP
0000
0000
0000
0000
0000
0780
0FC0
1860
1020
1020
1020
1860
0FC0
0780
0000
ENDCHAR
STARTCHAR 043F
ENCODING 1087
SWIDTH 960 0
DWIDTH 16 0
BBX 15 15 0 -1
BITMAP
0000
0000
0000
0000
0000
1FF0
1FF0
0820
0820
0820
0820
0820
1C70
1C70
0000
ENDCHAR
STARTCHAR 0440
ENCODING 1088
SWIDTH 960 0
DWIDTH 16 0
BBX 15 15 0 -1
BITMAP
0000
0000
0000
0000
0000
1B80
1FC0
0C60
0820
0820
0C60
0FC0
0B80
1C00
1C00
ENDCHAR
STARTCHAR 0441
ENCODING 1089
SWIDTH 960 0
DWIDTH 16 0
BBX 15 15 0 -1
BITMAP
0000
0000
0000
0000
0000
0780
0FC0
1860
1020
1000
1020
1860
0FC0
0780
0000
ENDCHAR
STARTCHAR 0442
ENCODING 1090
SWIDTH 960 0
DWIDTH 16 0
BBX 15 15 0 -1
BITMAP
0000
0000
0000
0000
0000
1FF0
1FF0
1110
1110
0100
0100
0100
07C0
07C0
0000
ENDCHAR
STARTCHAR 0443
ENCODING 1091
SWIDTH 960 0
DWIDTH 16 0
BBX 15 15 0 -1
BITMAP
0000
0000
0000
0000
0000
1C70
1C70
0820
0C60
0440
06C0
0280
1380
1F00
0E00
ENDCHAR
STARTCHAR 0444
ENCODING 1092
SWIDTH 960 0
DWIDTH 16 0
BBX 15 15 0 -1
BITMAP
0000
0380
0380
0100
0100
0D60
1FF0
3398
2108
2108
3398
1FF0
0D60
0380
0380
ENDCHAR
STARTCHAR 0445
ENCODING 1093
SWIDTH 960 0
DWIDTH 16 0
BBX 15 15 0 -1
BITMAP
0000
0000
0000
0000
0000
1C70
1C70
06C0
0380
0380
06C0
0C60
1C70
1C70
0000
ENDCHAR
STARTCHAR 0446
ENCODING 1094
SWIDTH 960 0
DWIDTH 16 0
BBX 15 15 0 -1
BITMAP
0000
0000
0000
0000
0000
1C70
1C70
0820
0820
0820
0820
0820
1FF8
1FF8
0008
ENDCHAR
STARTCHAR 0447
ENCODING 1095
SWIDTH 960 0
DWIDTH 16 0
BBX 15 15 0 -1
BITMAP
0000
0000
0000
0000
0000
1C70
1C70
0820
0820
0860
0FE0
07A0
0070
0070
0000
ENDCHAR
STARTCHAR 0448
ENCODING 1096
SWIDTH 960 0
DWIDTH 16 0
BBX 15 15 0 -1
BITMAP
0000
0000
0000
0000
0000
3BB8
3BB8
1110
1110
1110
1110
1110
1FF0
1FF0
0000
ENDCHAR
STARTCHAR 0449
ENCODING 1097
SWIDTH 960 0
DWIDTH 16 0
BBX 15 15 0 -1
BITMAP
0000
0000
0000
0000
0000
3BB8
3BB8
1110
1110
1110
1110
1110
1FF8
1FF8
0008
ENDCHAR
STARTCHAR 044A
ENCODING 1098
SWIDTH 960 0
DWIDTH 16 0
BBX 15 15 0 -1
BITMAP
0000
0000
0000
0000
0000
3E00
3E00
2200
23E0
03F0
0210
0210
07F0
07E0
0000
ENDCHAR
STARTCHAR 044B
ENCODING 1099
SWIDTH 960 0
DWIDTH 16 0
BBX 15 15 0 -1
BITMAP
0000
0000
0000
0000
0000
3838
3838
1010
1F10
1F90
1090
1090
3FB8
3F38
0000
ENDCHAR
STARTCHAR 044C
ENCODING 1100
SWIDTH 960 0
DWIDTH 16 0
BBX 15 15 0 -1
BITMAP
0000
0000
0000
0000
0000
0E00
0E00
0400
07C0
07E0
0420
0420
0FE0
0FC0
0000
ENDCHAR
STARTCHAR 044D
ENCODING 1101
SWIDTH 960 0
DWIDTH 16 0
BBX 15 15 0 -1
BITMAP
0000
0000
0000
0000
0000
0F80
1FC0
1060
0660
0FE0
09A0
1060
1FC0
0F80
0000
ENDCHAR
STARTCHAR 044E
ENCODING 1102
SWIDTH 960 0
DWIDTH 16 0
BBX 15 15 0 -1
BITMAP
0000
0000
0000
0000
0000
39E0
3BF0
1210
1E10
1E10
1210
1210
3BF0
39E0
0000
ENDCHAR
STARTCHAR 044F
ENCODING 1103
SWIDTH 960 0
DWIDTH 16 0
BBX 15 15 0 -1
BITMAP
0000
0000
0000
0000
0000
07F0
0FF0
0820
0FE0
07E0
0220
0420
1E70
1E70
0000
ENDCHAR
STARTCHAR 0451
ENCODING 1105
SWIDTH 960 0
DWIDTH 16 0
BBX 15 15 0 -1
BITMAP
0000
0000
0CC0
0CC0
0000
0780
0FC0
1860
1FE0
1FE0
1000
1820
0FE0
07C0
0000
ENDCHAR
STARTCHAR 2000
ENCODING 8192
SWIDTH 960 0
DWIDTH 16 0
BBX 15 15 0 -1
BITMAP
0000
0000
0000
0000
0000
0000
0000
0000
0000
0000
0000
0000
0000
0000
0000
ENDCHAR
STARTCHAR 2001
ENCODING 8193
SWIDTH 960 0
DWIDTH 16 0
BBX 15 15 0 -1
BITMAP
0000
0000
0000
0000
0000
0000
0000
0000
0000
0000
0000
0000
0000
0000
0000
ENDCHAR
STARTCHAR 2002
ENCODING 8194
SWIDTH 960 0
DWIDTH 16 0
BBX 15 15 0 -1
BITMAP
0000
0000
0000
0000
0000
0000
0000
0000
0000
0000
0000
0000
0000
0000
0000
ENDCHAR
STARTCHAR 2003
ENCODING 8195
SWIDTH 960 0
DWIDTH 16 0
BBX 15 15 0 -1
BITMAP
0000
0000
0000
0000
0000
0000
0000
0000
0000
0000
0000
0000
0000
0000
0000
ENDCHAR
STARTCHAR 2004
ENCODING 8196
SWIDTH 960 0
DWIDTH 16 0
BBX 15 15 0 -1
BITMAP
0000
0000
0000
0000
0000
0000
0000
0000
0000
0000
0000
0000
0000
0000
0000
ENDCHAR
STARTCHAR 2005
ENCODING 8197
SWIDTH 960 0
DWIDTH 16 0
BBX 15 15 0 -1
BITMAP
0000
0000
0000
0000
0000
0000
0000
0000
0000
0000
0000
0000
0000
0000
0000
ENDCHAR
STARTCHAR 2006
ENCODING 8198
SWIDTH 960 0
DWIDTH 16 0
BBX 15 15 0 -1
BITMAP
0000
0000
0000
0000
0000
0000
0000
0000
0000
0000
0000
0000
0000
0000
0000
ENDCHAR
STARTCHAR 2007
ENCODING 8199
SWIDTH 960 0
DWIDTH 16 0
BBX 15 15 0 -1
BITMAP
0000
0000
0000
0000
0000
0000
0000
0000
0000
0000
0000
0000
0000
0000
0000
ENDCHAR
STARTCHAR 2008
ENCODING 8200
SWIDTH 960 0
DWIDTH 16 0
BBX 15 15 0 -1
BITMAP
0000
0000
0000
0000
0000
0000
0000
0000
0000
0000
0000
0000
0000
0000
0000
ENDCHAR
STARTCHAR 2009
ENCODING 8201
SWIDTH 960 0
DWIDTH 16 0
BBX 15 15 0 -1
BITMAP
0000
0000
0000
0000
0000
0000
0000
0000
0000
0000
0000
0000
0000
0000
0000
ENDCHAR
STARTCHAR 200A
ENCODING 8202
SWIDTH 960 0
DWIDTH 16 0
BBX 15 15 0 -1
BITMAP
0000
0000
0000
0000
0000
0000
0000
0000
0000
0000
0000
0000
0000
0000
0000
ENDCHAR
STARTCHAR 200B
ENCODING 8203
SWIDTH 480 0
DWIDTH 8 0
BBX 1 1 0 0
BITMAP
00
ENDCHAR
STARTCHAR 200C
ENCODING 8204
SWIDTH 480 0
DWIDTH 8 0
BBX 1 1 0 0
BITMAP
00
ENDCHAR
STARTCHAR 200D
ENCODING 8205
SWIDTH 480 0
DWIDTH 8 0
BBX 1 1 0 0
BITMAP
00
ENDCHAR
STARTCHAR 200E
ENCODING 8206
SWIDTH 480 0
DWIDTH 8 0
BBX 1 1 0 0
BITMAP
00
ENDCHAR
STARTCHAR 200F
ENCODING 8207
SWIDTH 480 0
DWIDTH 8 0
BBX 1 1 0 0
BITMAP
00
ENDCHAR
STARTCHAR 2010
ENCODING 8208
SWIDTH 960 0
DWIDTH 16 0
BBX 5 2 5 6
BITMAP
F8
F8
ENDCHAR
STARTCHAR 2015
ENCODING 8213
SWIDTH 960 0
DWIDTH 16 0
BBX 15 2 0 6
BITMAP
FFFE
FFFE
ENDCHAR
STARTCHAR 2016
ENCODING 8214
SWIDTH 960 0
DWIDTH 16 0
BBX 5 16 5 -2
BITMAP
88
88
88
88
88
88
88
88
88
88
88
88
88
88
88
88
ENDCHAR
STARTCHAR 2018
ENCODING 8216
SWIDTH 960 0
DWIDTH 16 0
BBX 2 5 12 9
BITMAP
40
C0
80
C0
C0
ENDCHAR
STARTCHAR 2019
ENCODING 8217
SWIDTH 960 0
DWIDTH 16 0
BBX 2 5 1 9
BITMAP
C0
C0
40
C0
80
ENDCHAR
STARTCHAR 201C
ENCODING 8220
SWIDTH 960 0
DWIDTH 16 0
BBX 5 5 9 9
BITMAP
48
D8
90
D8
D8
ENDCHAR
STARTCHAR 201D
ENCODING 8221
SWIDTH 960 0
DWIDTH 16 0
BBX 5 5 1 9
BITMAP
D8
D8
48
D8
90
ENDCHAR
STARTCHAR 2020
ENCODING 8224
SWIDTH 960 0
DWIDTH 16 0
BBX 9 15 3 -1
BITMAP
0800
1C00
1C00
4900
FF80
FF80
4900
1C00
3E00
1C00
0800
0800
0800
0800
0800
ENDCHAR
STARTCHAR 2021
ENCODING 8225
SWIDTH 960 0
DWIDTH 16 0
BBX 9 15 3 -1
BITMAP
0800
5D00
FF80
FF80
4900
1C00
1C00
0800
1C00
1C00
4900
FF80
FF80
5D00
0800
ENDCHAR
STARTCHAR 2025
ENCODING 8229
SWIDTH 960 0
DWIDTH 16 0
BBX 13 2 1 5
BITMAP
E038
E038
ENDCHAR
STARTCHAR 2026
ENCODING 8230
SWIDTH 960 0
DWIDTH 16 0
BBX 15 2 0 5
BITMAP
E38E
E38E
ENDCHAR
STARTCHAR 2030
ENCODING 8240
SWIDTH 960 0
DWIDTH 16 0
BBX 15 15 0 -1
BITMAP
6010
F030
9060
90C0
9180
F300
6600
0C00
1B0C
379E
6492
C492
8492
079E
030C
ENDCHAR
STARTCHAR 2032
ENCODING 8242
SWIDTH 960 0
DWIDTH 16 0
BBX 3 5 0 9
BITMAP
20
60
40
C0
80
ENDCHAR
STARTCHAR 2033
ENCODING 8243
SWIDTH 960 0
DWIDTH 16 0
BBX 6 5 0 9
BITMAP
24
6C
48
D8
90
ENDCHAR
STARTCHAR 203B
ENCODING 8251
SWIDTH 960 0
DWIDTH 16 0
BBX 13 14 1 -1
BITMAP
8708
C718
6730
3060
18C0
EDB8
E738
E738
0D80
18C0
3060
6730
C718
8708
ENDCHAR
STARTCHAR 203E
ENCODING 8254
SWIDTH 480 0
DWIDTH 8 0
BBX 7 2 0 11
BITMAP
FE
FE
ENDCHAR
STARTCHAR 2103
ENCODING 8451
SWIDTH 960 0
DWIDTH 16 0
BBX 15 16 0 -2
BITMAP
0000
3000
79E8
4BF8
7E18
3408
0808
0800
0800
0808
0408
0618
03F0
01E0
0000
0000
ENDCHAR
STARTCHAR 2116
ENCODING 8470
SWIDTH 960 0
DWIDTH 16 0
BBX 15 16 0 -2
BITMAP
0000
0000
4200
4200
6200
6200
5238
527C
4A44
4A44
4644
4644
427C
423A
0002
0000
ENDCHAR
STARTCHAR 2121
ENCODING 8481
SWIDTH 960 0
DWIDTH 16 0
BBX 15 16 0 -2
BITMAP
0000
0000
FE00
FE00
1000
1000
13D0
13D0
1210
1390
1390
1210
13DE
13DE
0000
0000
ENDCHAR
STARTCHAR 212B
ENCODING 8491
SWIDTH 960 0
DWIDTH 16 0
BBX 15 16 0 -2
BITMAP
0380
07C0
0440
07C0
0380
0280
0440
0440
0FE0
0FE0
1010
1010
7C7C
7C7C
0000
0000
ENDCHAR
STARTCHAR 2160
ENCODING 8544
SWIDTH 960 0
DWIDTH 16 0
BBX 15 16 0 -2
BITMAP
0000
07C0
07C0
0100
0100
0100
0100
0100
0100
0100
0100
0100
07C0
07C0
0000
0000
ENDCHAR
STARTCHAR 2161
ENCODING 8545
SWIDTH 960 0
DWIDTH 16 0
BBX 15 16 0 -2
BITMAP
0000
1FF0
1FF0
0440
0440
0440
0440
0440
0440
0440
0440
0440
1FF0
1FF0
0000
0000
ENDCHAR
STARTCHAR 2162
ENCODING 8546
SWIDTH 960 0
DWIDTH 16 0
BBX 15 16 0 -2
BITMAP
0000
7FFC
7FFC
1110
1110
1110
1110
1110
1110
1110
1110
1110
7FFC
7FFC
0000
0000
ENDCHAR
STARTCHAR 2163
ENCODING 8547
SWIDTH 960 0
DWIDTH 16 0
BBX 15 16 0 -2
BITMAP
0000
7FBE
7FBE
1208
1208
1110
1110
1110
10A0
10A0
1040
1040
7CE0
7CE0
0000
0000
ENDCHAR
STARTCHAR 2164
ENCODING 8548
SWIDTH 960 0
DWIDTH 16 0
BBX 15 16 0 -2
BITMAP
0000
3EF8
3EF8
0820
0820
0440
0440
0440
0280
0280
0100
0100
0380
0380
0000
0000
ENDCHAR
STARTCHAR 2165
ENCODING 8549
SWIDTH 960 0
DWIDTH 16 0
BBX 15 16 0 -2
BITMAP
0000
FBFC
FBFC
2090
2090
1110
1110
1110
0A10
0A10
0410
0410
0E7C
0E7C
0000
0000
ENDCHAR
STARTCHAR 2166
ENCODING 8550
SWIDTH 960 0
DWIDTH 16 0
BBX 15 16 0 -2
BITMAP
0000
F7FE
F7FE
2248
2248
2248
1448
1448
1448
1448
0848
0848
1DFE
1DFE
0000
0000
ENDCHAR
STARTCHAR 2167
ENCODING 8551
SWIDTH 960 0
DWIDTH 16 0
BBX 15 16 0 -2
BITMAP
0000
EFFE
EFFE
4524
4524
4524
2924
2924
2924
2924
1124
1124
3BFE
3BFE
0000
0000
ENDCHAR
STARTCHAR 2168
ENCODING 8552
SWIDTH 960 0
DWIDTH 16 0
BBX 15 16 0 -2
BITMAP
0000
7F9E
7F9E
1208
1318
11B0
10E0
1040
10E0
11B0
1318
1208
7FBE
7FBE
0000
0000
ENDCHAR
STARTCHAR 2169
ENCODING 8553
SWIDTH 960 0
DWIDTH 16 0
BBX 15 16 0 -2
BITMAP
0000
3EF8
3EF8
0820
0C60
06C0
0380
0100
0380
06C0
0C60
0820
3EF8
3EF8
0000
0000
ENDCHAR
STARTCHAR 2190
ENCODING 8592
SWIDTH 960 0
DWIDTH 16 0
BBX 15 16 0 -2
BITMAP
0000
0000
0000
0000
1000
3000
6000
FFFE
FFFE
6000
3000
1000
0000
0000
0000
0000
ENDCHAR
STARTCHAR 2191
ENCODING 8593
SWIDTH 960 0
DWIDTH 16 0
BBX 15 16 0 -2
BITMAP
0100
0380
07C0
0D60
0920
0100
0100
0100
0100
0100
0100
0100
0100
0100
0100
0000
ENDCHAR
STARTCHAR 2192
ENCODING 8594
SWIDTH 960 0
DWIDTH 16 0
BBX 15 16 0 -2
BITMAP
0000
0000
0000
0000
0010
0018
000C
FFFE
FFFE
000C
0018
0010
0000
0000
0000
0000
ENDCHAR
STARTCHAR 2193
ENCODING 8595
SWIDTH 960 0
DWIDTH 16 0
BBX 15 16 0 -2
BITMAP
0100
0100
0100
0100
0100
0100
0100
0100
0100
0100
0920
0D60
07C0
0380
0100
0000
ENDCHAR
STARTCHAR 21D2
ENCODING 8658
SWIDTH 960 0
DWIDTH 16 0
BBX 15 16 0 -2
BITMAP
0000
0000
0000
0040
0060
FFF0
FFF8
000C
000C
FFF8
FFF0
0060
0040
0000
0000
0000
ENDCHAR
STARTCHAR 21D4
ENCODING 8660
SWIDTH 960 0
DWIDTH 16 0
BBX 15 16 0 -2
BITMAP
0000
0000
0000
0840
1860
3FF0
7FF8
C00C
C00C
7FF8
3FF0
1860
0840
0000
0000
0000
ENDCHAR
STARTCHAR 2200
ENCODING 8704
SWIDTH 960 0
DWIDTH 16 0
BBX 15 16 0 -2
BITMAP
0000
2008
2008
1010
1010
1FF0
0FE0
0820
0440
0440
0440
0280
0280
0100
0100
0000
ENDCHAR
STARTCHAR 2202
ENCODING 8706
SWIDTH 960 0
DWIDTH 16 0
BBX 15 16 0 -2
BITMAP
0000
0000
0380
07C0
0460
0020
0720
0FA0
18E0
1040
2040
2080
3180
1F00
0E00
0000
ENDCHAR
STARTCHAR 2203
ENCODING 8707
SWIDTH 960 0
DWIDTH 16 0
BBX 15 16 0 -2
BITMAP
0000
0000
3FF8
3FF8
0008
0008
0008
3FF8
3FF8
0008
0008
0008
3FF8
3FF8
0000
0000
ENDCHAR
STARTCHAR 2207
ENCODING 8711
SWIDTH 960 0
DWIDTH 16 0
BBX 15 16 0 -2
BITMAP
0000
0000
0000
3FF8
1FF0
1810
0820
0C20
0440
0640
0280
0380
0100
0000
0000
0000
ENDCHAR
STARTCHAR 2208
ENCODING 8712
SWIDTH 960 0
DWIDTH 16 0
BBX 15 16 0 -2
BITMAP
0000
0000
0000
0FF8
1FF8
1000
2000
3FF8
3FF8
2000
1000
1FF8
0FF8
0000
0000
0000
ENDCHAR
STARTCHAR 220B
ENCODING 8715
SWIDTH 960 0
DWIDTH 16 0
BBX 15 16 0 -2
BITMAP
0000
0000
0000
3FE0
3FF0
0010
0008
3FF8
3FF8
0008
0010
3FF0
3FE0
0000
0000
0000
ENDCHAR
STARTCHAR 2211
ENCODING 8721
SWIDTH 960 0
DWIDTH 16 0
BBX 15 16 0 -2
BITMAP
0000
0000
1FF8
1FF8
0C00
0600
0300
0180
0180
0300
0600
0C00
1FF8
1FF8
0000
0000
ENDCHAR
STARTCHAR 2212
ENCODING 8722
SWIDTH 960 0
DWIDTH 16 0
BBX 15 16 0 -2
BITMAP
0000
0000
0000
0000
0000
0000
0000
3FF8
3FF8
0000
0000
0000
0000
0000
0000
0000
ENDCHAR
STARTCHAR 221A
ENCODING 8730
SWIDTH 960 0
DWIDTH 16 0
BBX 15 16 0 -2
BITMAP
00F8
00F8
0080
0080
0100
0100
0100
4200
4200
E200
A400
3400
1400
1800
0800
0000
ENDCHAR
STARTCHAR 221D
ENCODING 8733
SWIDTH 960 0
DWIDTH 16 0
BBX 15 16 0 -2
BITMAP
0000
0000
0000
0000
1830
3C78
66C8
4380
4380
66C8
3C78
1830
0000
0000
0000
0000
ENDCHAR
STARTCHAR 221E
ENCODING 8734
SWIDTH 960 0
DWIDTH 16 0
BBX 15 16 0 -2
BITMAP
0000
0000
0000
0000
1830
3C78
66CC
4384
4384
66CC
3C78
1830
0000
0000
0000
0000
ENDCHAR
STARTCHAR 221F
ENCODING 8735
SWIDTH 960 0
DWIDTH 16 0
BBX 15 16 0 -2
BITMAP
0000
2000
2000
2000
2000
2000
2000
2000
2000
2000
2000
3FFC
3FFC
0000
0000
0000
ENDCHAR
STARTCHAR 2220
ENCODING 8736
SWIDTH 960 0
DWIDTH 16 0
BBX 15 16 0 -2
BITMAP
0000
0000
0008
0018
0030
0060
00C0
0180
0300
0600
0C00
1FF8
1FF8
0000
0000
0000
ENDCHAR
STARTCHAR 2227
ENCODING 8743
SWIDTH 960 0
DWIDTH 16 0
BBX 15 16 0 -2
BITMAP
0000
0100
0100
0280
0280
0440
0440
0820
0820
1010
1010
2008
2008
4004
4004
0000
ENDCHAR
STARTCHAR 2228
ENCODING 8744
SWIDTH 960 0
DWIDTH 16 0
BBX 15 16 0 -2
BITMAP
0000
4004
4004
2008
2008
1010
1010
0820
0820
0440
0440
0280
0280
0100
0100
0000
ENDCHAR
STARTCHAR 2229
ENCODING 8745
SWIDTH 960 0
DWIDTH 16 0
BBX 15 16 0 -2
BITMAP
0000
0380
07C0
0C60
0820
1010
1010
1010
1010
1010
1010
1010
1010
1010
1010
0000
ENDCHAR
STARTCHAR 222A
ENCODING 8746
SWIDTH 960 0
DWIDTH 16 0
BBX 15 16 0 -2
BITMAP
0000
1010
1010
1010
1010
1010
1010
1010
1010
1010
1010
0820
0C60
07C0
0380
0000
ENDCHAR
STARTCHAR 222B
ENCODING 8747
SWIDTH 960 0
DWIDTH 16 0
BBX 15 16 0 -2
BITMAP
0180
03C0
0240
0200
0200
0100
0100
0100
0080
0080
0080
0040
0040
0240
03C0
0180
ENDCHAR
STARTCHAR 222C
ENCODING 8748
SWIDTH 960 0
DWIDTH 16 0
BBX 15 16 0 -2
BITMAP
0C60
1EF0
1290
1290
1080
0840
0840
0420
0420
0420
0210
1290
1290
1EF0
0C60
0000
ENDCHAR
STARTCHAR 222E
ENCODING 8750
SWIDTH 960 0
DWIDTH 16 0
BBX 15 16 0 -2
BITMAP
0180
03C0
0240
0200
0200
03C0
07E0
0520
04A0
07E0
03C0
0040
0040
0240
03C0
0180
ENDCHAR
STARTCHAR 2234
ENCODING 8756
SWIDTH 960 0
DWIDTH 16 0
BBX 15 16 0 -2
BITMAP
0000
0000
0000
0380
0380
0000
0000
0000
0000
0000
3838
3838
0000
0000
0000
0000
ENDCHAR
STARTCHAR 2235
ENCODING 8757
SWIDTH 960 0
DWIDTH 16 0
BBX 15 16 0 -2
BITMAP
0000
0000
0000
1818
1818
0000
0000
0000
0000
0000
0000
0180
0180
0000
0000
0000
ENDCHAR
STARTCHAR 223D
ENCODING 8765
SWIDTH 960 0
DWIDTH 16 0
BBX 15 16 0 -2
BITMAP
0000
0000
0000
0000
1830
3C78
64CC
4184
4304
664C
3C78
1830
0000
0000
0000
0000
ENDCHAR
STARTCHAR 2252
ENCODING 8786
SWIDTH 960 0
DWIDTH 16 0
BBX 15 16 0 -2
BITMAP
0000
1800
1800
0000
0000
3FF8
3FF8
0000
0000
3FF8
3FF8
0000
0000
0030
0030
0000
ENDCHAR
STARTCHAR 2260
ENCODING 8800
SWIDTH 960 0
DWIDTH 16 0
BBX 15 16 0 -2
BITMAP
0000
0000
0020
0060
0040
3FF8
3FF8
0100
0100
3FF8
3FF8
0400
0C00
0800
0000
0000
ENDCHAR
STARTCHAR 2261
ENCODING 8801
SWIDTH 960 0
DWIDTH 16 0
BBX 15 16 0 -2
BITMAP
0000
0000
0000
3FF8
3FF8
0000
0000
3FF8
3FF8
0000
0000
3FF8
3FF8
0000
0000
0000
ENDCHAR
STARTCHAR 2266
ENCODING 8806
SWIDTH 960 0
DWIDTH 16 0
BBX 15 16 0 -2
BITMAP
0000
0018
00F8
07E0
3F00
3C00
0F80
03E0
0078
3FF8
3FF8
0000
3FF8
3FF8
0000
0000
ENDCHAR
STARTCHAR 2267
ENCODING 8807
SWIDTH 960 0
DWIDTH 16 0
BBX 15 16 0 -2
BITMAP
0000
3000
3E00
0FC0
01F8
0078
03E0
0F80
3C00
3FF8
3FF8
0000
3FF8
3FF8
0000
0000
ENDCHAR
STARTCHAR 226A
ENCODING 8810
SWIDTH 960 0
DWIDTH 16 0
BBX 15 16 0 -2
BITMAP
0000
0030
0070
01CC
039C
0E70
1CE0
3180
1CE0
0E70
039C
01CC
0070
0030
0000
0000
ENDCHAR
STARTCHAR 226B
ENCODING 8811
SWIDTH 960 0
DWIDTH 16 0
BBX 15 16 0 -2
BITMAP
0000
0C00
0E00
3380
39C0
0E70
0738
018C
0738
0E70
39C0
3380
0E00
0C00
0000
0000
ENDCHAR
STARTCHAR 2282
ENCODING 8834
SWIDTH 960 0
DWIDTH 16 0
BBX 15 16 0 -2
BITMAP
0000
0000
0000
0FF8
1FF8
3000
2000
2000
2000
2000
3000
1FF8
0FF8
0000
0000
0000
ENDCHAR
STARTCHAR 2283
ENCODING 8835
SWIDTH 960 0
DWIDTH 16 0
BBX 15 16 0 -2
BITMAP
0000
0000
0000
3FE0
3FF0
0018
0008
0008
0008
0008
0018
3FF0
3FE0
0000
0000
0000
ENDCHAR
STARTCHAR 2286
ENCODING 8838
SWIDTH 960 0
DWIDTH 16 0
BBX 15 16 0 -2
BITMAP
0000
0000
0FF8
1FF8
3000
2000
2000
3000
1FF8
0FF8
0000
0000
3FF8
3FF8
0000
0000
ENDCHAR
STARTCHAR 2287
ENCODING 8839
SWIDTH 960 0
DWIDTH 16 0
BBX 15 16 0 -2
BITMAP
0000
0000
3FE0
3FF0
0018
0008
0008
0018
3FF0
3FE0
0000
0000
3FF8
3FF8
0000
0000
ENDCHAR
STARTCHAR 22A5
ENCODING 8869
SWIDTH 960 0
DWIDTH 16 0
BBX 15 16 0 -2
BITMAP
0000
0100
0100
0100
0100
0100
0100
0100
0100
0100
0100
7FFC
7FFC
0000
0000
0000
ENDCHAR
STARTCHAR 22BF
ENCODING 8895
SWIDTH 960 0
DWIDTH 16 0
BBX 15 16 0 -2
BITMAP
0000
0008
0018
0038
0068
00C8
0188
0308
0608
0C08
1808
3FF8
3FF8
0000
0000
0000
ENDCHAR
STARTCHAR 2312
ENCODING 8978
SWIDTH 960 0
DWIDTH 16 0
BBX 15 16 0 -2
BITMAP
0000
0000
07C0
1FF0
3838
600C
4004
0000
0000
0000
0000
0000
0000
0000
0000
0000
ENDCHAR
STARTCHAR 2460
ENCODING 9312
SWIDTH 960 0
DWIDTH 16 0
BBX 15 16 0 -2
BITMAP
07C0
1FF0
3838
610C
4304
8302
8102
8102
8102
8102
8102
4384
638C
3838
1FF0
07C0
ENDCHAR
STARTCHAR 2461
ENCODING 9313
SWIDTH 960 0
DWIDTH 16 0
BBX 15 16 0 -2
BITMAP
07C0
1FF0
3838
678C
4FC4
8842
88C2
8182
8302
8602
8402
4FC4
6FCC
3838
1FF0
07C0
ENDCHAR
STARTCHAR 2462
ENCODING 9314
SWIDTH 960 0
DWIDTH 16 0
BBX 15 16 0 -2
BITMAP
07C0
1FF0
3838
678C
4FC4
8842
8842
8382
83C2
8842
8842
4FC4
678C
3838
1FF0
07C0
ENDCHAR
STARTCHAR 2463
ENCODING 9315
SWIDTH 960 0
DWIDTH 16 0
BBX 15 16 0 -2
BITMAP
07C0
1FF0
3838
618C
4184
8282
8282
8482
8FE2
8FE2
8082
41C4
61CC
3838
1FF0
07C0
ENDCHAR
STARTCHAR 2464
ENCODING 9316
SWIDTH 960 0
DWIDTH 16 0
BBX 15 16 0 -2
BITMAP
07C0
1FF0
3838
6FCC
4FC4
8802
8802
8F82
8FC2
8042
8842
4FC4
678C
3838
1FF0
07C0
ENDCHAR
STARTCHAR 2465
ENCODING 9317
SWIDTH 960 0
DWIDTH 16 0
BBX 15 16 0 -2
BITMAP
07C0
1FF0
3838
678C
4FC4
8842
8802
8F82
8FC2
8842
8842
4FC4
678C
3838
1FF0
07C0
ENDCHAR
STARTCHAR 2466
ENCODING 9318
SWIDTH 960 0
DWIDTH 16 0
BBX 15 16 0 -2
BITMAP
07C0
1FF0
3838
6FCC
4FC4
8842
8842
8082
8082
8102
8102
4304
630C
3838
1FF0
07C0
ENDCHAR
STARTCHAR 2467
ENCODING 9319
SWIDTH 960 0
DWIDTH 16 0
BBX 15 16 0 -2
BITMAP
07C0
1FF0
3838
678C
4FC4
8842
8842
8782
8FC2
8842
8842
4FC4
678C
3838
1FF0
07C0
ENDCHAR
STARTCHAR 2468
ENCODING 9320
SWIDTH 960 0
DWIDTH 16 0
BBX 15 16 0 -2
BITMAP
07C0
1FF0
3838
678C
4FC4
8842
8842
8FC2
87C2
8042
8842
4FC4
678C
3838
1FF0
07C0
ENDCHAR
STARTCHAR 2469
ENCODING 9321
SWIDTH 960 0
DWIDTH 16 0
BBX 15 16 0 -2
BITMAP
07C0
1FF0
3838
68EC
59F4
9912
8912
8912
8912
8912
8912
5DF4
7CEC
3838
1FF0
07C0
ENDCHAR
STARTCHAR 246A
ENCODING 9322
SWIDTH 960 0
DWIDTH 16 0
BBX 15 16 0 -2
BITMAP
07C0
1FF0
3838
644C
4CC4
8CC2
8442
8442
8442
8442
8442
4EE4
6EEC
3838
1FF0
07C0
ENDCHAR
STARTCHAR 246B
ENCODING 9323
SWIDTH 960 0
DWIDTH 16 0
BBX 15 16 0 -2
BITMAP
07C0
1FF0
3838
68EC
59F4
9912
8932
8862
88C2
8982
8902
5DF4
7DFC
3838
1FF0
07C0
ENDCHAR
STARTCHAR 246C
ENCODING 9324
SWIDTH 960 0
DWIDTH 16 0
BBX 15 16 0 -2
BITMAP
07C0
1FF0
3838
68EC
59F4
9912
8812
88E2
88F2
8812
8912
5DF4
7CEC
3838
1FF0
07C0
ENDCHAR
STARTCHAR 246D
ENCODING 9325
SWIDTH 960 0
DWIDTH 16 0
BBX 15 16 0 -2
BITMAP
07C0
1FF0
3838
686C
5864
98A2
88A2
8922
8BF2
8BF2
8822
5C74
7C7C
3838
1FF0
07C0
ENDCHAR
STARTCHAR 246E
ENCODING 9326
SWIDTH 960 0
DWIDTH 16 0
BBX 15 16 0 -2
BITMAP
07C0
1FF0
3838
69EC
59E4
9902
8902
89E2
89F2
8812
8912
5DF4
7CEC
3838
1FF0
07C0
ENDCHAR
STARTCHAR 246F
ENCODING 9327
SWIDTH 960 0
DWIDTH 16 0
BBX 15 16 0 -2
BITMAP
07C0
1FF0
3838
68EC
59F4
9912
8902
89E2
89F2
8912
8912
5DF4
7CEC
3838
1FF0
07C0
ENDCHAR
STARTCHAR 2470
ENCODING 9328
SWIDTH 960 0
DWIDTH 16 0
BBX 15 16 0 -2
BITMAP
07C0
1FF0
3838
69FC
59F4
9812
8822
8822
8822
8842
8842
5CC4
7CCC
3838
1FF0
07C0
ENDCHAR
STARTCHAR 2471
ENCODING 9329
SWIDTH 960 0
DWIDTH 16 0
BBX 15 16 0 -2
BITMAP
07C0
1FF0
3838
68EC
59F4
9912
8912
88E2
89F2
8912
8912
5DF4
7CEC
3838
1FF0
07C0
ENDCHAR
STARTCHAR 2472
ENCODING 9330
SWIDTH 960 0
DWIDTH 16 0
BBX 15 16 0 -2
BITMAP
07C0
1FF0
3838
68EC
59F4
9912
8912
89F2
88F2
8812
8912
5DF4
7CEC
3838
1FF0
07C0
ENDCHAR
STARTCHAR 2473
ENCODING 9331
SWIDTH 960 0
DWIDTH 16 0
BBX 15 16 0 -2
BITMAP
07C0
1FF0
3838
6C6C
5EF4
9292
8292
8692
8C92
9892
9092
5EF4
7E6C
3838
1FF0
07C0
ENDCHAR
STARTCHAR 2581
ENCODING 9601
SWIDTH 960 0
DWIDTH 16 0
BBX 15 16 0 -2
BITMAP
C000
C000
6000
6000
6000
3000
3000
3000
1800
1800
1800
0C00
0C00
0C00
0600
0600
ENDCHAR
STARTCHAR 2582
ENCODING 9602
SWIDTH 960 0
DWIDTH 16 0
BBX 15 16 0 -2
BITMAP
0000
7200
FE00
8C00
0000
0000
0000
0000
0000
0000
0000
0000
0000
0000
0000
0000
ENDCHAR
STARTCHAR 2583
ENCODING 9603
SWIDTH 960 0
DWIDTH 16 0
BBX 15 16 0 -2
BITMAP
0000
0000
1000
1000
1000
1000
0000
0000
0000
1000
1000
1000
1000
0000
0000
0000
ENDCHAR
STARTCHAR 2587
ENCODING 9607
SWIDTH 960 0
DWIDTH 16 0
BBX 15 16 0 -2
BITMAP
3000
1400
1C00
7000
2000
2000
5800
6A00
CE00
8800
1800
2000
2000
2400
1C00
0000
ENDCHAR
STARTCHAR 2588
ENCODING 9608
SWIDTH 960 0
DWIDTH 16 0
BBX 15 16 0 -2
BITMAP
0000
0000
0000
0000
0000
0000
2000
2800
F800
2400
3E00
6400
BA00
9200
AA00
4C00
ENDCHAR
STARTCHAR 2589
ENCODING 9609
SWIDTH 960 0
DWIDTH 16 0
BBX 15 16 0 -2
BITMAP
0000
0000
0000
0000
0000
0000
3000
1000
1600
1800
1000
1000
7000
9800
9600
6200
ENDCHAR
STARTCHAR 258A
ENCODING 9610
SWIDTH 960 0
DWIDTH 16 0
BBX 15 16 0 -2
BITMAP
0000
0000
0000
0000
0000
0000
1000
C800
5C00
AA00
CA00
AA00
DC00
1000
1000
2000
ENDCHAR
STARTCHAR 258B
ENCODING 9611
SWIDTH 960 0
DWIDTH 16 0
BBX 15 16 0 -2
BITMAP
0000
0000
0000
0000
0000
0000
0C00
6800
4C00
3200
EA00
2C00
2000
1000
1000
1000
ENDCHAR
STARTCHAR 258C
ENCODING 9612
SWIDTH 960 0
DWIDTH 16 0
BBX 15 16 0 -2
BITMAP
0000
0000
0000
0000
0000
0000
2400
2200
FA00
2000
2000
3C00
6200
A200
6C00
0000
ENDCHAR
STARTCHAR 258D
ENCODING 9613
SWIDTH 960 0
DWIDTH 16 0
BBX 15 16 0 -2
BITMAP
0000
0000
0000
0000
0000
2000
1800
0400
5C00
6400
0800
1000
3000
2800
C800
8E00
ENDCHAR
STARTCHAR 258E
ENCODING 9614
SWIDTH 960 0
DWIDTH 16 0
BBX 15 16 0 -2
BITMAP
0000
0000
0000
0000
0000
2000
1800
0000
B800
C400
0400
0400
0800
0800
1000
2000
ENDCHAR
STARTCHAR 258F
ENCODING 9615
SWIDTH 960 0
DWIDTH 16 0
BBX 15 16 0 -2
BITMAP
0000
0000
0000
0000
0000
0000
0000
8000
8400
8200
8200
8600
5000
6000
2000
0000
ENDCHAR
STARTCHAR 25A0
ENCODING 9632
SWIDTH 960 0
DWIDTH 16 0
BBX 15 16 0 -2
BITMAP
FFFE
FFFE
FFFE
FFFE
FFFE
FFFE
FFFE
FFFE
FFFE
FFFE
FFFE
FFFE
FFFE
FFFE
FFFE
0000
ENDCHAR
STARTCHAR 25A1
ENCODING 9633
SWIDTH 960 0
DWIDTH 16 0
BBX 15 16 0 -2
BITMAP
FFFE
FFFE
8002
8002
8002
8002
8002
8002
8002
8002
8002
8002
8002
FFFE
FFFE
0000
ENDCHAR
STARTCHAR 25B2
ENCODING 9650
SWIDTH 960 0
DWIDTH 16 0
BBX 15 16 0 -2
BITMAP
0100
0100
0380
0380
07C0
07C0
0FE0
0FE0
1FF0
1FF0
3FF8
3FF8
7FFC
7FFC
FFFE
0000
ENDCHAR
STARTCHAR 25B3
ENCODING 9651
SWIDTH 960 0
DWIDTH 16 0
BBX 15 16 0 -2
BITMAP
0100
0100
0280
0280
0440
0440
0820
0820
1010
1010
2008
2008
4004
4004
FFFE
0000
ENDCHAR
STARTCHAR 25BC
ENCODING 9660
SWIDTH 960 0
DWIDTH 16 0
BBX 15 16 0 -2
BITMAP
0000
FFFE
7FFC
7FFC
3FF8
3FF8
1FF0
1FF0
0FE0
0FE0
07C0
07C0
0380
0380
0100
0100
ENDCHAR
STARTCHAR 25BD
ENCODING 9661
SWIDTH 960 0
DWIDTH 16 0
BBX 15 16 0 -2
BITMAP
0000
FFFE
4004
4004
2008
2008
1010
1010
0820
0820
0440
0440
0280
0280
0100
0100
ENDCHAR
STARTCHAR 25C6
ENCODING 9670
SWIDTH 960 0
DWIDTH 16 0
BBX 15 16 0 -2
BITMAP
0100
0380
07C0
0FE0
1FF0
3FF8
7FFC
FFFE
7FFC
3FF8
1FF0
0FE0
07C0
0380
0100
0000
ENDCHAR
STARTCHAR 25C7
ENCODING 9671
SWIDTH 960 0
DWIDTH 16 0
BBX 15 16 0 -2
BITMAP
0100
0380
06C0
0C60
1830
3018
600C
C006
600C
3018
1830
0C60
06C0
0380
0100
0000
ENDCHAR
STARTCHAR 25CB
ENCODING 9675
SWIDTH 960 0
DWIDTH 16 0
BBX 15 16 0 -2
BITMAP
07C0
1FF0
3838
600C
4004
8002
8002
8002
8002
8002
4004
600C
3838
1FF0
07C0
0000
ENDCHAR
STARTCHAR 25CE
ENCODING 9678
SWIDTH 960 0
DWIDTH 16 0
BBX 15 16 0 -2
BITMAP
07C0
1FF0
3838
600C
47C4
8FE2
9832
9012
9832
8FE2
47C4
600C
3838
1FF0
07C0
0000
ENDCHAR
STARTCHAR 25CF
ENCODING 9679
SWIDTH 960 0
DWIDTH 16 0
BBX 15 16 0 -2
BITMAP
07C0
1FF0
3FF8
7FFC
7FFC
FFFE
FFFE
FFFE
FFFE
FFFE
7FFC
7FFC
3FF8
1FF0
07C0
0000
ENDCHAR
STARTCHAR 25EF
ENCODING 9711
SWIDTH 960 0
DWIDTH 16 0
BBX 15 16 0 -2
BITMAP
07C0
1FF0
3838
600C
4004
C002
8002
8002
8002
8002
4004
600C
3838
1FF0
07C0
0000
ENDCHAR
STARTCHAR 2605
ENCODING 9733
SWIDTH 960 0
DWIDTH 16 0
BBX 15 16 0 -2
BITMAP
0100
0100
0380
0380
07C0
FFFE
FFFE
3FF8
07C0
0FE0
0FE0
1EF0
1C70
3838
2008
0000
ENDCHAR
STARTCHAR 2606
ENCODING 9734
SWIDTH 960 0
DWIDTH 16 0
BBX 15 16 0 -2
BITMAP
0100
0100
0280
0280
FEFE
FC7E
600C
3018
1C70
0C60
0920
1BB0
16D0
3C78
3838
0000
ENDCHAR
STARTCHAR 2640
ENCODING 9792
SWIDTH 960 0
DWIDTH 16 0
BBX 15 16 0 -2
BITMAP
0380
07C0
0C60
0820
0C60
07C0
0380
0100
3FF8
3FF8
0100
0100
0100
0100
0100
0000
ENDCHAR
STARTCHAR 2642
ENCODING 9794
SWIDTH 960 0
DWIDTH 16 0
BBX 15 16 0 -2
BITMAP
0000
00FC
00FC
001C
0034
0064
00C4
0180
3B00
7E00
C600
8200
C600
7C00
3800
0000
ENDCHAR
STARTCHAR 266A
ENCODING 9834
SWIDTH 960 0
DWIDTH 16 0
BBX 15 16 0 -2
BITMAP
0000
0100
0180
01C0
0160
0130
0110
0110
0170
0160
0700
1F00
3E00
3E00
1800
0000
ENDCHAR
STARTCHAR 266D
ENCODING 9837
SWIDTH 960 0
DWIDTH 16 0
BBX 15 16 0 -2
BITMAP
0000
0800
0800
0800
0800
0B00
0F80
0CC0
08C0
0880
0980
0B00
0E00
0C00
0800
0000
ENDCHAR
STARTCHAR 266F
ENCODING 9839
SWIDTH 960 0
DWIDTH 16 0
BBX 15 16 0 -2
BITMAP
0000
0040
0440
0470
07F0
1FC0
1C40
0440
0440
0470
07F0
1FC0
1C40
0440
0400
0000
ENDCHAR
STARTCHAR 3000
ENCODING 12288
SWIDTH 960 0
DWIDTH 16 0
BBX 15 16 0 -2
BITMAP
0000
0000
0000
0000
0000
0000
0000
0000
0000
0000
0000
0000
0000
0000
0000
0000
ENDCHAR
STARTCHAR 3001
ENCODING 12289
SWIDTH 960 0
DWIDTH 16 0
BBX 15 16 0 -2
BITMAP
0000
0000
0000
0000
0000
0000
0000
0000
0000
0000
8000
C000
6000
3000
3000
0000
ENDCHAR
STARTCHAR 3002
ENCODING 12290
SWIDTH 960 0
DWIDTH 16 0
BBX 15 16 0 -2
BITMAP
0000
0000
0000
0000
0000
0000
0000
0000
0000
0000
7000
F800
8800
F800
7000
0000
ENDCHAR
STARTCHAR 3003
ENCODING 12291
SWIDTH 960 0
DWIDTH 16 0
BBX 15 16 0 -2
BITMAP
0000
0000
0000
0000
0440
0440
0440
0880
1980
1100
0000
0000
0000
0000
0000
0000
ENDCHAR
STARTCHAR 3005
ENCODING 12293
SWIDTH 960 0
DWIDTH 16 0
BBX 15 16 0 -2
BITMAP
0000
0200
0200
0200
07F0
07F0
0C20
1860
3040
E680
C780
0180
00C0
0040
0000
0000
ENDCHAR
STARTCHAR 3006
ENCODING 12294
SWIDTH 960 0
DWIDTH 16 0
BBX 15 16 0 -2
BITMAP
0008
0008
0018
0030
0460
0EC0
1B80
1300
2680
2C80
5880
5000
6000
6000
4000
0000
ENDCHAR
STARTCHAR 3007
ENCODING 12295
SWIDTH 960 0
DWIDTH 16 0
BBX 15 16 0 -2
BITMAP
0000
07C0
1FF0
3838
600C
4004
8002
8002
8002
4004
600C
3838
1FF0
07C0
0000
0000
ENDCHAR
STARTCHAR 3008
ENCODING 12296
SWIDTH 960 0
DWIDTH 16 0
BBX 15 16 0 -2
BITMAP
0004
000C
0008
0018
0030
0020
0060
0040
0060
0020
0030
0018
0008
000C
0004
0000
ENDCHAR
STARTCHAR 3009
ENCODING 12297
SWIDTH 960 0
DWIDTH 16 0
BBX 15 16 0 -2
BITMAP
2000
3000
1000
1800
0C00
0400
0600
0200
0600
0400
0C00
1800
1000
3000
2000
0000
ENDCHAR
STARTCHAR 300A
ENCODING 12298
SWIDTH 960 0
DWIDTH 16 0
BBX 15 16 0 -2
BITMAP
0024
006C
0048
00D8
00B0
01A0
0360
0240
0360
01A0
00B0
00D8
0048
006C
0024
0000
ENDCHAR
STARTCHAR 300B
ENCODING 12299
SWIDTH 960 0
DWIDTH 16 0
BBX 15 16 0 -2
BITMAP
2400
3600
1200
1B00
0D00
0580
06C0
0240
06C0
0580
0D00
1B00
1200
3600
2400
0000
ENDCHAR
STARTCHAR 300C
ENCODING 12300
SWIDTH 960 0
DWIDTH 16 0
BBX 15 16 0 -2
BITMAP
007C
007C
0040
0040
0040
0040
0040
0040
0040
0040
0040
0040
0040
0000
0000
0000
ENDCHAR
STARTCHAR 300D
ENCODING 12301
SWIDTH 960 0
DWIDTH 16 0
BBX 15 16 0 -2
BITMAP
0000
0000
0000
0400
0400
0400
0400
0400
0400
0400
0400
0400
0400
7C00
7C00
0000
ENDCHAR
STARTCHAR 300E
ENCODING 12302
SWIDTH 960 0
DWIDTH 16 0
BBX 15 16 0 -2
BITMAP
00FC
00FC
0084
0084
00BC
00BC
00A0
00A0
00A0
00A0
00A0
00E0
00E0
0000
0000
0000
ENDCHAR
STARTCHAR 300F
ENCODING 12303
SWIDTH 960 0
DWIDTH 16 0
BBX 15 16 0 -2
BITMAP
0000
0000
0000
0E00
0E00
0A00
0A00
0A00
0A00
7A00
7A00
4200
4200
7E00
7E00
0000
ENDCHAR
STARTCHAR 3010
ENCODING 12304
SWIDTH 960 0
DWIDTH 16 0
BBX 15 16 0 -2
BITMAP
007C
007C
0070
0070
0060
0060
0060
0060
0060
0060
0060
0070
0070
007C
007C
0000
ENDCHAR
STARTCHAR 3011
ENCODING 12305
SWIDTH 960 0
DWIDTH 16 0
BBX 15 16 0 -2
BITMAP
3E00
3E00
0E00
0E00
0600
0600
0600
0600
0600
0600
0600
0E00
0E00
3E00
3E00
0000
ENDCHAR
STARTCHAR 3012
ENCODING 12306
SWIDTH 960 0
DWIDTH 16 0
BBX 15 16 0 -2
BITMAP
0000
FFFC
FFFC
0000
0000
FFFC
FFFC
0300
0300
0300
0300
0300
0300
0300
0300
0000
ENDCHAR
STARTCHAR 3013
ENCODING 12307
SWIDTH 960 0
DWIDTH 16 0
BBX 15 16 0 -2
BITMAP
0000
0000
0000
0000
3FF8
3FF8
0000
0000
0000
3FF8
3FF8
0000
0000
0000
0000
0000
ENDCHAR
STARTCHAR 3014
ENCODING 12308
SWIDTH 960 0
DWIDTH 16 0
BBX 15 16 0 -2
BITMAP
000C
003C
0030
0020
0020
0020
0020
0020
0020
0020
0020
0020
0030
003C
000C
0000
ENDCHAR
STARTCHAR 3015
ENCODING 12309
SWIDTH 960 0
DWIDTH 16 0
BBX 15 16 0 -2
BITMAP
3000
3C00
0C00
0400
0400
0400
0400
0400
0400
0400
0400
0400
0C00
3C00
3000
0000
ENDCHAR
STARTCHAR 301C
ENCODING 12316
SWIDTH 960 0
DWIDTH 16 0
BBX 15 16 0 -2
BITMAP
0000
0000
0000
0000
0000
3C00
7E00
C302
8186
00FC
0078
0000
0000
0000
0000
0000
ENDCHAR
STARTCHAR 301D
ENCODING 12317
SWIDTH 960 0
DWIDTH 16 0
BBX 15 16 0 -2
BITMAP
0000
0024
006C
0048
0000
0000
0000
0000
0000
0000
0000
0000
0000
0000
0000
0000
ENDCHAR
STARTCHAR 301F
ENCODING 12319
SWIDTH 960 0
DWIDTH 16 0
BBX 15 16 0 -2
BITMAP
0000
0000
0000
0000
0000
0000
0000
0000
0000
0000
0000
0000
2400
6C00
4800
0000
ENDCHAR
STARTCHAR 3041
ENCODING 12353
SWIDTH 960 0
DWIDTH 16 0
BBX 15 16 0 -2
BITMAP
0000
0000
0000
0000
0200
03C0
0FC0
0E00
03C0
0FE0
1EB0
1310
1F30
1CE0
00C0
0000
ENDCHAR
STARTCHAR 3042
ENCODING 12354
SWIDTH 960 0
DWIDTH 16 0
BBX 15 16 0 -2
BITMAP
0300
0300
01E0
1FE0
1F00
0240
03F0
07F8
0ECC
1A84
3384
270C
3D18
38F0
00E0
0000
ENDCHAR
STARTCHAR 3043
ENCODING 12355
SWIDTH 960 0
DWIDTH 16 0
BBX 15 16 0 -2
BITMAP
0000
0000
0000
0000
0000
0000
0000
2040
3060
1030
1018
1018
1800
0C00
0C00
0000
ENDCHAR
STARTCHAR 3044
ENCODING 12356
SWIDTH 960 0
DWIDTH 16 0
BBX 15 16 0 -2
BITMAP
0000
0000
4000
6020
2030
2018
2018
200C
200C
300C
3000
1800
1800
0800
0000
0000
ENDCHAR
STARTCHAR 3045
ENCODING 12357
SWIDTH 960 0
DWIDTH 16 0
BBX 15 16 0 -2
BITMAP
0000
0000
0000
0000
03C0
03C0
0000
0180
07C0
0660
0020
0020
0060
03C0
0380
0000
ENDCHAR
STARTCHAR 3046
ENCODING 12358
SWIDTH 960 0
DWIDTH 16 0
BBX 15 16 0 -2
BITMAP
0400
0780
0380
0000
0000
0380
1FC0
1C60
0020
0020
0060
0040
00C0
0780
0700
0000
ENDCHAR
STARTCHAR 3047
ENCODING 12359
SWIDTH 960 0
DWIDTH 16 0
BBX 15 16 0 -2
BITMAP
0000
0000
0000
0000
0000
0380
0380
0000
0FC0
0FC0
0180
0300
0E80
1CF0
1870
0000
ENDCHAR
STARTCHAR 3048
ENCODING 12360
SWIDTH 960 0
DWIDTH 16 0
BBX 15 16 0 -2
BITMAP
0400
07C0
03C0
0000
03C0
1FC0
1D80
0300
0200
0700
0D80
0880
1880
30FC
307C
0000
ENDCHAR
STARTCHAR 3049
ENCODING 12361
SWIDTH 960 0
DWIDTH 16 0
BBX 15 16 0 -2
BITMAP
0000
0000
0000
0000
0000
0600
07B0
1FB0
1E00
05E0
0FF0
1E30
1530
1DE0
0CC0
0000
ENDCHAR
STARTCHAR 304A
ENCODING 12362
SWIDTH 960 0
DWIDTH 16 0
BBX 15 16 0 -2
BITMAP
1800
1800
0810
0F18
7F0C
780C
0800
08F0
0BF8
0F0C
1C04
7804
688C
38F8
1870
0000
ENDCHAR
STARTCHAR 304B
ENCODING 12363
SWIDTH 960 0
DWIDTH 16 0
BBX 15 16 0 -2
BITMAP
0C00
0C00
0400
0400
1F10
FF98
E88C
088C
1886
1086
3186
2100
6B00
CE00
8C00
0000
ENDCHAR
STARTCHAR 304C
ENCODING 12364
SWIDTH 960 0
DWIDTH 16 0
BBX 15 16 0 -2
BITMAP
0C00
0C04
0416
041A
1F08
FF90
E898
088C
1886
1086
3186
2100
6B00
CE00
8C00
0000
ENDCHAR
STARTCHAR 304D
ENCODING 12365
SWIDTH 960 0
DWIDTH 16 0
BBX 15 16 0 -2
BITMAP
0300
0300
0130
0FF0
0FC0
0098
0FF8
0FE0
0030
07D8
0FF8
0818
0800
0FE0
07E0
0000
ENDCHAR
STARTCHAR 304E
ENCODING 12366
SWIDTH 960 0
DWIDTH 16 0
BBX 15 16 0 -2
BITMAP
0604
0616
02DA
1FC8
1F00
0130
1FF0
1FC0
0060
0FB0
1FF0
1030
1000
1FC0
0FC0
0000
ENDCHAR
STARTCHAR 304F
ENCODING 12367
SWIDTH 960 0
DWIDTH 16 0
BBX 15 16 0 -2
BITMAP
0180
0180
0180
0300
0600
0C00
1800
1000
1800
0C00
0600
0300
0180
00C0
00C0
0040
ENDCHAR
STARTCHAR 3050
ENCODING 12368
SWIDTH 960 0
DWIDTH 16 0
BBX 15 16 0 -2
BITMAP
0180
0180
0180
0308
062C
0C34
1810
1000
1800
0C00
0600
0300
0180
00C0
00C0
0040
ENDCHAR
STARTCHAR 3051
ENCODING 12369
SWIDTH 960 0
DWIDTH 16 0
BBX 15 16 0 -2
BITMAP
0060
6060
6020
2020
2020
203E
63FE
43E0
4020
4020
4020
6060
6040
31C0
3180
0000
ENDCHAR
STARTCHAR 3052
ENCODING 12370
SWIDTH 960 0
DWIDTH 16 0
BBX 15 16 0 -2
BITMAP
0064
6076
603A
2028
2020
203E
63FE
43E0
4020
4020
4020
6060
6040
31C0
3180
0000
ENDCHAR
STARTCHAR 3053
ENCODING 12371
SWIDTH 960 0
DWIDTH 16 0
BBX 15 16 0 -2
BITMAP
0000
0000
0800
0FE0
07E0
0000
0000
1000
3000
2000
2000
3000
1FF8
0FF8
0000
0000
ENDCHAR
STARTCHAR 3054
ENCODING 12372
SWIDTH 960 0
DWIDTH 16 0
BBX 15 16 0 -2
BITMAP
0008
002C
0834
0FD0
07C0
0000
0000
1000
3000
2000
2000
3000
1FF8
0FF8
0000
0000
ENDCHAR
STARTCHAR 3055
ENCODING 12373
SWIDTH 960 0
DWIDTH 16 0
BBX 15 16 0 -2
BITMAP
0600
0600
0200
0310
2170
3FE0
1F80
00C0
0060
0FB0
1FF0
1070
1000
1FC0
0FC0
0000
ENDCHAR
STARTCHAR 3056
ENCODING 12374
SWIDTH 960 0
DWIDTH 16 0
BBX 15 16 0 -2
BITMAP
0604
0616
021A
0308
2170
3FF0
1F80
00C0
0060
0FB0
1FF0
1070
1000
1FC0
0FC0
0000
ENDCHAR
STARTCHAR 3057
ENCODING 12375
SWIDTH 960 0
DWIDTH 16 0
BBX 15 16 0 -2
BITMAP
1800
1800
0800
0800
0800
0800
0800
0800
0800
0804
080C
0818
0870
0FE0
0780
0000
ENDCHAR
STARTCHAR 3058
ENCODING 12376
SWIDTH 960 0
DWIDTH 16 0
BBX 15 16 0 -2
BITMAP
1800
1800
0810
0858
0868
0820
0800
0800
0800
0804
080C
0818
0870
0FE0
0780
0000
ENDCHAR
STARTCHAR 3059
ENCODING 12377
SWIDTH 960 0
DWIDTH 16 0
BBX 15 16 0 -2
BITMAP
0180
0180
0080
0080
07FE
FFFE
F880
0780
0F80
0880
0F80
0680
0180
0F00
0E00
0000
ENDCHAR
STARTCHAR 305A
ENCODING 12378
SWIDTH 960 0
DWIDTH 16 0
BBX 15 16 0 -2
BITMAP
0184
0196
009A
0088
07FE
FFFE
F880
0780
0F80
0880
0F80
0680
0180
0F00
0E00
0000
ENDCHAR
STARTCHAR 305B
ENCODING 12379
SWIDTH 960 0
DWIDTH 16 0
BBX 15 16 0 -2
BITMAP
0000
00C0
18C0
1840
0840
08FE
0FFE
FF40
F840
08C0
08C0
0800
0C00
07F0
03F0
0000
ENDCHAR
STARTCHAR 305C
ENCODING 12380
SWIDTH 960 0
DWIDTH 16 0
BBX 15 16 0 -2
BITMAP
0004
00D6
18DA
1848
0840
08FE
0FFE
FF40
F840
08C0
08C0
0800
0C00
07F0
03F0
0000
ENDCHAR
STARTCHAR 305D
ENCODING 12381
SWIDTH 960 0
DWIDTH 16 0
BBX 15 16 0 -2
BITMAP
0000
03C0
1FC0
1D80
0300
0200
07F8
7FF8
7980
0300
0200
0200
0300
03C0
01C0
0000
ENDCHAR
STARTCHAR 305E
ENCODING 12382
SWIDTH 960 0
DWIDTH 16 0
BBX 15 16 0 -2
BITMAP
0000
03C4
1FD6
1D9A
0308
0200
07F8
7FF8
7980
0300
0200
0200
0300
03C0
01C0
0000
ENDCHAR
STARTCHAR 305F
ENCODING 12383
SWIDTH 960 0
DWIDTH 16 0
BBX 15 16 0 -2
BITMAP
0000
1800
1800
0800
0E00
7E60
7878
1018
1000
1000
3100
2100
6180
60F8
0078
0000
ENDCHAR
STARTCHAR 3060
ENCODING 12384
SWIDTH 960 0
DWIDTH 16 0
BBX 15 16 0 -2
BITMAP
0004
1816
181A
0808
0E00
7E60
7878
1018
1000
1000
3100
2100
6180
60F8
0078
0000
ENDCHAR
STARTCHAR 3061
ENCODING 12385
SWIDTH 960 0
DWIDTH 16 0
BBX 15 16 0 -2
BITMAP
0C00
0C00
0400
07C0
7FC0
7C00
0800
19E0
17F0
1E18
1808
0018
0070
03E0
0380
0000
ENDCHAR
STARTCHAR 3062
ENCODING 12386
SWIDTH 960 0
DWIDTH 16 0
BBX 15 16 0 -2
BITMAP
0C00
0C08
042C
07B4
7F90
7C00
0800
19E0
17F0
1E18
1808
0018
0070
03E0
0380
0000
ENDCHAR
STARTCHAR 3063
ENCODING 12387
SWIDTH 960 0
DWIDTH 16 0
BBX 15 16 0 -2
BITMAP
0000
0000
0000
0000
0000
0000
0000
03E0
0FF0
3C10
3010
0030
0060
03C0
0380
0000
ENDCHAR
STARTCHAR 3064
ENCODING 12388
SWIDTH 960 0
DWIDTH 16 0
BBX 15 16 0 -2
BITMAP
0000
0000
0000
0000
03F0
1FF8
7C0C
6004
0004
0004
000C
0038
03F0
03C0
0000
0000
ENDCHAR
STARTCHAR 3065
ENCODING 12389
SWIDTH 960 0
DWIDTH 16 0
BBX 15 16 0 -2
BITMAP
0004
0016
001A
0008
03F0
1FF8
7C0C
6004
0004
0004
000C
0038
03F0
03C0
0000
0000
ENDCHAR
STARTCHAR 3066
ENCODING 12390
SWIDTH 960 0
DWIDTH 16 0
BBX 15 16 0 -2
BITMAP
0000
01FC
0FFC
FEC0
F180
0300
0200
0600
0400
0400
0400
0600
03F0
01F0
0000
0000
ENDCHAR
STARTCHAR 3067
ENCODING 12391
SWIDTH 960 0
DWIDTH 16 0
BBX 15 16 0 -2
BITMAP
0000
01F8
0FF8
FEC4
F196
031A
0208
0600
0400
0400
0400
0600
03F0
01F0
0000
0000
ENDCHAR
STARTCHAR 3068
ENCODING 12392
SWIDTH 960 0
DWIDTH 16 0
BBX 15 16 0 -2
BITMAP
0600
0600
0200
0200
0200
0270
01F0
0380
0600
0C00
0800
0800
0C00
07F0
03F0
0000
ENDCHAR
STARTCHAR 3069
ENCODING 12393
SWIDTH 960 0
DWIDTH 16 0
BBX 15 16 0 -2
BITMAP
0C08
0C2C
0434
0410
0400
04E0
03E0
0700
0C00
1800
1000
1000
1800
0FE0
07E0
0000
ENDCHAR
STARTCHAR 306A
ENCODING 12394
SWIDTH 960 0
DWIDTH 16 0
BBX 15 16 0 -2
BITMAP
0C00
0C00
0430
0738
7F0C
783C
0870
1840
1040
3040
63E0
67F8
045C
07C4
0380
0000
ENDCHAR
STARTCHAR 306B
ENCODING 12395
SWIDTH 960 0
DWIDTH 16 0
BBX 15 16 0 -2
BITMAP
0000
3000
3000
11F0
11F8
1008
3000
2000
2000
2000
2100
2180
30FC
307C
1000
0000
ENDCHAR
STARTCHAR 306C
ENCODING 12396
SWIDTH 960 0
DWIDTH 16 0
BBX 15 16 0 -2
BITMAP
0000
0300
0300
1100
13F0
17F8
1D0C
1B04
3A04
2A04
66EC
4DF8
791C
31F6
00E2
0000
ENDCHAR
STARTCHAR 306D
ENCODING 12397
SWIDTH 960 0
DWIDTH 16 0
BBX 15 16 0 -2
BITMAP
1800
1800
0800
0800
0EF0
7FF8
7B0C
0E04
0C04
1804
38EC
69F8
691C
19F6
18E2
0000
ENDCHAR
STARTCHAR 306E
ENCODING 12398
SWIDTH 960 0
DWIDTH 16 0
BBX 15 16 0 -2
BITMAP
0000
0000
03E0
0FF0
1D18
310C
230C
6204
4604
440C
4C0C
6818
38F0
30E0
0000
0000
ENDCHAR
STARTCHAR 306F
ENCODING 12399
SWIDTH 960 0
DWIDTH 16 0
BBX 15 16 0 -2
BITMAP
0000
6060
6060
2020
203C
27FC
67E0
4020
4020
4020
43E0
47F8
643C
67E6
23C2
0000
ENDCHAR
STARTCHAR 3070
ENCODING 12400
SWIDTH 960 0
DWIDTH 16 0
BBX 15 16 0 -2
BITMAP
0004
60D6
60DA
2048
2040
27F8
67F8
4040
4040
4040
43C0
47F0
6478
67CC
2384
0000
ENDCHAR
STARTCHAR 3071
ENCODING 12401
SWIDTH 960 0
DWIDTH 16 0
BBX 15 16 0 -2
BITMAP
000C
60DE
60D2
205E
204C
27F8
67F8
4040
4040
4040
43C0
47F0
6478
67CC
2384
0000
ENDCHAR
STARTCHAR 3072
ENCODING 12402
SWIDTH 960 0
DWIDTH 16 0
BBX 15 16 0 -2
BITMAP
0000
0000
0220
0E20
7C30
7830
1838
102C
302E
2066
2040
20C0
3180
1F00
0E00
0000
ENDCHAR
STARTCHAR 3073
ENCODING 12403
SWIDTH 960 0
DWIDTH 16 0
BBX 15 16 0 -2
BITMAP
0000
0004
0456
1C5A
F868
F060
3070
2058
605C
40CC
4080
4180
6300
3E00
1C00
0000
ENDCHAR
STARTCHAR 3074
ENCODING 12404
SWIDTH 960 0
DWIDTH 16 0
BBX 15 16 0 -2
BITMAP
0000
000C
045E
1C52
F87E
F06C
3070
2058
605C
40CC
4080
4180
6300
3E00
1C00
0000
ENDCHAR
STARTCHAR 3075
ENCODING 12405
SWIDTH 960 0
DWIDTH 16 0
BBX 15 16 0 -2
BITMAP
0200
0300
01C0
01C0
0300
0600
0400
0700
03F0
0EFC
188E
3086
E482
C780
0300
0000
ENDCHAR
STARTCHAR 3076
ENCODING 12406
SWIDTH 960 0
DWIDTH 16 0
BBX 15 16 0 -2
BITMAP
0200
0300
01C4
01D6
031A
0608
0400
0700
03F0
0EFC
188E
3086
E482
C780
0300
0000
ENDCHAR
STARTCHAR 3077
ENCODING 12407
SWIDTH 960 0
DWIDTH 16 0
BBX 15 16 0 -2
BITMAP
0200
0300
01CC
01DE
0312
061E
040C
0700
03F0
0EFC
188E
3086
E482
C780
0300
0000
ENDCHAR
STARTCHAR 3078
ENCODING 12408
SWIDTH 960 0
DWIDTH 16 0
BBX 15 16 0 -2
BITMAP
0000
0000
0000
0C00
0E00
1B00
1180
30C0
2060
E030
C018
000E
0006
0000
0000
0000
ENDCHAR
STARTCHAR 3079
ENCODING 12409
SWIDTH 960 0
DWIDTH 16 0
BBX 15 16 0 -2
BITMAP
0000
0010
0058
0C68
0E20
1B00
1180
30C0
2060
E030
C018
000E
0006
0000
0000
0000
ENDCHAR
STARTCHAR 307A
ENCODING 12410
SWIDTH 960 0
DWIDTH 16 0
BBX 15 16 0 -2
BITMAP
0000
0030
0078
0C48
0E78
1B30
1180
30C0
2060
E030
C018
000E
0006
0000
0000
0000
ENDCHAR
STARTCHAR 307B
ENCODING 12411
SWIDTH 960 0
DWIDTH 16 0
BBX 15 16 0 -2
BITMAP
0000
601C
63FC
23E0
2020
203C
63FC
43E0
4020
4020
41E0
43F8
623C
33E4
31C0
0000
ENDCHAR
STARTCHAR 307C
ENCODING 12412
SWIDTH 960 0
DWIDTH 16 0
BBX 15 16 0 -2
BITMAP
0004
6016
63FA
23EC
2024
2020
63FC
43FC
4020
4020
41E0
43F8
623C
33E4
31C0
0000
ENDCHAR
STARTCHAR 307D
ENCODING 12413
SWIDTH 960 0
DWIDTH 16 0
BBX 15 16 0 -2
BITMAP
000C
601E
63F2
23FE
202C
2020
63FC
43FC
4020
4020
41E0
43F8
623C
33E4
31C0
0000
ENDCHAR
STARTCHAR 307E
ENCODING 12414
SWIDTH 960 0
DWIDTH 16 0
BBX 15 16 0 -2
BITMAP
0300
0300
0170
3FF0
3F80
0170
1FF0
1F80
0100
0100
1F80
3FE0
2178
3F18
1E00
0000
ENDCHAR
STARTCHAR 307F
ENCODING 12415
SWIDTH 960 0
DWIDTH 16 0
BBX 15 16 0 -2
BITMAP
0000
0000
0300
1F80
1D80
0330
0230
0610
1F90
3FF0
647C
4C2E
7862
71C0
0180
0000
ENDCHAR
STARTCHAR 3080
ENCODING 12416
SWIDTH 960 0
DWIDTH 16 0
BBX 15 16 0 -2
BITMAP
0C00
0C00
0710
7F18
7C0C
080C
3800
7800
4810
4818
7808
3008
1018
1FF0
0FE0
0000
ENDCHAR
STARTCHAR 3081
ENCODING 12417
SWIDTH 960 0
DWIDTH 16 0
BBX 15 16 0 -2
BITMAP
0000
0300
0300
1100
13F0
17F8
1D0C
1B04
3204
2E04
6C0C
4E18
7AF0
30E0
0000
0000
ENDCHAR
STARTCHAR 3082
ENCODING 12418
SWIDTH 960 0
DWIDTH 16 0
BBX 15 16 0 -2
BITMAP
0300
0300
0100
2300
3200
1E80
0EC0
2460
2C20
3F30
1F10
0810
0C30
07E0
03C0
0000
ENDCHAR
STARTCHAR 3083
ENCODING 12419
SWIDTH 960 0
DWIDTH 16 0
BBX 15 16 0 -2
BITMAP
0000
0000
0000
0000
0300
0380
0880
1DF0
17F8
1E08
7898
64F0
0660
0300
0300
0000
ENDCHAR
STARTCHAR 3084
ENCODING 12420
SWIDTH 960 0
DWIDTH 16 0
BBX 15 16 0 -2
BITMAP
0100
01C0
00E0
1C20
3EF8
23FC
3706
1C02
38C6
ECFC
C638
0300
0300
0180
0180
0000
ENDCHAR
STARTCHAR 3085
ENCODING 12421
SWIDTH 960 0
DWIDTH 16 0
BBX 15 16 0 -2
BITMAP
0000
0000
0000
0000
1900
1B80
0BE0
1BF0
1698
1E98
1A98
1BF0
09E0
0700
0600
0000
ENDCHAR
STARTCHAR 3086
ENCODING 12422
SWIDTH 960 0
DWIDTH 16 0
BBX 15 16 0 -2
BITMAP
0000
0180
63C0
6670
25F8
27CC
6644
4C44
5E44
524C
73F8
61F0
2080
0780
0700
0000
ENDCHAR
STARTCHAR 3087
ENCODING 12423
SWIDTH 960 0
DWIDTH 16 0
BBX 15 16 0 -2
BITMAP
0000
0000
0000
0000
0300
0300
0160
01E0
0180
0100
0F80
1FE0
1170
1F10
0E00
0000
ENDCHAR
STARTCHAR 3088
ENCODING 12424
SWIDTH 960 0
DWIDTH 16 0
BBX 15 16 0 -2
BITMAP
0300
0300
0100
0100
0130
01F0
01C0
0100
0100
0100
1F80
3FE0
2178
3F18
1E00
0000
ENDCHAR
STARTCHAR 3089
ENCODING 12425
SWIDTH 960 0
DWIDTH 16 0
BBX 15 16 0 -2
BITMAP
0100
0180
00C0
02C0
0600
0C00
0800
09E0
0FF0
1E18
1808
0018
0070
03E0
0380
0000
ENDCHAR
STARTCHAR 308A
ENCODING 12426
SWIDTH 960 0
DWIDTH 16 0
BBX 15 16 0 -2
BITMAP
0000
1800
18C0
09E0
1B30
1A10
1610
1410
1410
1810
1830
0020
0060
03C0
0380
0000
ENDCHAR
STARTCHAR 308B
ENCODING 12427
SWIDTH 960 0
DWIDTH 16 0
BBX 15 16 0 -2
BITMAP
0000
1380
1FC0
0CC0
0180
0300
0600
0DE0
1FF0
3818
3308
0788
0498
07F0
03E0
0000
ENDCHAR
STARTCHAR 308C
ENCODING 12428
SWIDTH 960 0
DWIDTH 16 0
BBX 15 16 0 -2
BITMAP
1800
1800
0800
0860
0CF0
1DB0
7B10
6E10
0C30
1820
3822
6826
683C
1818
1800
0000
ENDCHAR
STARTCHAR 308D
ENCODING 12429
SWIDTH 960 0
DWIDTH 16 0
BBX 15 16 0 -2
BITMAP
0000
1180
1FC0
0EC0
0180
0300
0600
0FE0
1FF0
3818
2008
0018
0070
07E0
0780
0000
ENDCHAR
STARTCHAR 308E
ENCODING 12430
SWIDTH 960 0
DWIDTH 16 0
BBX 15 16 0 -2
BITMAP
0000
0000
0000
0000
0000
0C00
0C00
06C0
3FE0
3F30
0C10
1C10
3530
3DE0
0CC0
0000
ENDCHAR
STARTCHAR 308F
ENCODING 12431
SWIDTH 960 0
DWIDTH 16 0
BBX 15 16 0 -2
BITMAP
1800
1800
0800
0800
0E00
7EF0
7BF8
0F0C
0C04
1804
380C
6818
68F0
18E0
1800
0000
ENDCHAR
STARTCHAR 3090
ENCODING 12432
SWIDTH 960 0
DWIDTH 16 0
BBX 15 16 0 -2
BITMAP
0000
03C0
1FC0
1D80
0300
0600
0FF0
1FF8
340C
2C04
6984
5BCC
7278
63F0
01C0
0000
ENDCHAR
STARTCHAR 3091
ENCODING 12433
SWIDTH 960 0
DWIDTH 16 0
BBX 15 16 0 -2
BITMAP
01C0
0FC0
0EC0
0180
03E0
07F0
0E10
0830
07E0
0FC0
1838
3C7C
7EC6
C382
C302
0000
ENDCHAR
STARTCHAR 3092
ENCODING 12434
SWIDTH 960 0
DWIDTH 16 0
BBX 15 16 0 -2
BITMAP
0600
0600
03C0
3FC0
3E00
0400
0E18
3B78
31E0
0380
0700
0D00
0800
0FF0
07F0
0000
ENDCHAR
STARTCHAR 3093
ENCODING 12435
SWIDTH 960 0
DWIDTH 16 0
BBX 15 16 0 -2
BITMAP
0000
0300
0300
0200
0600
0600
0400
0C00
0800
1E04
1F04
310C
2118
61F0
60E0
0000
ENDCHAR
STARTCHAR 309B
ENCODING 12443
SWIDTH 960 0
DWIDTH 16 0
BBX 15 16 0 -2
BITMAP
2000
B000
D000
4000
0000
0000
0000
0000
0000
0000
0000
0000
0000
0000
0000
0000
ENDCHAR
STARTCHAR 309C
ENCODING 12444
SWIDTH 960 0
DWIDTH 16 0
BBX 15 16 0 -2
BITMAP
6000
F000
9000
F000
6000
0000
0000
0000
0000
0000
0000
0000
0000
0000
0000
0000
ENDCHAR
STARTCHAR 309D
ENCODING 12445
SWIDTH 960 0
DWIDTH 16 0
BBX 15 16 0 -2
BITMAP
0000
0000
0000
0400
0400
0200
0300
0180
00C0
0060
00F0
03D0
0310
0000
0000
0000
ENDCHAR
STARTCHAR 309E
ENCODING 12446
SWIDTH 960 0
DWIDTH 16 0
BBX 15 16 0 -2
BITMAP
0000
0040
0060
08A0
08C0
0440
0600
0300
0180
00C0
01E0
07A0
0620
0000
0000
0000
ENDCHAR
STARTCHAR 30A1
ENCODING 12449
SWIDTH 960 0
DWIDTH 16 0
BBX 15 16 0 -2
BITMAP
0000
0000
0000
0000
0000
0000
01F0
1FF0
1E60
02C0
0380
0100
0100
0700
0600
0000
ENDCHAR
STARTCHAR 30A2
ENCODING 12450
SWIDTH 960 0
DWIDTH 16 0
BBX 15 16 0 -2
BITMAP
0000
0000
0000
01FC
3FFC
3E18
01B0
01E0
00C0
0080
0080
0180
0100
0700
0600
0000
ENDCHAR
STARTCHAR 30A3
ENCODING 12451
SWIDTH 960 0
DWIDTH 16 0
BBX 15 16 0 -2
BITMAP
0000
0000
0000
0000
0000
0000
00C0
00C0
0180
0300
0700
1D00
1900
0300
0300
0000
ENDCHAR
STARTCHAR 30A4
ENCODING 12452
SWIDTH 960 0
DWIDTH 16 0
BBX 15 16 0 -2
BITMAP
0000
0030
0030
0060
00C0
0180
0300
0F00
3D00
3100
0100
0100
0100
0300
0300
0000
ENDCHAR
STARTCHAR 30A5
ENCODING 12453
SWIDTH 960 0
DWIDTH 16 0
BBX 15 16 0 -2
BITMAP
0000
0000
0000
0000
0000
0300
0300
19F0
1FF0
0E10
0830
0820
0060
03C0
0380
0000
ENDCHAR
STARTCHAR 30A6
ENCODING 12454
SWIDTH 960 0
DWIDTH 16 0
BBX 15 16 0 -2
BITMAP
0000
0300
0300
0100
31F8
3FF8
1E18
1010
1010
1030
1020
0060
00C0
0380
0300
0000
ENDCHAR
STARTCHAR 30A7
ENCODING 12455
SWIDTH 960 0
DWIDTH 16 0
BBX 15 16 0 -2
BITMAP
0000
0000
0000
0000
0000
0000
00E0
0FE0
0F00
0100
0100
01F0
1FF0
1E00
0000
0000
ENDCHAR
STARTCHAR 30A8
ENCODING 12456
SWIDTH 960 0
DWIDTH 16 0
BBX 15 16 0 -2
BITMAP
0000
0000
0000
00F0
1FF0
1F00
0100
0100
0100
0100
01FC
7FFC
7E00
0000
0000
0000
ENDCHAR
STARTCHAR 30A9
ENCODING 12457
SWIDTH 960 0
DWIDTH 16 0
BBX 15 16 0 -2
BITMAP
0000
0000
0000
0000
0180
0180
0080
01F0
1FF0
1F80
0680
0480
0E80
3B80
3180
0000
ENDCHAR
STARTCHAR 30AA
ENCODING 12458
SWIDTH 960 0
DWIDTH 16 0
BBX 15 16 0 -2
BITMAP
0000
00C0
00C0
0040
01FC
3FFC
3D40
0340
0240
0640
0C40
1940
71C0
60C0
00C0
0000
ENDCHAR
STARTCHAR 30AB
ENCODING 12459
SWIDTH 960 0
DWIDTH 16 0
BBX 15 16 0 -2
BITMAP
0000
0300
0300
0100
0100
03F8
3FF8
3E18
0610
0410
0C30
1820
3160
61C0
4180
0000
ENDCHAR
STARTCHAR 30AC
ENCODING 12460
SWIDTH 960 0
DWIDTH 16 0
BBX 15 16 0 -2
BITMAP
0000
0604
0616
021A
0208
07F0
7FF0
7C30
0C20
0820
1860
3040
62C0
C380
8300
0000
ENDCHAR
STARTCHAR 30AD
ENCODING 12461
SWIDTH 960 0
DWIDTH 16 0
BBX 15 16 0 -2
BITMAP
0000
0300
0300
0100
01F0
1FF0
1F80
0080
00BC
03FC
1FC0
1CC0
0040
0040
0040
0000
ENDCHAR
STARTCHAR 30AE
ENCODING 12462
SWIDTH 960 0
DWIDTH 16 0
BBX 15 16 0 -2
BITMAP
0004
0616
061A
0208
03E0
3FE0
3F00
0100
0178
07F8
3F80
3980
0080
0080
0080
0000
ENDCHAR
STARTCHAR 30AF
ENCODING 12463
SWIDTH 960 0
DWIDTH 16 0
BBX 15 16 0 -2
BITMAP
0000
0000
0300
0300
03F0
07F0
0630
0C20
1860
1040
00C0
0180
0700
1E00
1800
0000
ENDCHAR
STARTCHAR 30B0
ENCODING 12464
SWIDTH 960 0
DWIDTH 16 0
BBX 15 16 0 -2
BITMAP
0004
0016
061A
0608
07E0
0FE0
0C60
1840
30C0
2080
0180
0300
0E00
3C00
3000
0000
ENDCHAR
STARTCHAR 30B1
ENCODING 12465
SWIDTH 960 0
DWIDTH 16 0
BBX 15 16 0 -2
BITMAP
0000
0000
0C00
0C00
04F8
07F8
0F40
0840
3840
30C0
0080
0180
0700
1E00
1800
0000
ENDCHAR
STARTCHAR 30B2
ENCODING 12466
SWIDTH 960 0
DWIDTH 16 0
BBX 15 16 0 -2
BITMAP
0004
0016
181A
1808
09F0
0FF0
1E80
1080
7080
6180
0100
0300
0E00
3C00
3000
0000
ENDCHAR
STARTCHAR 30B3
ENCODING 12467
SWIDTH 960 0
DWIDTH 16 0
BBX 15 16 0 -2
BITMAP
0000
0000
0000
0000
00F0
1FF0
1F10
0010
0030
0020
0020
01E0
1FE0
1E20
0000
0000
ENDCHAR
STARTCHAR 30B4
ENCODING 12468
SWIDTH 960 0
DWIDTH 16 0
BBX 15 16 0 -2
BITMAP
0000
0004
0016
001A
01E8
3FE0
3E20
0020
0060
0040
0040
03C0
3FC0
3C40
0000
0000
ENDCHAR
STARTCHAR 30B5
ENCODING 12469
SWIDTH 960 0
DWIDTH 16 0
BBX 15 16 0 -2
BITMAP
0000
00C0
0CC0
0C40
0440
07FC
7FFC
7C40
0440
0440
00C0
0080
0180
0700
0600
0000
ENDCHAR
STARTCHAR 30B6
ENCODING 12470
SWIDTH 960 0
DWIDTH 16 0
BBX 15 16 0 -2
BITMAP
0004
00D6
0CDA
0C48
0440
07FC
7FFC
7C40
0440
0440
00C0
0080
0180
0700
0600
0000
ENDCHAR
STARTCHAR 30B7
ENCODING 12471
SWIDTH 960 0
DWIDTH 16 0
BBX 15 16 0 -2
BITMAP
0000
0000
1000
1E00
0E00
0004
200C
3C18
1C30
0060
01C0
0780
3E00
3800
0000
0000
ENDCHAR
STARTCHAR 30B8
ENCODING 12472
SWIDTH 960 0
DWIDTH 16 0
BBX 15 16 0 -2
BITMAP
0000
0004
1016
1E1A
0E08
0000
2008
3C18
1C30
0060
01C0
0780
3E00
3800
0000
0000
ENDCHAR
STARTCHAR 30B9
ENCODING 12473
SWIDTH 960 0
DWIDTH 16 0
BBX 15 16 0 -2
BITMAP
0000
0000
0000
01E0
1FE0
1E60
0040
00C0
0080
01C0
0360
0E30
3C18
3018
0000
0000
ENDCHAR
STARTCHAR 30BA
ENCODING 12474
SWIDTH 960 0
DWIDTH 16 0
BBX 15 16 0 -2
BITMAP
0004
0016
001A
01E8
1FE0
1E60
0040
00C0
0080
01C0
0360
0E30
3C18
3018
0000
0000
ENDCHAR
STARTCHAR 30BB
ENCODING 12475
SWIDTH 960 0
DWIDTH 16 0
BBX 15 16 0 -2
BITMAP
0000
0C00
0C00
0C00
0400
05F8
0FF8
7E30
74E0
04C0
0400
0600
03F8
01F8
0000
0000
ENDCHAR
STARTCHAR 30BC
ENCODING 12476
SWIDTH 960 0
DWIDTH 16 0
BBX 15 16 0 -2
BITMAP
0004
0C16
0C1A
0C08
0400
05F8
0FF8
7E30
74E0
04C0
0400
0600
03F8
01F8
0000
0000
ENDCHAR
STARTCHAR 30BD
ENCODING 12477
SWIDTH 960 0
DWIDTH 16 0
BBX 15 16 0 -2
BITMAP
0000
0000
0030
2030
3010
1810
1830
0020
0060
0040
00C0
0180
0700
1E00
1800
0000
ENDCHAR
STARTCHAR 30BE
ENCODING 12478
SWIDTH 960 0
DWIDTH 16 0
BBX 15 16 0 -2
BITMAP
0004
0016
001A
2068
3060
1820
1820
0020
0060
0040
00C0
0180
0700
1E00
1800
0000
ENDCHAR
STARTCHAR 30BF
ENCODING 12479
SWIDTH 960 0
DWIDTH 16 0
BBX 15 16 0 -2
BITMAP
0000
0000
0300
0300
03F0
07F0
0630
0E20
1B60
11C0
00C0
0180
0700
1E00
1800
0000
ENDCHAR
STARTCHAR 30C0
ENCODING 12480
SWIDTH 960 0
DWIDTH 16 0
BBX 15 16 0 -2
BITMAP
0004
0016
061A
0608
07E0
0FE0
0C60
1C40
36C0
2380
0180
0300
0E00
3C00
3000
0000
ENDCHAR
STARTCHAR 30C1
ENCODING 12481
SWIDTH 960 0
DWIDTH 16 0
BBX 15 16 0 -2
BITMAP
0000
0030
01F0
1FC0
1F00
0180
00FC
3FFC
3F80
0080
0180
0100
0300
0E00
0C00
0000
ENDCHAR
STARTCHAR 30C2
ENCODING 12482
SWIDTH 960 0
DWIDTH 16 0
BBX 15 16 0 -2
BITMAP
0000
0064
01F6
1F9A
1F08
0180
00FC
3FFC
3F80
0080
0180
0100
0300
0E00
0C00
0000
ENDCHAR
STARTCHAR 30C3
ENCODING 12483
SWIDTH 960 0
DWIDTH 16 0
BBX 15 16 0 -2
BITMAP
0000
0000
0000
0000
0000
0000
0260
1360
1920
0860
0040
00C0
0180
0700
0600
0000
ENDCHAR
STARTCHAR 30C4
ENCODING 12484
SWIDTH 960 0
DWIDTH 16 0
BBX 15 16 0 -2
BITMAP
0000
0000
0830
0C30
4610
6610
3030
3020
0060
0040
00C0
0180
0700
1E00
1800
0000
ENDCHAR
STARTCHAR 30C5
ENCODING 12485
SWIDTH 960 0
DWIDTH 16 0
BBX 15 16 0 -2
BITMAP
0004
0016
081A
0C68
4660
6620
3020
3020
0060
0040
00C0
0180
0700
1E00
1800
0000
ENDCHAR
STARTCHAR 30C6
ENCODING 12486
SWIDTH 960 0
DWIDTH 16 0
BBX 15 16 0 -2
BITMAP
0000
01F0
1FF0
1E00
0000
00FC
3FFC
3F80
0080
0080
0180
0100
0300
0E00
0C00
0000
ENDCHAR
STARTCHAR 30C7
ENCODING 12487
SWIDTH 960 0
DWIDTH 16 0
BBX 15 16 0 -2
BITMAP
0000
03C4
3FD6
3C1A
0008
01F0
7FF0
7F00
0100
0100
0300
0200
0600
1C00
1800
0000
ENDCHAR
STARTCHAR 30C8
ENCODING 12488
SWIDTH 960 0
DWIDTH 16 0
BBX 15 16 0 -2
BITMAP
0000
0C00
0C00
0400
0400
0400
0780
07E0
0470
0410
0400
0400
0400
0400
0400
0000
ENDCHAR
STARTCHAR 30C9
ENCODING 12489
SWIDTH 960 0
DWIDTH 16 0
BBX 15 16 0 -2
BITMAP
0000
0C08
0C2C
0434
0410
0400
0780
07E0
0470
0410
0400
0400
0400
0400
0400
0000
ENDCHAR
STARTCHAR 30CA
ENCODING 12490
SWIDTH 960 0
DWIDTH 16 0
BBX 15 16 0 -2
BITMAP
0000
0180
0180
0080
0080
03FC
7FFC
7C80
0080
0080
0180
0100
0300
0E00
0C00
0000
ENDCHAR
STARTCHAR 30CB
ENCODING 12491
SWIDTH 960 0
DWIDTH 16 0
BBX 15 16 0 -2
BITMAP
0000
0000
0000
01E0
1FE0
1E00
0000
0000
0000
0000
03FC
7FFC
7C00
0000
0000
0000
ENDCHAR
STARTCHAR 30CC
ENCODING 12492
SWIDTH 960 0
DWIDTH 16 0
BBX 15 16 0 -2
BITMAP
0000
0000
00F0
1FF0
1F30
0020
0660
0740
01C0
01C0
0360
0E30
3C18
3008
0000
0000
ENDCHAR
STARTCHAR 30CD
ENCODING 12493
SWIDTH 960 0
DWIDTH 16 0
BBX 15 16 0 -2
BITMAP
0200
0380
0180
0000
03E0
1FE0
1C40
00C0
01A0
03B0
0E98
3C88
3080
0180
0180
0000
ENDCHAR
STARTCHAR 30CE
ENCODING 12494
SWIDTH 960 0
DWIDTH 16 0
BBX 15 16 0 -2
BITMAP
0000
0000
0060
0060
0020
0020
0060
0040
00C0
0180
0300
0E00
3C00
3000
0000
0000
ENDCHAR
STARTCHAR 30CF
ENCODING 12495
SWIDTH 960 0
DWIDTH 16 0
BBX 15 16 0 -2
BITMAP
0000
0000
0000
0C00
0C40
0460
0430
0C18
0818
180C
100C
300C
6000
4000
0000
0000
ENDCHAR
STARTCHAR 30D0
ENCODING 12496
SWIDTH 960 0
DWIDTH 16 0
BBX 15 16 0 -2
BITMAP
0000
0004
0016
0C1A
0C48
0460
0430
0C18
0818
180C
100C
300C
6000
4000
0000
0000
ENDCHAR
STARTCHAR 30D1
ENCODING 12497
SWIDTH 960 0
DWIDTH 16 0
BBX 15 16 0 -2
BITMAP
0000
000C
001E
0C12
0C5E
046C
0430
0C18
0818
180C
100C
300C
6000
4000
0000
0000
ENDCHAR
STARTCHAR 30D2
ENCODING 12498
SWIDTH 960 0
DWIDTH 16 0
BBX 15 16 0 -2
BITMAP
0000
0000
1800
1800
0800
0870
0FF0
0F80
0800
0800
0800
0C00
07F0
03F0
0000
0000
ENDCHAR
STARTCHAR 30D3
ENCODING 12499
SWIDTH 960 0
DWIDTH 16 0
BBX 15 16 0 -2
BITMAP
0000
0004
1816
181A
0808
0860
0FE0
0F80
0800
0800
0800
0C00
07F0
03F0
0000
0000
ENDCHAR
STARTCHAR 30D4
ENCODING 12500
SWIDTH 960 0
DWIDTH 16 0
BBX 15 16 0 -2
BITMAP
0000
000C
181E
1812
081E
086C
0FE0
0F80
0800
0800
0800
0C00
07F0
03F0
0000
0000
ENDCHAR
STARTCHAR 30D5
ENCODING 12501
SWIDTH 960 0
DWIDTH 16 0
BBX 15 16 0 -2
BITMAP
0000
0000
0000
00F0
1FF0
1F10
0010
0030
0020
0060
00C0
0380
0F00
0C00
0000
0000
ENDCHAR
STARTCHAR 30D6
ENCODING 12502
SWIDTH 960 0
DWIDTH 16 0
BBX 15 16 0 -2
BITMAP
0000
0004
0016
01DA
3FE8
3E20
0020
0060
0040
00C0
0180
0700
1E00
1800
0000
0000
ENDCHAR
STARTCHAR 30D7
ENCODING 12503
SWIDTH 960 0
DWIDTH 16 0
BBX 15 16 0 -2
BITMAP
000C
001E
0012
01DE
3FEC
3E20
0020
0060
0040
00C0
0180
0700
1E00
1800
0000
0000
ENDCHAR
STARTCHAR 30D8
ENCODING 12504
SWIDTH 960 0
DWIDTH 16 0
BBX 15 16 0 -2
BITMAP
0000
0000
0000
0000
0600
0F00
0980
18C0
3060
7038
601E
0006
0000
0000
0000
0000
ENDCHAR
STARTCHAR 30D9
ENCODING 12505
SWIDTH 960 0
DWIDTH 16 0
BBX 15 16 0 -2
BITMAP
0000
0010
0058
0068
0620
0F00
0980
18C0
3060
7038
601E
0006
0000
0000
0000
0000
ENDCHAR
STARTCHAR 30DA
ENCODING 12506
SWIDTH 960 0
DWIDTH 16 0
BBX 15 16 0 -2
BITMAP
0000
0030
0078
0048
0678
0F30
0980
18C0
3060
7038
601E
0006
0000
0000
0000
0000
ENDCHAR
STARTCHAR 30DB
ENCODING 12507
SWIDTH 960 0
DWIDTH 16 0
BBX 15 16 0 -2
BITMAP
0000
0300
0300
0100
01F8
3FF8
3F00
0100
0120
1130
1118
310C
650C
4700
0300
0000
ENDCHAR
STARTCHAR 30DC
ENCODING 12508
SWIDTH 960 0
DWIDTH 16 0
BBX 15 16 0 -2
BITMAP
0004
0316
031A
0108
01F0
3FF0
3F00
0100
0120
1130
1118
310C
650C
4700
0300
0000
ENDCHAR
STARTCHAR 30DD
ENCODING 12509
SWIDTH 960 0
DWIDTH 16 0
BBX 15 16 0 -2
BITMAP
000C
031E
0312
011E
01FC
3FF0
3F00
0100
0120
1130
1118
310C
650C
4700
0300
0000
ENDCHAR
STARTCHAR 30DE
ENCODING 12510
SWIDTH 960 0
DWIDTH 16 0
BBX 15 16 0 -2
BITMAP
0000
0000
0000
0000
01F8
3FF8
3E30
0060
00C0
0C80
0F00
0380
00C0
0040
0000
0000
ENDCHAR
STARTCHAR 30DF
ENCODING 12511
SWIDTH 960 0
DWIDTH 16 0
BBX 15 16 0 -2
BITMAP
0000
0000
0F00
0FE0
00F0
0010
0F00
0FC0
00E0
0020
1E00
1F80
01E0
0070
0010
0000
ENDCHAR
STARTCHAR 30E0
ENCODING 12512
SWIDTH 960 0
DWIDTH 16 0
BBX 15 16 0 -2
BITMAP
0000
0300
0300
0100
0100
0300
0200
0240
0660
0430
0C18
08F8
3FFC
3F0C
0000
0000
ENDCHAR
STARTCHAR 30E1
ENCODING 12513
SWIDTH 960 0
DWIDTH 16 0
BBX 15 16 0 -2
BITMAP
0000
0060
0060
0020
0020
0C60
0F40
03C0
00C0
01E0
0330
0E30
3C00
3000
0000
0000
ENDCHAR
STARTCHAR 30E2
ENCODING 12514
SWIDTH 960 0
DWIDTH 16 0
BBX 15 16 0 -2
BITMAP
0000
00E0
1FE0
1F00
0200
0200
03FC
7FFC
7E00
0200
0200
0300
01F0
00F0
0000
0000
ENDCHAR
STARTCHAR 30E3
ENCODING 12515
SWIDTH 960 0
DWIDTH 16 0
BBX 15 16 0 -2
BITMAP
0000
0000
0000
0000
0000
0000
0C00
0CF0
07F0
0F60
3EC0
3380
0100
0180
0080
0000
ENDCHAR
STARTCHAR 30E4
ENCODING 12516
SWIDTH 960 0
DWIDTH 16 0
BBX 15 16 0 -2
BITMAP
0000
0C00
0C00
0400
063C
02FC
07D8
1F30
7960
6140
0180
0080
00C0
0040
0040
0000
ENDCHAR
STARTCHAR 30E5
ENCODING 12517
SWIDTH 960 0
DWIDTH 16 0
BBX 15 16 0 -2
BITMAP
0000
0000
0000
0000
0000
0000
01C0
0FC0
0E40
00C0
0080
01F0
3FF0
3E00
0000
0000
ENDCHAR
STARTCHAR 30E6
ENCODING 12518
SWIDTH 960 0
DWIDTH 16 0
BBX 15 16 0 -2
BITMAP
0000
0000
0000
01C0
1FC0
1E40
00C0
0080
0080
0080
03FC
7FFC
7C00
0000
0000
0000
ENDCHAR
STARTCHAR 30E7
ENCODING 12519
SWIDTH 960 0
DWIDTH 16 0
BBX 15 16 0 -2
BITMAP
0000
0000
0000
0000
0000
0000
01E0
0FE0
0E20
01E0
07C0
0640
01C0
0FC0
0E40
0000
ENDCHAR
STARTCHAR 30E8
ENCODING 12520
SWIDTH 960 0
DWIDTH 16 0
BBX 15 16 0 -2
BITMAP
0000
0000
01F0
1FF0
1E10
0010
01F0
0FE0
0E20
0020
0020
01E0
1FE0
1E00
0000
0000
ENDCHAR
STARTCHAR 30E9
ENCODING 12521
SWIDTH 960 0
DWIDTH 16 0
BBX 15 16 0 -2
BITMAP
0000
00E0
0FE0
0F00
0000
00F8
1FF8
1F10
0010
0030
0020
0060
01C0
0780
0600
0000
ENDCHAR
STARTCHAR 30EA
ENCODING 12522
SWIDTH 960 0
DWIDTH 16 0
BBX 15 16 0 -2
BITMAP
0000
0060
1860
1820
0820
0820
0820
0820
0820
0820
0060
0040
00C0
0380
0300
0000
ENDCHAR
STARTCHAR 30EB
ENCODING 12523
SWIDTH 960 0
DWIDTH 16 0
BBX 15 16 0 -2
BITMAP
0000
0000
0300
1B00
1900
0900
0900
0902
0906
190C
1118
3170
61E0
6180
0000
0000
ENDCHAR
STARTCHAR 30EC
ENCODING 12524
SWIDTH 960 0
DWIDTH 16 0
BBX 15 16 0 -2
BITMAP
0000
0000
1800
1800
0800
0800
0800
0804
080C
0818
0870
09E0
0F80
0E00
0000
0000
ENDCHAR
STARTCHAR 30ED
ENCODING 12525
SWIDTH 960 0
DWIDTH 16 0
BBX 15 16 0 -2
BITMAP
0000
0000
0000
19F0
1FF0
0E10
0810
0830
0820
0820
0820
0FE0
0FE0
0800
0000
0000
ENDCHAR
STARTCHAR 30EE
ENCODING 12526
SWIDTH 960 0
DWIDTH 16 0
BBX 15 16 0 -2
BITMAP
0000
0000
0000
0000
0000
0000
0000
19E0
1FE0
0E20
0820
0860
00C0
0380
0300
0000
ENDCHAR
STARTCHAR 30EF
ENCODING 12527
SWIDTH 960 0
DWIDTH 16 0
BBX 15 16 0 -2
BITMAP
0000
0000
0000
31F0
3FF0
1E10
1010
1010
1030
0020
0060
00C0
0780
0700
0000
0000
ENDCHAR
STARTCHAR 30F0
ENCODING 12528
SWIDTH 960 0
DWIDTH 16 0
BBX 15 16 0 -2
BITMAP
0000
0180
0180
0080
00F8
1FF8
1F80
0480
0480
05FC
3FFC
3E80
0080
0080
0080
0000
ENDCHAR
STARTCHAR 30F1
ENCODING 12529
SWIDTH 960 0
DWIDTH 16 0
BBX 15 16 0 -2
BITMAP
0000
0000
0000
01F0
1FF0
1E60
00C0
0380
0300
0100
01FC
7FFC
7E00
0000
0000
0000
ENDCHAR
STARTCHAR 30F2
ENCODING 12530
SWIDTH 960 0
DWIDTH 16 0
BBX 15 16 0 -2
BITMAP
0000
0000
01F8
3FF8
3E18
0010
01F0
1FF0
1E30
0020
0060
00C0
0380
0F00
0C00
0000
ENDCHAR
STARTCHAR 30F3
ENCODING 12531
SWIDTH 960 0
DWIDTH 16 0
BBX 15 16 0 -2
BITMAP
0000
0000
1000
1800
0E00
0604
000C
0018
0030
0060
01C0
0780
3E00
3800
0000
0000
ENDCHAR
STARTCHAR 30F4
ENCODING 12532
SWIDTH 960 0
DWIDTH 16 0
BBX 15 16 0 -2
BITMAP
0004
0616
061A
0208
63E0
7FE0
3C20
2020
2020
2060
0040
00C0
0180
0700
0600
0000
ENDCHAR
STARTCHAR 30F5
ENCODING 12533
SWIDTH 960 0
DWIDTH 16 0
BBX 15 16 0 -2
BITMAP
0000
0000
0000
0000
0000
0300
0300
01F0
1FF0
1F10
0330
0220
0660
1DC0
1980
0000
ENDCHAR
STARTCHAR 30F6
ENCODING 12534
SWIDTH 960 0
DWIDTH 16 0
BBX 15 16 0 -2
BITMAP
0000
0000
0000
0000
0C00
0C00
0400
0FF0
0FF0
3880
3080
0180
0300
0E00
0C00
0000
ENDCHAR
STARTCHAR 30FB
ENCODING 12539
SWIDTH 960 0
DWIDTH 16 0
BBX 15 16 0 -2
BITMAP
0000
0000
0000
0000
0000
0000
0380
0380
0380
0000
0000
0000
0000
0000
0000
0000
ENDCHAR
STARTCHAR 30FC
ENCODING 12540
SWIDTH 960 0
DWIDTH 16 0
BBX 15 16 0 -2
BITMAP
0000
0000
0000
0000
0000
4000
7FFC
3FFC
0000
0000
0000
0000
0000
0000
0000
0000
ENDCHAR
STARTCHAR 30FD
ENCODING 12541
SWIDTH 960 0
DWIDTH 16 0
BBX 15 16 0 -2
BITMAP
0000
0000
0000
0000
0000
0400
0600
0300
0180
0080
00C0
0040
0000
0000
0000
0000
ENDCHAR
STARTCHAR 30FE
ENCODING 12542
SWIDTH 960 0
DWIDTH 16 0
BBX 15 16 0 -2
BITMAP
0000
0000
0040
0060
00A0
08C0
0C40
0600
0300
0100
0180
0080
0000
0000
0000
0000
ENDCHAR
STARTCHAR 3231
ENCODING 12849
SWIDTH 960 0
DWIDTH 16 0
BBX 15 16 0 -2
BITMAP
1010
3958
694C
7FF4
BFF2
8C42
9FFA
BBFA
EAE2
C9F2
8B5A
4A4C
684C
3018
1010
0000
ENDCHAR
STARTCHAR 3232
ENCODING 12850
SWIDTH 960 0
DWIDTH 16 0
BBX 15 16 0 -2
BITMAP
1010
3218
620C
7FF4
BFF2
8402
8FC2
BFC2
B442
87C2
87C2
4444
65CC
3598
1010
0000
ENDCHAR
STARTCHAR 3239
ENCODING 12857
SWIDTH 960 0
DWIDTH 16 0
BBX 15 16 0 -2
BITMAP
1010
3498
64AC
48B4
8FFA
9FFA
B882
A882
8882
8842
8842
4864
683C
3018
1010
0000
ENDCHAR
STARTCHAR 32A4
ENCODING 12964
SWIDTH 960 0
DWIDTH 16 0
BBX 15 16 0 -2
BITMAP
07C0
1FF0
3938
610C
4104
81E2
81E2
8102
8102
8102
9FF2
5FF4
600C
3838
1FF0
07C0
ENDCHAR
STARTCHAR 32A5
ENCODING 12965
SWIDTH 960 0
DWIDTH 16 0
BBX 15 16 0 -2
BITMAP
07C0
1FF0
3938
610C
4104
9FF2
9FF2
9112
9112
9FF2
9FF2
4104
610C
3938
1FF0
07C0
ENDCHAR
STARTCHAR 32A6
ENCODING 12966
SWIDTH 960 0
DWIDTH 16 0
BBX 15 16 0 -2
BITMAP
07C0
1FF0
3838
600C
5FF4
9FF2
8102
81C2
81E2
8122
8102
4104
610C
3938
1FF0
07C0
ENDCHAR
STARTCHAR 32A7
ENCODING 12967
SWIDTH 960 0
DWIDTH 16 0
BBX 15 16 0 -2
BITMAP
07C0
1FF0
3A38
620C
5FF4
9FF2
8402
87E2
8FE2
9882
9082
6FE4
6FFC
3838
1FF0
07C0
ENDCHAR
STARTCHAR 32A8
ENCODING 12968
SWIDTH 960 0
DWIDTH 16 0
BBX 15 16 0 -2
BITMAP
07C0
1FF0
3A38
620C
5FF4
9FF2
8402
8FE2
9FE2
B422
A422
47E4
67EC
3C38
1FF0
07C0
ENDCHAR
STARTCHAR 3303
ENCODING 13059
SWIDTH 960 0
DWIDTH 16 0
BBX 15 16 0 -2
BITMAP
0000
1F00
FF00
E680
1CFE
187E
1000
2000
6100
4500
0510
0530
0960
19C0
1180
0000
ENDCHAR
STARTCHAR 330D
ENCODING 13069
SWIDTH 960 0
DWIDTH 16 0
BBX 15 16 0 -2
BITMAP
1000
104E
1E7E
FE72
F242
2244
627C
DC7C
9844
0400
4480
44FE
447E
0800
3800
3000
ENDCHAR
STARTCHAR 3314
ENCODING 13076
SWIDTH 960 0
DWIDTH 16 0
BBX 15 16 0 -2
BITMAP
1000
1000
1C00
FC00
F000
1000
1E00
FE4E
F07E
0872
0842
0844
087C
007C
0044
0000
ENDCHAR
STARTCHAR 3318
ENCODING 13080
SWIDTH 960 0
DWIDTH 16 0
BBX 15 16 0 -2
BITMAP
2138
25F8
3EC0
7F3C
C5FC
89C8
1818
3070
E160
C100
0100
0240
0260
1FF0
1E30
0000
ENDCHAR
STARTCHAR 3322
ENCODING 13090
SWIDTH 960 0
DWIDTH 16 0
BBX 15 16 0 -2
BITMAP
2080
20E0
3E62
FE06
E49C
21F8
3F60
1EC0
07C0
0700
01F8
3FF8
3F00
0100
0700
0600
ENDCHAR
STARTCHAR 3323
ENCODING 13091
SWIDTH 960 0
DWIDTH 16 0
BBX 15 16 0 -2
BITMAP
2080
20E0
3E62
FE06
E48C
20F8
3E70
1E00
0200
0200
0380
03C0
0260
0220
0200
0200
ENDCHAR
STARTCHAR 3326
ENCODING 13094
SWIDTH 960 0
DWIDTH 16 0
BBX 15 16 0 -2
BITMAP
2100
2580
2680
2200
3C00
3E00
2200
2020
20A0
20A0
20A2
00A6
012C
0738
0630
0000
ENDCHAR
STARTCHAR 3327
ENCODING 13095
SWIDTH 960 0
DWIDTH 16 0
BBX 15 16 0 -2
BITMAP
1000
1000
1000
1000
1E00
1F00
1100
1080
10E0
1062
1006
011C
01F8
00E0
0000
0000
ENDCHAR
STARTCHAR 332B
ENCODING 13099
SWIDTH 960 0
DWIDTH 16 0
BBX 15 16 0 -2
BITMAP
0380
0B80
2FC0
247E
463E
C200
8200
0000
4210
5B90
F99C
E85E
50D2
7B90
3B10
0000
ENDCHAR
STARTCHAR 3336
ENCODING 13110
SWIDTH 960 0
DWIDTH 16 0
BBX 15 16 0 -2
BITMAP
0040
1078
1878
2CC8
6790
4330
0060
00C0
4088
7828
7828
CBAA
BBAE
306C
6048
4000
ENDCHAR
STARTCHAR 333B
ENCODING 13115
SWIDTH 960 0
DWIDTH 16 0
BBX 15 16 0 -2
BITMAP
0380
0380
1BC0
1C7E
263E
6200
4100
0508
072C
0B34
0E10
0620
08E0
0FC0
0700
0000
ENDCHAR
STARTCHAR 3349
ENCODING 13129
SWIDTH 960 0
DWIDTH 16 0
BBX 15 16 0 -2
BITMAP
0000
7000
7C00
0C00
0000
6004
7844
1844
0044
E044
F844
1C04
0404
0008
0038
0030
ENDCHAR
STARTCHAR 334A
ENCODING 13130
SWIDTH 960 0
DWIDTH 16 0
BBX 15 16 0 -2
BITMAP
3808
3C48
0448
3848
3C48
0408
7810
7C70
0460
0A08
2F28
3528
53AA
4BAE
C86C
8848
ENDCHAR
STARTCHAR 334D
ENCODING 13133
SWIDTH 960 0
DWIDTH 16 0
BBX 15 16 0 -2
BITMAP
0400
0400
6800
7900
19FE
2CFE
E400
C010
2050
2050
3852
3E56
269C
2198
2110
2000
ENDCHAR
STARTCHAR 3351
ENCODING 13137
SWIDTH 960 0
DWIDTH 16 0
BBX 15 16 0 -2
BITMAP
0400
4400
4400
4444
4564
45A8
0898
3870
3060
1000
1C10
1E52
1256
105C
10D8
1090
ENDCHAR
STARTCHAR 3357
ENCODING 13143
SWIDTH 960 0
DWIDTH 16 0
BBX 15 16 0 -2
BITMAP
0000
4F00
7F00
7124
42B4
46D4
1C48
1818
0270
0260
0200
03C0
03E0
0220
0200
0200
ENDCHAR
STARTCHAR 337B
ENCODING 13179
SWIDTH 960 0
DWIDTH 16 0
BBX 15 16 0 -2
BITMAP
0000
0000
0008
7E0C
7EFE
54FE
5488
FFEA
FFEE
10AC
10E8
115C
1336
1222
0000
0000
ENDCHAR
STARTCHAR 337C
ENCODING 13180
SWIDTH 960 0
DWIDTH 16 0
BBX 15 16 0 -2
BITMAP
0000
0000
1E10
1EF0
EAE0
EA4E
BFFE
F5FA
EE4A
AEEA
EBFE
EF5E
0E4A
0A40
0000
0000
ENDCHAR
STARTCHAR 337D
ENCODING 13181
SWIDTH 960 0
DWIDTH 16 0
BBX 15 16 0 -2
BITMAP
0000
1000
11FC
11FC
FE20
FE20
10BC
10BC
28A0
28A0
28A0
45FE
C7FE
8200
0000
0000
ENDCHAR
STARTCHAR 337E
ENCODING 13182
SWIDTH 960 0
DWIDTH 16 0
BBX 15 16 0 -2
BITMAP
0000
0088
0EC8
EE48
EA94
AED6
EE7E
EA3A
AE00
EE5E
EA5E
0A52
129E
3E9E
2C92
0000
ENDCHAR
STARTCHAR 338E
ENCODING 13198
SWIDTH 960 0
DWIDTH 16 0
BBX 15 16 0 -2
BITMAP
0000
0000
0000
0000
0000
3C34
3E7C
2A4C
2A44
2A4C
2A7C
2A34
2A44
007C
0038
0000
ENDCHAR
STARTCHAR 338F
ENCODING 13199
SWIDTH 960 0
DWIDTH 16 0
BBX 15 16 0 -2
BITMAP
0000
2000
2000
2000
2000
2234
267C
2C4C
3844
384C
2C7C
2634
2244
007C
0038
0000
ENDCHAR
STARTCHAR 339C
ENCODING 13212
SWIDTH 960 0
DWIDTH 16 0
BBX 15 16 0 -2
BITMAP
0000
0000
0000
0000
0000
3C78
3E7C
2A54
2A54
2A54
2A54
2A54
2A54
0000
0000
0000
ENDCHAR
STARTCHAR 339D
ENCODING 13213
SWIDTH 960 0
DWIDTH 16 0
BBX 15 16 0 -2
BITMAP
0000
0000
0000
0000
0000
1C78
3E7C
2254
2054
2054
2254
3E54
1C54
0000
0000
0000
ENDCHAR
STARTCHAR 339E
ENCODING 13214
SWIDTH 960 0
DWIDTH 16 0
BBX 15 16 0 -2
BITMAP
0000
2000
2000
2000
2000
2278
267C
2C54
3854
3854
2C54
2654
2254
0000
0000
0000
ENDCHAR
STARTCHAR 33A1
ENCODING 13217
SWIDTH 960 0
DWIDTH 16 0
BBX 15 16 0 -2
BITMAP
0000
0018
003C
0024
001C
1DB8
1FE0
127C
127C
1240
1240
1240
1240
0000
0000
0000
ENDCHAR
STARTCHAR 33C4
ENCODING 13252
SWIDTH 960 0
DWIDTH 16 0
BBX 15 16 0 -2
BITMAP
0000
0000
0000
0000
0000
1C38
3E7C
2244
2040
2040
2244
3E7C
1C38
0000
0000
0000
ENDCHAR
STARTCHAR 33CD
ENCODING 13261
SWIDTH 960 0
DWIDTH 16 0
BBX 15 16 0 -2
BITMAP
0000
0000
4488
4C98
4890
58B0
50A0
70E0
70E0
50A0
58B0
4C98
4488
478E
0306
0000
ENDCHAR
STARTCHAR 4E00
ENCODING 19968
SWIDTH 960 0
DWIDTH 16 0
BBX 15 16 0 -2
BITMAP
0000
0000
0000
0000
0000
0000
FFFE
FFFE
0000
0000
0000
0000
0000
0000
0000
0000
ENDCHAR
STARTCHAR 4E01
ENCODING 19969
SWIDTH 960 0
DWIDTH 16 0
BBX 15 16 0 -2
BITMAP
0000
FFFE
FFFE
0100
0100
0100
0100
0100
0100
0100
0100
0100
0100
0F00
0E00
0000
ENDCHAR
STARTCHAR 4E03
ENCODING 19971
SWIDTH 960 0
DWIDTH 16 0
BBX 15 16 0 -2
BITMAP
0800
0800
0800
0800
0800
081E
0BFE
FFE0
FC00
0800
0800
0808
0808
0FF8
07F0
0000
ENDCHAR
STARTCHAR 4E07
ENCODING 19975
SWIDTH 960 0
DWIDTH 16 0
BBX 15 16 0 -2
BITMAP
0000
FFFE
FFFE
0400
0400
07F0
07F0
0410
0410
0810
0810
1010
3020
E1E0
C1C0
0000
ENDCHAR
STARTCHAR 4E08
ENCODING 19976
SWIDTH 960 0
DWIDTH 16 0
BBX 15 16 0 -2
BITMAP
0100
0100
FFFE
FFFE
0100
0900
0900
0900
0500
0700
0200
0780
1CE0
F87E
E01E
0000
ENDCHAR
STARTCHAR 4E09
ENCODING 19977
SWIDTH 960 0
DWIDTH 16 0
BBX 15 16 0 -2
BITMAP
0000
0000
3FF8
3FF8
0000
0000
0000
1FF0
1FF0
0000
0000
0000
FFFE
FFFE
0000
0000
ENDCHAR
STARTCHAR 4E0A
ENCODING 19978
SWIDTH 960 0
DWIDTH 16 0
BBX 15 16 0 -2
BITMAP
0100
0100
0100
0100
0100
01F8
01F8
0100
0100
0100
0100
0100
0100
FFFE
FFFE
0000
ENDCHAR
STARTCHAR 4E0B
ENCODING 19979
SWIDTH 960 0
DWIDTH 16 0
BBX 15 16 0 -2
BITMAP
0000
FFFE
FFFE
0100
0100
01E0
01F8
011C
0104
0100
0100
0100
0100
0100
0100
0000
ENDCHAR
STARTCHAR 4E0D
ENCODING 19981
SWIDTH 960 0
DWIDTH 16 0
BBX 15 16 0 -2
BITMAP
0000
FFFE
FFFE
0180
0380
0760
0D78
391C
F106
C102
0100
0100
0100
0100
0100
0000
ENDCHAR
STARTCHAR 4E0E
ENCODING 19982
SWIDTH 960 0
DWIDTH 16 0
BBX 15 16 0 -2
BITMAP
0800
0800
0FF8
0FF8
0800
1FE0
1FE0
0020
FFFE
FFFE
0020
0020
0040
03C0
0380
0000
ENDCHAR
STARTCHAR 4E10
ENCODING 19984
SWIDTH 960 0
DWIDTH 16 0
BBX 15 16 0 -2
BITMAP
0000
FFFE
FFFE
0100
11F8
11F8
1100
1100
1FFC
1FFC
0004
0004
0008
00F8
00F0
0000
ENDCHAR
STARTCHAR 4E11
ENCODING 19985
SWIDTH 960 0
DWIDTH 16 0
BBX 15 16 0 -2
BITMAP
0000
3FE0
3FE0
0420
0420
0420
FFFE
FFFE
0420
0420
0420
0420
0420
FFFE
FFFE
0000
ENDCHAR
STARTCHAR 4E14
ENCODING 19988
SWIDTH 960 0
DWIDTH 16 0
BBX 15 16 0 -2
BITMAP
0000
0FE0
0FE0
0820
0820
0FE0
0FE0
0820
0820
0FE0
0FE0
0820
0820
FFFE
FFFE
0000
ENDCHAR
STARTCHAR 4E15
ENCODING 19989
SWIDTH 960 0
DWIDTH 16 0
BBX 15 16 0 -2
BITMAP
0000
FFFE
FFFE
0100
03C0
06F0
0D38
390C
F106
C102
0100
0100
0000
FFFE
FFFE
0000
ENDCHAR
STARTCHAR 4E16
ENCODING 19990
SWIDTH 960 0
DWIDTH 16 0
BBX 15 16 0 -2
BITMAP
1110
1110
1110
1110
1110
FFFE
FFFE
1110
1110
11F0
11F0
1000
1000
1FFE
1FFE
0000
ENDCHAR
STARTCHAR 4E17
ENCODING 19991
SWIDTH 960 0
DWIDTH 16 0
BBX 15 16 0 -2
BITMAP
1110
1110
1110
1110
1110
FFFE
FFFE
1110
1110
1110
1110
1110
1110
1FF0
1FF0
0000
ENDCHAR
STARTCHAR 4E18
ENCODING 19992
SWIDTH 960 0
DWIDTH 16 0
BBX 15 16 0 -2
BITMAP
0030
00F0
0FC0
0F00
0800
0800
0FF8
0FF8
0840
0840
0840
0840
0840
FFFE
FFFE
0000
ENDCHAR
STARTCHAR 4E19
ENCODING 19993
SWIDTH 960 0
DWIDTH 16 0
BBX 15 16 0 -2
BITMAP
0000
FFFE
FFFE
0100
0100
3FF8
3FF8
2288
2288
2448
3C78
3838
2008
2078
2070
0000
ENDCHAR
STARTCHAR 4E1E
ENCODING 19998
SWIDTH 960 0
DWIDTH 16 0
BBX 15 16 0 -2
BITMAP
0000
3FF0
3FF0
0040
0184
FD8C
FD98
0950
1960
3138
E71E
C606
0000
7FFC
7FFC
0000
ENDCHAR
STARTCHAR 4E21
ENCODING 20001
SWIDTH 960 0
DWIDTH 16 0
BBX 15 16 0 -2
BITMAP
0000
FFFE
FFFE
0100
0100
7FFC
7FFC
4104
4924
4924
4924
4FE4
4FE4
403C
4038
0000
ENDCHAR
STARTCHAR 4E26
ENCODING 20006
SWIDTH 960 0
DWIDTH 16 0
BBX 15 16 0 -2
BITMAP
0820
0C60
0440
7FFC
7FFC
0440
4448
6448
2448
3458
1450
1450
0440
FFFE
FFFE
0000
ENDCHAR
STARTCHAR 4E2A
ENCODING 20010
SWIDTH 960 0
DWIDTH 16 0
BBX 15 16 0 -2
BITMAP
0100
0100
0380
06C0
0C60
3938
F11E
C106
0100
0100
0100
0100
0100
0100
0100
0000
ENDCHAR
STARTCHAR 4E2D
ENCODING 20013
SWIDTH 960 0
DWIDTH 16 0
BBX 15 16 0 -2
BITMAP
0100
0100
0100
3FF8
3FF8
2108
2108
2108
3FF8
3FF8
0100
0100
0100
0100
0100
0000
ENDCHAR
STARTCHAR 4E31
ENCODING 20017
SWIDTH 960 0
DWIDTH 16 0
BBX 15 16 0 -2
BITMAP
0440
0440
4444
4444
4444
4444
4444
4444
7C7C
7C7C
0440
0840
1840
F040
E040
0000
ENDCHAR
STARTCHAR 4E32
ENCODING 20018
SWIDTH 960 0
DWIDTH 16 0
BBX 15 16 0 -2
BITMAP
0100
0100
3FF8
3FF8
2108
3FF8
3FF8
0100
7FFC
7FFC
4104
7FFC
7FFC
0100
0100
0000
ENDCHAR
STARTCHAR 4E36
ENCODING 20022
SWIDTH 960 0
DWIDTH 16 0
BBX 15 16 0 -2
BITMAP
0000
0000
0000
0000
0C00
0E00
0300
0180
0080
0040
0040
0000
0000
0000
0000
0000
ENDCHAR
STARTCHAR 4E38
ENCODING 20024
SWIDTH 960 0
DWIDTH 16 0
BBX 15 16 0 -2
BITMAP
0400
0400
0400
FFE0
FFE0
0420
0420
6420
7820
1C20
0E20
1322
3122
E03E
C01C
0000
ENDCHAR
STARTCHAR 4E39
ENCODING 20025
SWIDTH 960 0
DWIDTH 16 0
BBX 15 16 0 -2
BITMAP
0000
0FE0
0FE0
0A20
0B20
0920
0920
FFFE
FFFE
0820
0820
1020
3020
E1E0
C1C0
0000
ENDCHAR
STARTCHAR 4E3B
ENCODING 20027
SWIDTH 960 0
DWIDTH 16 0
BBX 15 16 0 -2
BITMAP
0700
0780
0080
7FFC
7FFC
0100
0100
0100
3FF8
3FF8
0100
0100
0100
FFFE
FFFE
0000
ENDCHAR
STARTCHAR 4E3C
ENCODING 20028
SWIDTH 960 0
DWIDTH 16 0
BBX 15 16 0 -2
BITMAP
0420
0420
0420
7FFC
7FFC
0520
05A0
04A0
0420
FFFE
FFFE
0420
0C20
7820
7020
0000
ENDCHAR
STARTCHAR 4E3F
ENCODING 20031
SWIDTH 960 0
DWIDTH 16 0
BBX 15 16 0 -2
BITMAP
0100
0100
0100
0100
0100
0100
0100
0100
0100
0100
0100
0200
0600
3C00
3800
0000
ENDCHAR
STARTCHAR 4E42
ENCODING 20034
SWIDTH 960 0
DWIDTH 16 0
BBX 15 16 0 -2
BITMAP
1010
1010
1010
0820
0820
0820
0440
06C0
0380
0100
0380
06C0
1C70
F83E
E00E
0000
ENDCHAR
STARTCHAR 4E43
ENCODING 20035
SWIDTH 960 0
DWIDTH 16 0
BBX 15 16 0 -2
BITMAP
0000
7FE0
7FE0
0420
0420
0440
047C
047C
0804
0804
0804
1004
3008
E078
C070
0000
ENDCHAR
STARTCHAR 4E45
ENCODING 20037
SWIDTH 960 0
DWIDTH 16 0
BBX 15 16 0 -2
BITMAP
0400
0400
07C0
0FC0
0840
1080
7080
6100
0180
0280
0640
0C60
3838
F01E
C006
0000
ENDCHAR
STARTCHAR 4E4B
ENCODING 20043
SWIDTH 960 0
DWIDTH 16 0
BBX 15 16 0 -2
BITMAP
0100
0100
0100
7FF8
7FF8
0030
0060
00C0
0180
0300
2600
3C00
3800
EFFE
C7FE
0000
ENDCHAR
STARTCHAR 4E4D
ENCODING 20045
SWIDTH 960 0
DWIDTH 16 0
BBX 15 16 0 -2
BITMAP
0800
0800
0FFE
1FFE
3100
E100
C1F8
01F8
0100
0100
01FC
01FC
0100
0100
0100
0000
ENDCHAR
STARTCHAR 4E4E
ENCODING 20046
SWIDTH 960 0
DWIDTH 16 0
BBX 15 16 0 -2
BITMAP
0038
3FF8
3FC8
1118
1910
0930
0920
FFFE
FFFE
0100
0100
0100
0100
0F00
0E00
0000
ENDCHAR
STARTCHAR 4E4F
ENCODING 20047
SWIDTH 960 0
DWIDTH 16 0
BBX 15 16 0 -2
BITMAP
0030
3FF0
3FC0
0100
0100
FFF0
FFF0
0060
00C0
0180
2700
2E00
7800
DFFE
87FE
0000
ENDCHAR
STARTCHAR 4E55
ENCODING 20053
SWIDTH 960 0
DWIDTH 16 0
BBX 15 16 0 -2
BITMAP
0018
3FF8
3FE0
2080
3FFC
3FFC
2080
3FFE
3FFE
2080
2FF8
4FF8
C888
88B8
08B0
0000
ENDCHAR
STARTCHAR 4E56
ENCODING 20054
SWIDTH 960 0
DWIDTH 16 0
BBX 15 16 0 -2
BITMAP
0038
3FF8
3FC0
0100
FFFE
FFFE
0920
7924
793C
0938
1920
F922
E93E
091C
0100
0000
ENDCHAR
STARTCHAR 4E57
ENCODING 20055
SWIDTH 960 0
DWIDTH 16 0
BBX 15 16 0 -2
BITMAP
0030
1FF0
1FC0
0100
7FFC
7FFC
0920
FFFE
FFFE
0920
7FFC
7FFC
0920
F93E
F11E
0000
ENDCHAR
STARTCHAR 4E58
ENCODING 20056
SWIDTH 960 0
DWIDTH 16 0
BBX 15 16 0 -2
BITMAP
0070
1FF0
1F80
0100
FFFE
FFFE
0924
F93C
F938
1922
FBBE
EFDC
1D70
F93E
E10E
0000
ENDCHAR
STARTCHAR 4E59
ENCODING 20057
SWIDTH 960 0
DWIDTH 16 0
BBX 15 16 0 -2
BITMAP
0000
7FF0
7FF0
0060
00C0
0180
0300
0600
0C00
1800
1000
3004
2004
3FFC
1FF8
0000
ENDCHAR
STARTCHAR 4E5D
ENCODING 20061
SWIDTH 960 0
DWIDTH 16 0
BBX 15 16 0 -2
BITMAP
0400
0400
0400
FFE0
FFE0
0420
0420
0420
0420
0420
0820
0822
1822
F03E
E01C
0000
ENDCHAR
STARTCHAR 4E5E
ENCODING 20062
SWIDTH 960 0
DWIDTH 16 0
BBX 15 16 0 -2
BITMAP
1000
1000
1FFC
3FFC
E000
C000
3FC0
3FC0
0300
0600
0C00
1804
3004
3FFC
1FF8
0000
ENDCHAR
STARTCHAR 4E5F
ENCODING 20063
SWIDTH 960 0
DWIDTH 16 0
BBX 15 16 0 -2
BITMAP
0100
1100
1100
1138
11F8
17C8
3F08
F908
D178
1170
1100
1102
1002
1FFE
0FFC
0000
ENDCHAR
STARTCHAR 4E62
ENCODING 20066
SWIDTH 960 0
DWIDTH 16 0
BBX 15 16 0 -2
BITMAP
1040
1040
1040
9240
9240
9240
9240
9240
9240
9240
9240
FE42
FE42
007E
003C
0000
ENDCHAR
STARTCHAR 4E71
ENCODING 20081
SWIDTH 960 0
DWIDTH 16 0
BBX 15 16 0 -2
BITMAP
0140
0740
7E40
7840
0840
FF40
FF40
0840
0840
7E40
7E40
4242
4242
7E7E
7E3C
0000
ENDCHAR
STARTCHAR 4E73
ENCODING 20083
SWIDTH 960 0
DWIDTH 16 0
BBX 15 16 0 -2
BITMAP
0740
FF40
F940
5340
7A40
2840
7F40
7F40
0440
0B40
FF40
FC42
0842
387E
303C
0000
ENDCHAR
STARTCHAR 4E7E
ENCODING 20094
SWIDTH 960 0
DWIDTH 16 0
BBX 15 16 0 -2
BITMAP
1080
FE80
FEFC
11FC
7F00
7E00
45F8
7DF8
7C30
4460
7CC0
FF82
FF02
11FE
10FC
0000
ENDCHAR
STARTCHAR 4E80
ENCODING 20096
SWIDTH 960 0
DWIDTH 16 0
BBX 15 16 0 -2
BITMAP
0F80
0F80
1900
3FF0
FFF0
D110
3FF0
3FF8
2108
3FF8
3FF8
210A
3FFA
3FFE
00FC
0000
ENDCHAR
STARTCHAR 4E82
ENCODING 20098
SWIDTH 960 0
DWIDTH 16 0
BBX 15 16 0 -2
BITMAP
0320
7F20
7D20
2A20
7F20
7F20
0420
7FA0
7FA0
4AA0
7FA0
7FA2
56A2
7FBE
7B1C
0000
ENDCHAR
STARTCHAR 4E85
ENCODING 20101
SWIDTH 960 0
DWIDTH 16 0
BBX 15 16 0 -2
BITMAP
0100
0100
0100
0100
0100
0100
0100
0100
0100
0100
0100
0100
0100
0F00
0E00
0000
ENDCHAR
STARTCHAR 4E86
ENCODING 20102
SWIDTH 960 0
DWIDTH 16 0
BBX 15 16 0 -2
BITMAP
0000
7FFC
7FFC
0030
0060
01C0
0180
0100
0100
0100
0100
0100
0100
0F00
0E00
0000
ENDCHAR
STARTCHAR 4E88
ENCODING 20104
SWIDTH 960 0
DWIDTH 16 0
BBX 15 16 0 -2
BITMAP
0000
3FF0
3FF0
0460
06C0
0280
FFFE
FFFE
010C
0108
0100
0100
0100
0F00
0E00
0000
ENDCHAR
STARTCHAR 4E89
ENCODING 20105
SWIDTH 960 0
DWIDTH 16 0
BBX 15 16 0 -2
BITMAP
0400
07C0
0FC0
0880
3FF0
3FF0
0110
FFFE
FFFE
0110
3FF0
3FF0
0100
0700
0600
0000
ENDCHAR
STARTCHAR 4E8A
ENCODING 20106
SWIDTH 960 0
DWIDTH 16 0
BBX 15 16 0 -2
BITMAP
0100
FFFE
FFFE
0920
3FF0
3FF0
0110
FFFE
FFFE
0110
3FF0
3FF0
0100
0F00
0E00
0000
ENDCHAR
STARTCHAR 4E8B
ENCODING 20107
SWIDTH 960 0
DWIDTH 16 0
BBX 15 16 0 -2
BITMAP
0100
FFFE
FFFE
0920
3FF0
3FF0
0110
FFFE
FFFE
0110
3FF0
3FF0
0100
0F00
0E00
0000
ENDCHAR
STARTCHAR 4E8C
ENCODING 20108
SWIDTH 960 0
DWIDTH 16 0
BBX 15 16 0 -2
BITMAP
0000
0000
0000
3FF8
3FF8
0000
0000
0000
0000
0000
0000
FFFE
FFFE
0000
0000
0000
ENDCHAR
STARTCHAR 4E8E
ENCODING 20110
SWIDTH 960 0
DWIDTH 16 0
BBX 15 16 0 -2
BITMAP
0000
7FFC
7FFC
0100
0100
0100
FFFE
FFFE
0100
0100
0100
0100
0100
0F00
0E00
0000
ENDCHAR
STARTCHAR 4E91
ENCODING 20113
SWIDTH 960 0
DWIDTH 16 0
BBX 15 16 0 -2
BITMAP
0000
3FF8
3FF8
0000
0000
FFFE
FFFE
0200
0200
0220
0430
0418
08F8
7FFC
7F0C
0000
ENDCHAR
STARTCHAR 4E92
ENCODING 20114
SWIDTH 960 0
DWIDTH 16 0
BBX 15 16 0 -2
BITMAP
0000
7FFC
7FFC
0400
0400
07E0
0FE0
0820
0820
0FE0
1FC0
1040
0040
FFFE
FFFE
0000
ENDCHAR
STARTCHAR 4E94
ENCODING 20116
SWIDTH 960 0
DWIDTH 16 0
BBX 15 16 0 -2
BITMAP
0000
7FFC
7FFC
0200
0200
0200
3FE0
3FE0
0420
0420
0420
0820
0820
FFFE
FFFE
0000
ENDCHAR
STARTCHAR 4E95
ENCODING 20117
SWIDTH 960 0
DWIDTH 16 0
BBX 15 16 0 -2
BITMAP
0420
0420
0420
7FFC
7FFC
0420
0420
0420
FFFE
FFFE
0420
0820
1820
7020
6020
0000
ENDCHAR
STARTCHAR 4E98
ENCODING 20120
SWIDTH 960 0
DWIDTH 16 0
BBX 15 16 0 -2
BITMAP
0000
7FFC
7FFC
0000
0FE0
0FE0
0820
0FE0
0FE0
0820
0FE0
0FE0
0000
FFFE
FFFE
0000
ENDCHAR
STARTCHAR 4E99
ENCODING 20121
SWIDTH 960 0
DWIDTH 16 0
BBX 15 16 0 -2
BITMAP
0000
7FFC
7FFC
0400
07E0
07E0
0A20
0B20
0940
0C40
1640
1280
0080
FFFE
FFFE
0000
ENDCHAR
STARTCHAR 4E9B
ENCODING 20123
SWIDTH 960 0
DWIDTH 16 0
BBX 15 16 0 -2
BITMAP
0840
0840
4F4C
4F7C
4870
4842
4F42
FF7E
F83C
0000
3FF8
3FF8
0000
FFFE
FFFE
0000
ENDCHAR
STARTCHAR 4E9C
ENCODING 20124
SWIDTH 960 0
DWIDTH 16 0
BBX 15 16 0 -2
BITMAP
0000
7FFC
7FFC
0440
0440
3FF8
3FF8
2448
2448
3FF8
3FF8
0440
0440
FFFE
FFFE
0000
ENDCHAR
STARTCHAR 4E9E
ENCODING 20126
SWIDTH 960 0
DWIDTH 16 0
BBX 15 16 0 -2
BITMAP
0000
7FFC
7FFC
0440
0440
3C78
3C78
2008
2008
3C78
3C78
0440
0440
FFFE
FFFE
0000
ENDCHAR
STARTCHAR 4E9F
ENCODING 20127
SWIDTH 960 0
DWIDTH 16 0
BBX 15 16 0 -2
BITMAP
0000
7FFC
7FFC
0400
0780
0780
78FC
78FC
48A8
7890
7938
076C
0646
FFFE
FFFE
0000
ENDCHAR
STARTCHAR 4EA0
ENCODING 20128
SWIDTH 960 0
DWIDTH 16 0
BBX 15 16 0 -2
BITMAP
0000
0000
0000
0100
0100
0100
0100
FFFE
FFFE
0000
0000
0000
0000
0000
0000
0000
ENDCHAR
STARTCHAR 4EA1
ENCODING 20129
SWIDTH 960 0
DWIDTH 16 0
BBX 15 16 0 -2
BITMAP
0100
0100
0100
0100
FFFE
FFFE
1000
1000
1000
1000
1000
1000
1000
1FFC
0FFC
0000
ENDCHAR
STARTCHAR 4EA2
ENCODING 20130
SWIDTH 960 0
DWIDTH 16 0
BBX 15 16 0 -2
BITMAP
0100
0100
FFFE
FFFE
0000
0000
0FC0
0FC0
0840
0840
0840
1042
3042
E07E
C03C
0000
ENDCHAR
STARTCHAR 4EA4
ENCODING 20132
SWIDTH 960 0
DWIDTH 16 0
BBX 15 16 0 -2
BITMAP
0100
0100
FFFE
FFFE
0820
1830
F45E
E44E
0280
0380
0380
06C0
1C70
F83E
E00E
0000
ENDCHAR
STARTCHAR 4EA5
ENCODING 20133
SWIDTH 960 0
DWIDTH 16 0
BBX 15 16 0 -2
BITMAP
0100
0100
FFFE
FFFE
0440
1CC0
1990
0710
0E30
7C60
70C0
01A0
0730
7E1C
780C
0000
ENDCHAR
STARTCHAR 4EA6
ENCODING 20134
SWIDTH 960 0
DWIDTH 16 0
BBX 15 16 0 -2
BITMAP
0100
0100
0100
FFFE
FFFE
0440
2450
2458
2448
444C
C444
8844
1840
73C0
6380
0000
ENDCHAR
STARTCHAR 4EA8
ENCODING 20136
SWIDTH 960 0
DWIDTH 16 0
BBX 15 16 0 -2
BITMAP
0100
FFFE
FFFE
0820
0FE0
0FE0
0000
7FF8
7FF8
0020
01E0
01C0
0100
0F00
0E00
0000
ENDCHAR
STARTCHAR 4EAB
ENCODING 20139
SWIDTH 960 0
DWIDTH 16 0
BBX 15 16 0 -2
BITMAP
0100
FFFE
FFFE
0820
0FE0
0FE0
0000
3FF8
3FF8
0020
FFFE
FFFE
0100
0F00
0E00
0000
ENDCHAR
STARTCHAR 4EAC
ENCODING 20140
SWIDTH 960 0
DWIDTH 16 0
BBX 15 16 0 -2
BITMAP
0100
FFFE
FFFE
0000
1FF0
1FF0
1010
1010
1FF0
1FF0
0920
1930
F11E
EF0E
0E00
0000
ENDCHAR
STARTCHAR 4EAD
ENCODING 20141
SWIDTH 960 0
DWIDTH 16 0
BBX 15 16 0 -2
BITMAP
0100
7FFC
7FFC
0000
0FE0
0FE0
0820
7FFC
7FFC
4004
3FF8
3FF8
0100
0700
0600
0000
ENDCHAR
STARTCHAR 4EAE
ENCODING 20142
SWIDTH 960 0
DWIDTH 16 0
BBX 15 16 0 -2
BITMAP
0100
FFFE
FFFE
0000
0FE0
0FE0
0820
7FFC
7FFC
4004
4484
0482
0C82
F8FE
F07C
0000
ENDCHAR
STARTCHAR 4EB0
ENCODING 20144
SWIDTH 960 0
DWIDTH 16 0
BBX 15 16 0 -2
BITMAP
0100
FFFE
FFFE
0000
0FE0
0FE0
0820
0FE0
0FE0
0820
0FE0
0FE0
1110
F71E
E70E
0000
ENDCHAR
STARTCHAR 4EB3
ENCODING 20147
SWIDTH 960 0
DWIDTH 16 0
BBX 15 16 0 -2
BITMAP
0100
7FFC
7FFC
0000
0FE0
0FE0
0820
7FFC
7FFC
4204
3FF8
3FF8
0204
03FC
01F8
0000
ENDCHAR
STARTCHAR 4EB6
ENCODING 20150
SWIDTH 960 0
DWIDTH 16 0
BBX 15 16 0 -2
BITMAP
0100
7FFC
7FFC
1450
17D0
17D0
1010
1FF0
0FE0
0820
0FE0
0FE0
0820
FFFE
FFFE
0000
ENDCHAR
STARTCHAR 4EBA
ENCODING 20154
SWIDTH 960 0
DWIDTH 16 0
BBX 15 16 0 -2
BITMAP
0100
0100
0100
0100
0100
0100
0280
0280
0440
0440
0820
1830
3018
E00E
C006
0000
ENDCHAR
STARTCHAR 4EC0
ENCODING 20160
SWIDTH 960 0
DWIDTH 16 0
BBX 15 16 0 -2
BITMAP
0840
0840
1040
1040
3040
6FFE
EFFE
A040
2040
2040
2040
2040
2040
2040
2040
0000
ENDCHAR
STARTCHAR 4EC1
ENCODING 20161
SWIDTH 960 0
DWIDTH 16 0
BBX 15 16 0 -2
BITMAP
0800
0800
17F8
17F8
2000
6000
E000
A000
2000
2000
2000
2000
2FFE
2FFE
2000
0000
ENDCHAR
STARTCHAR 4EC2
ENCODING 20162
SWIDTH 960 0
DWIDTH 16 0
BBX 15 16 0 -2
BITMAP
0840
0840
1040
1040
37FC
77FC
D044
9044
1084
1084
1084
1104
1308
1E78
1C70
0000
ENDCHAR
STARTCHAR 4EC4
ENCODING 20164
SWIDTH 960 0
DWIDTH 16 0
BBX 15 16 0 -2
BITMAP
0000
3FFC
3FFC
2000
2080
2080
2080
2080
2140
2140
2140
4220
C630
BC1E
380E
0000
ENDCHAR
STARTCHAR 4EC6
ENCODING 20166
SWIDTH 960 0
DWIDTH 16 0
BBX 15 16 0 -2
BITMAP
0440
0440
0840
0840
1040
3070
707C
D04E
9042
1040
1040
1040
1040
1040
1040
0000
ENDCHAR
STARTCHAR 4EC7
ENCODING 20167
SWIDTH 960 0
DWIDTH 16 0
BBX 15 16 0 -2
BITMAP
1100
1100
1100
1100
2FF0
2FF0
6110
E110
A110
2110
2110
2112
2212
2E1E
2C0C
0000
ENDCHAR
STARTCHAR 4ECA
ENCODING 20170
SWIDTH 960 0
DWIDTH 16 0
BBX 15 16 0 -2
BITMAP
0100
0380
06C0
0C60
3838
F7DE
C7C6
0000
3FF0
3FF0
0010
0020
0060
07C0
0780
0000
ENDCHAR
STARTCHAR 4ECB
ENCODING 20171
SWIDTH 960 0
DWIDTH 16 0
BBX 15 16 0 -2
BITMAP
0100
0280
0280
0440
0C60
3838
F01E
C826
0820
0820
0820
0820
1820
7020
6020
0000
ENDCHAR
STARTCHAR 4ECD
ENCODING 20173
SWIDTH 960 0
DWIDTH 16 0
BBX 15 16 0 -2
BITMAP
0800
0FF0
17F0
1110
2110
6120
E13C
A13C
2104
2104
2204
2208
2618
3CF0
38E0
0000
ENDCHAR
STARTCHAR 4ECE
ENCODING 20174
SWIDTH 960 0
DWIDTH 16 0
BBX 15 16 0 -2
BITMAP
0840
0840
0840
0840
0840
0840
0840
0840
08A0
14A0
16A0
2310
6318
CE0E
8C06
0000
ENDCHAR
STARTCHAR 4ECF
ENCODING 20175
SWIDTH 960 0
DWIDTH 16 0
BBX 15 16 0 -2
BITMAP
0880
0880
1080
1080
2080
6080
E080
A100
2100
2110
2118
220C
227C
2FFE
2F82
0000
ENDCHAR
STARTCHAR 4ED4
ENCODING 20180
SWIDTH 960 0
DWIDTH 16 0
BBX 15 16 0 -2
BITMAP
0800
0BFC
13FC
1018
2030
6060
E040
AFFE
2FFE
2040
2040
2040
2040
23C0
2380
0000
ENDCHAR
STARTCHAR 4ED5
ENCODING 20181
SWIDTH 960 0
DWIDTH 16 0
BBX 15 16 0 -2
BITMAP
0840
0840
1040
1040
2040
6FFE
EFFE
A040
2040
2040
2040
2040
2040
27FC
27FC
0000
ENDCHAR
STARTCHAR 4ED6
ENCODING 20182
SWIDTH 960 0
DWIDTH 16 0
BBX 15 16 0 -2
BITMAP
1040
1240
1240
2240
2278
63F8
EFC8
AE48
2248
2278
2270
2242
2202
23FE
21FC
0000
ENDCHAR
STARTCHAR 4ED7
ENCODING 20183
SWIDTH 960 0
DWIDTH 16 0
BBX 15 16 0 -2
BITMAP
1040
1040
1040
2FFE
2FFE
6040
E240
A240
2140
2180
2080
21C0
2370
2E3E
2C0E
0000
ENDCHAR
STARTCHAR 4ED8
ENCODING 20184
SWIDTH 960 0
DWIDTH 16 0
BBX 15 16 0 -2
BITMAP
0820
0820
1020
1020
2FFE
6FFE
E020
A420
2620
2220
2220
2020
2020
21E0
21C0
0000
ENDCHAR
STARTCHAR 4ED9
ENCODING 20185
SWIDTH 960 0
DWIDTH 16 0
BBX 15 16 0 -2
BITMAP
0840
0840
1040
1040
3444
6444
E444
A444
2444
2444
2444
2444
2444
27FC
27FC
0000
ENDCHAR
STARTCHAR 4EDD
ENCODING 20189
SWIDTH 960 0
DWIDTH 16 0
BBX 15 16 0 -2
BITMAP
0100
0100
0380
06C0
0C60
3838
F01E
DFF6
1FF0
0100
0100
0100
0100
FFFE
FFFE
0000
ENDCHAR
STARTCHAR 4EDE
ENCODING 20190
SWIDTH 960 0
DWIDTH 16 0
BBX 15 16 0 -2
BITMAP
1000
1000
17FC
27FC
2084
6084
E684
A784
2184
20C4
2164
2128
2218
2E70
2C60
0000
ENDCHAR
STARTCHAR 4EDF
ENCODING 20191
SWIDTH 960 0
DWIDTH 16 0
BBX 15 16 0 -2
BITMAP
100C
107C
17F0
27C0
2040
6040
EFFE
AFFE
2040
2040
2040
2040
2040
2040
2040
0000
ENDCHAR
STARTCHAR 4EE3
ENCODING 20195
SWIDTH 960 0
DWIDTH 16 0
BBX 15 16 0 -2
BITMAP
0850
0858
1048
1040
37FE
77FE
D040
9040
1040
1020
1020
1032
1012
101E
100C
0000
ENDCHAR
STARTCHAR 4EE4
ENCODING 20196
SWIDTH 960 0
DWIDTH 16 0
BBX 15 16 0 -2
BITMAP
0100
0380
06C0
0C60
3838
FFFE
CFE6
0000
3FF0
3FF0
0210
0210
0270
0260
0200
0000
ENDCHAR
STARTCHAR 4EE5
ENCODING 20197
SWIDTH 960 0
DWIDTH 16 0
BBX 15 16 0 -2
BITMAP
2008
2408
2608
2308
2308
2008
2008
2008
2118
2710
3E30
F868
E1CC
0F86
0E02
0000
ENDCHAR
STARTCHAR 4EED
ENCODING 20205
SWIDTH 960 0
DWIDTH 16 0
BBX 15 16 0 -2
BITMAP
1000
1000
17FC
27FC
2244
6244
E144
A144
20C4
20E4
20B8
211E
231E
2EF0
2CE0
0000
ENDCHAR
STARTCHAR 4EEE
ENCODING 20206
SWIDTH 960 0
DWIDTH 16 0
BBX 15 16 0 -2
BITMAP
0800
0BFE
13FE
1200
3200
23F8
63F8
E288
A290
2250
2660
2470
2CD8
3B8E
3306
0000
ENDCHAR
STARTCHAR 4EF0
ENCODING 20208
SWIDTH 960 0
DWIDTH 16 0
BBX 15 16 0 -2
BITMAP
10C0
17C0
177C
247C
2444
6444
E444
A444
2444
2444
25C4
2FDC
2E58
2040
2040
0000
ENDCHAR
STARTCHAR 4EF2
ENCODING 20210
SWIDTH 960 0
DWIDTH 16 0
BBX 15 16 0 -2
BITMAP
0840
0840
1040
17FC
27FC
6444
E444
A444
27FC
27FC
2040
2040
2040
2040
2040
0000
ENDCHAR
STARTCHAR 4EF6
ENCODING 20214
SWIDTH 960 0
DWIDTH 16 0
BBX 15 16 0 -2
BITMAP
1040
1240
1240
23FC
27FC
6C40
E840
A040
2FFE
2FFE
2040
2040
2040
2040
2040
0000
ENDCHAR
STARTCHAR 4EF7
ENCODING 20215
SWIDTH 960 0
DWIDTH 16 0
BBX 15 16 0 -2
BITMAP
1080
11C0
1160
2330
2E1E
6C0E
E220
A220
2220
2220
2220
2220
2420
2C20
2820
0000
ENDCHAR
STARTCHAR 4EFB
ENCODING 20219
SWIDTH 960 0
DWIDTH 16 0
BBX 15 16 0 -2
BITMAP
0808
0838
17F0
17C0
2040
6040
E040
AFFE
2FFE
2040
2040
2040
2040
27FC
27FC
0000
ENDCHAR
STARTCHAR 4F01
ENCODING 20225
SWIDTH 960 0
DWIDTH 16 0
BBX 15 16 0 -2
BITMAP
0100
0100
0280
06C0
0C60
3938
F11E
C106
11F8
11F8
1100
1100
1100
FFFE
FFFE
0000
ENDCHAR
STARTCHAR 4F09
ENCODING 20233
SWIDTH 960 0
DWIDTH 16 0
BBX 15 16 0 -2
BITMAP
1080
1080
1FFC
2FFC
2000
6000
E3E0
A3E0
2220
2220
2220
2222
2422
3C3E
381C
0000
ENDCHAR
STARTCHAR 4F0A
ENCODING 20234
SWIDTH 960 0
DWIDTH 16 0
BBX 15 16 0 -2
BITMAP
1000
17F8
17F8
3048
2FFE
6FFE
E048
A048
27F8
27F8
2040
2040
20C0
2780
2700
0000
ENDCHAR
STARTCHAR 4F0D
ENCODING 20237
SWIDTH 960 0
DWIDTH 16 0
BBX 15 16 0 -2
BITMAP
1000
17FC
17FC
2080
2080
6080
E7F0
A7F0
2110
2110
2110
2210
2210
3FFE
3FFE
0000
ENDCHAR
STARTCHAR 4F0E
ENCODING 20238
SWIDTH 960 0
DWIDTH 16 0
BBX 15 16 0 -2
BITMAP
1040
1040
1FFE
2FFE
2040
6040
E7F8
A7F8
2208
2110
2130
20E0
21F0
2F3E
2E0E
0000
ENDCHAR
STARTCHAR 4F0F
ENCODING 20239
SWIDTH 960 0
DWIDTH 16 0
BBX 15 16 0 -2
BITMAP
0880
0890
1098
1088
2FFE
6FFE
E080
A080
2140
2140
2120
2230
2618
3C0E
3806
0000
ENDCHAR
STARTCHAR 4F10
ENCODING 20240
SWIDTH 960 0
DWIDTH 16 0
BBX 15 16 0 -2
BITMAP
0890
0898
1088
10FE
2FFE
6F80
E088
A048
2050
2050
2020
2072
21D2
2F9E
2E0C
0000
ENDCHAR
STARTCHAR 4F11
ENCODING 20241
SWIDTH 960 0
DWIDTH 16 0
BBX 15 16 0 -2
BITMAP
1040
1040
1040
1FFE
2FFE
20E0
60E0
E150
A150
2248
264C
2C46
2842
2040
2040
0000
ENDCHAR
STARTCHAR 4F1A
ENCODING 20250
SWIDTH 960 0
DWIDTH 16 0
BBX 15 16 0 -2
BITMAP
0100
0380
06C0
0C60
3838
FFFE
CFE6
0000
7FFC
7FFC
0620
0410
08F8
7FFC
7F0C
0000
ENDCHAR
STARTCHAR 4F1C
ENCODING 20252
SWIDTH 960 0
DWIDTH 16 0
BBX 15 16 0 -2
BITMAP
0880
0880
17F0
17F0
2092
6192
EF1E
AE4C
2040
27FC
27FC
2040
2040
2040
2040
0000
ENDCHAR
STARTCHAR 4F1D
ENCODING 20253
SWIDTH 960 0
DWIDTH 16 0
BBX 15 16 0 -2
BITMAP
0800
0BFC
13FC
1000
2000
6FFE
EFFE
A080
2080
2090
2118
210C
213C
2FFE
2FC2
0000
ENDCHAR
STARTCHAR 4F2F
ENCODING 20271
SWIDTH 960 0
DWIDTH 16 0
BBX 15 16 0 -2
BITMAP
0840
0840
1080
13FC
23FC
6204
E204
A204
23FC
23FC
2204
2204
2204
23FC
23FC
0000
ENDCHAR
STARTCHAR 4F30
ENCODING 20272
SWIDTH 960 0
DWIDTH 16 0
BBX 15 16 0 -2
BITMAP
1040
1040
1040
2FFE
2FFE
6040
E040
A040
23F8
23F8
2208
2208
2208
23F8
23F8
0000
ENDCHAR
STARTCHAR 4F34
ENCODING 20276
SWIDTH 960 0
DWIDTH 16 0
BBX 15 16 0 -2
BITMAP
0840
0A48
1358
1150
2040
67FC
E7FC
A040
2040
2FFE
2FFE
2040
2040
2040
2040
0000
ENDCHAR
STARTCHAR 4F36
ENCODING 20278
SWIDTH 960 0
DWIDTH 16 0
BBX 15 16 0 -2
BITMAP
0880
09C0
1160
1330
2618
6DEE
E9E6
A000
2FF8
2FF8
2088
2088
20B8
20B0
2080
0000
ENDCHAR
STARTCHAR 4F38
ENCODING 20280
SWIDTH 960 0
DWIDTH 16 0
BBX 15 16 0 -2
BITMAP
0840
0840
17FC
17FC
2444
67FC
E7FC
A444
2444
27FC
27FC
2040
2040
2040
2040
0000
ENDCHAR
STARTCHAR 4F3A
ENCODING 20282
SWIDTH 960 0
DWIDTH 16 0
BBX 15 16 0 -2
BITMAP
1000
1FFC
1FFC
2004
2FE4
6FE4
E004
A7C4
27C4
2444
27C4
27C4
2004
203C
2038
0000
ENDCHAR
STARTCHAR 4F3C
ENCODING 20284
SWIDTH 960 0
DWIDTH 16 0
BBX 15 16 0 -2
BITMAP
1408
1408
1508
2588
24C8
64C8
E408
A408
2408
2488
2590
2718
2E3C
2DE6
21C6
0000
ENDCHAR
STARTCHAR 4F3D
ENCODING 20285
SWIDTH 960 0
DWIDTH 16 0
BBX 15 16 0 -2
BITMAP
1200
1200
1200
323C
2FBC
6FA4
E4A4
A4A4
24A4
24A4
24A4
2CA4
29BC
3F3C
3600
0000
ENDCHAR
STARTCHAR 4F43
ENCODING 20291
SWIDTH 960 0
DWIDTH 16 0
BBX 15 16 0 -2
BITMAP
1000
1000
17FC
27FC
2444
6444
E444
A7FC
27FC
2444
2444
2444
2444
27FC
27FC
0000
ENDCHAR
STARTCHAR 4F46
ENCODING 20294
SWIDTH 960 0
DWIDTH 16 0
BBX 15 16 0 -2
BITMAP
0800
0BF8
13F8
1208
2208
63F8
E3F8
A208
2208
23F8
23F8
2000
2000
2FFE
2FFE
0000
ENDCHAR
STARTCHAR 4F47
ENCODING 20295
SWIDTH 960 0
DWIDTH 16 0
BBX 15 16 0 -2
BITMAP
0840
0840
17FC
17FC
2404
6404
E000
AFFE
2FFE
2040
2040
2040
2040
23C0
2380
0000
ENDCHAR
STARTCHAR 4F4D
ENCODING 20301
SWIDTH 960 0
DWIDTH 16 0
BBX 15 16 0 -2
BITMAP
0840
0840
1040
17FC
27FC
6008
E208
A208
2118
2110
2110
2110
2120
2FFE
2FFE
0000
ENDCHAR
STARTCHAR 4F4E
ENCODING 20302
SWIDTH 960 0
DWIDTH 16 0
BBX 15 16 0 -2
BITMAP
0818
0BF8
13E0
1240
2240
63FE
E3FE
A220
2220
2230
23D0
2FDA
2E0A
23FE
23F6
0000
ENDCHAR
STARTCHAR 4F4F
ENCODING 20303
SWIDTH 960 0
DWIDTH 16 0
BBX 15 16 0 -2
BITMAP
08C0
08E0
1020
17FC
27FC
6040
E040
A040
23F8
23F8
2040
2040
2040
2FFE
2FFE
0000
ENDCHAR
STARTCHAR 4F50
ENCODING 20304
SWIDTH 960 0
DWIDTH 16 0
BBX 15 16 0 -2
BITMAP
1080
1080
1080
2FFE
2FFE
6100
E200
A7FC
2FFC
3840
3040
2040
2040
2FFE
2FFE
0000
ENDCHAR
STARTCHAR 4F51
ENCODING 20305
SWIDTH 960 0
DWIDTH 16 0
BBX 15 16 0 -2
BITMAP
0880
0880
1080
1FFE
2FFE
6100
E100
A200
27F8
2FF8
3A08
3208
2208
23F8
23F8
0000
ENDCHAR
STARTCHAR 4F53
ENCODING 20307
SWIDTH 960 0
DWIDTH 16 0
BBX 15 16 0 -2
BITMAP
1080
1080
1080
3FFC
2FFC
6080
E1C0
A1A0
22A0
2290
2498
3FEE
3BE6
2080
2080
0000
ENDCHAR
STARTCHAR 4F55
ENCODING 20309
SWIDTH 960 0
DWIDTH 16 0
BBX 15 16 0 -2
BITMAP
1000
1FFE
1FFE
2008
2008
67C8
E7C8
A448
2448
27C8
27C8
2008
2008
2078
2070
0000
ENDCHAR
STARTCHAR 4F57
ENCODING 20311
SWIDTH 960 0
DWIDTH 16 0
BBX 15 16 0 -2
BITMAP
1040
1040
17FC
27FC
2404
6504
E100
A118
21F8
21E0
2100
2104
2104
21FC
20F8
0000
ENDCHAR
STARTCHAR 4F59
ENCODING 20313
SWIDTH 960 0
DWIDTH 16 0
BBX 15 16 0 -2
BITMAP
0100
0380
06C0
0C60
3838
FFFE
CFE6
0100
7FF8
7FF8
0900
1930
7138
6F0C
0E04
0000
ENDCHAR
STARTCHAR 4F5A
ENCODING 20314
SWIDTH 960 0
DWIDTH 16 0
BBX 15 16 0 -2
BITMAP
1040
1240
1240
27FC
27FC
6C40
E840
AFFE
2FFE
20A0
20A0
2110
2318
2E0E
2C06
0000
ENDCHAR
STARTCHAR 4F5B
ENCODING 20315
SWIDTH 960 0
DWIDTH 16 0
BBX 15 16 0 -2
BITMAP
1120
1120
1FF8
2FF8
2128
6FF8
EFF8
A920
2FFC
2FFC
2124
213C
2238
2E20
2C20
0000
ENDCHAR
STARTCHAR 4F5C
ENCODING 20316
SWIDTH 960 0
DWIDTH 16 0
BBX 15 16 0 -2
BITMAP
0900
0900
1100
13FE
33FE
6E80
ECF8
A0F8
2080
2080
20FC
20FC
2080
2080
2080
0000
ENDCHAR
STARTCHAR 4F5D
ENCODING 20317
SWIDTH 960 0
DWIDTH 16 0
BBX 15 16 0 -2
BITMAP
1200
1200
1200
27FC
27FC
6C04
FFC4
B7C4
2444
2444
27C4
27C4
2008
2078
2070
0000
ENDCHAR
STARTCHAR 4F5E
ENCODING 20318
SWIDTH 960 0
DWIDTH 16 0
BBX 15 16 0 -2
BITMAP
0800
0BF8
13F8
1000
2FFE
6FFE
E080
AFFE
2FFE
2110
2320
23E0
21F8
2F9C
2E0C
0000
ENDCHAR
STARTCHAR 4F69
ENCODING 20329
SWIDTH 960 0
DWIDTH 16 0
BBX 15 16 0 -2
BITMAP
1000
17FC
17FC
2404
25F4
65F4
E444
A5F4
25F4
2554
2554
2574
2974
3846
3042
0000
ENDCHAR
STARTCHAR 4F6F
ENCODING 20335
SWIDTH 960 0
DWIDTH 16 0
BBX 15 16 0 -2
BITMAP
0910
09B0
17FC
17FC
2040
6040
E3F8
A3F8
2040
2040
2FFE
2FFE
2040
2040
2040
0000
ENDCHAR
STARTCHAR 4F70
ENCODING 20336
SWIDTH 960 0
DWIDTH 16 0
BBX 15 16 0 -2
BITMAP
1000
17FE
17FE
2040
2080
63F8
E3F8
A208
2208
23F8
23F8
2208
2208
23F8
23F8
0000
ENDCHAR
STARTCHAR 4F73
ENCODING 20339
SWIDTH 960 0
DWIDTH 16 0
BBX 15 16 0 -2
BITMAP
1080
17F8
17F8
2080
2080
6FFC
EFFC
A000
2080
27F8
27F8
2080
2080
2FFE
2FFE
0000
ENDCHAR
STARTCHAR 4F75
ENCODING 20341
SWIDTH 960 0
DWIDTH 16 0
BBX 15 16 0 -2
BITMAP
0910
09B0
10A0
17FC
27FC
6110
E110
AFFE
2FFE
2110
2110
2110
2210
2E10
2C10
0000
ENDCHAR
STARTCHAR 4F76
ENCODING 20342
SWIDTH 960 0
DWIDTH 16 0
BBX 15 16 0 -2
BITMAP
1040
1040
1FFE
2FFE
2040
6040
E7FC
A7FC
2000
23F8
23F8
2208
2208
23F8
23F8
0000
ENDCHAR
STARTCHAR 4F7B
ENCODING 20347
SWIDTH 960 0
DWIDTH 16 0
BBX 15 16 0 -2
BITMAP
1120
1120
1120
2924
2D3C
6538
E520
A120
2338
2F3C
2D24
2122
2222
2E3E
2C1C
0000
ENDCHAR
STARTCHAR 4F7C
ENCODING 20348
SWIDTH 960 0
DWIDTH 16 0
BBX 15 16 0 -2
BITMAP
1040
1040
1FFE
2FFE
2110
6318
EE0E
AD16
2110
20A0
20E0
20E0
23B8
2F1E
2C06
0000
ENDCHAR
STARTCHAR 4F7F
ENCODING 20351
SWIDTH 960 0
DWIDTH 16 0
BBX 15 16 0 -2
BITMAP
1040
1040
1FFE
2FFE
2040
67F8
E7F8
A448
27F8
27F8
2240
2180
21E0
2F7E
2E1E
0000
ENDCHAR
STARTCHAR 4F83
ENCODING 20355
SWIDTH 960 0
DWIDTH 16 0
BBX 15 16 0 -2
BITMAP
0800
0BF8
13F8
1208
3208
63F8
E3F8
A000
2250
2250
2250
2252
2252
2E5E
2C0C
0000
ENDCHAR
STARTCHAR 4F86
ENCODING 20358
SWIDTH 960 0
DWIDTH 16 0
BBX 15 16 0 -2
BITMAP
0100
0100
FFFE
FFFE
1110
1110
2938
ED6E
C7C6
0540
0D60
3938
F11E
C106
0100
0000
ENDCHAR
STARTCHAR 4F88
ENCODING 20360
SWIDTH 960 0
DWIDTH 16 0
BBX 15 16 0 -2
BITMAP
1080
11F8
13F8
2F30
2CE0
61C0
EF80
AE40
20FC
27FC
2798
2070
21E0
2F80
2E00
0000
ENDCHAR
STARTCHAR 4F8B
ENCODING 20363
SWIDTH 960 0
DWIDTH 16 0
BBX 15 16 0 -2
BITMAP
1004
1FC4
1FE4
2424
2424
67A4
EFA4
A8A4
3CA4
3724
2324
2204
2604
2C3C
2838
0000
ENDCHAR
STARTCHAR 4F8D
ENCODING 20365
SWIDTH 960 0
DWIDTH 16 0
BBX 15 16 0 -2
BITMAP
1040
17FC
17FC
2040
2FFE
6FFE
E010
A7FE
27FE
2210
2310
2110
2010
20F0
20E0
0000
ENDCHAR
STARTCHAR 4F8F
ENCODING 20367
SWIDTH 960 0
DWIDTH 16 0
BBX 15 16 0 -2
BITMAP
1040
1240
1240
23FC
27FC
6C40
E840
AFFE
2FFE
20E0
2150
2358
2E4E
2C46
2040
0000
ENDCHAR
STARTCHAR 4F91
ENCODING 20369
SWIDTH 960 0
DWIDTH 16 0
BBX 15 16 0 -2
BITMAP
1080
17FE
17FE
2100
21F8
63F8
E708
ADF8
29F8
2108
21F8
21F8
2108
2138
2130
0000
ENDCHAR
STARTCHAR 4F96
ENCODING 20374
SWIDTH 960 0
DWIDTH 16 0
BBX 15 16 0 -2
BITMAP
0100
0380
06C0
0C60
3FF8
F7DE
C006
3FF8
3FF8
2488
3FF8
3FF8
2488
24B8
24B0
0000
ENDCHAR
STARTCHAR 4F98
ENCODING 20376
SWIDTH 960 0
DWIDTH 16 0
BBX 15 16 0 -2
BITMAP
1080
1080
1FFC
2FFC
2814
6BF4
E3E0
A080
2FFE
2FFE
2080
2084
2084
20FC
2078
0000
ENDCHAR
STARTCHAR 4F9B
ENCODING 20379
SWIDTH 960 0
DWIDTH 16 0
BBX 15 16 0 -2
BITMAP
1120
1120
1120
2FFC
2FFC
6120
E120
A120
3FFE
3FFE
2000
2120
2330
2E1E
2C0E
0000
ENDCHAR
STARTCHAR 4F9D
ENCODING 20381
SWIDTH 960 0
DWIDTH 16 0
BBX 15 16 0 -2
BITMAP
1040
1040
1040
2FFE
2FFE
6084
E18C
A358
2E50
2E20
2220
2210
22D8
2FCE
2F06
0000
ENDCHAR
STARTCHAR 4FA0
ENCODING 20384
SWIDTH 960 0
DWIDTH 16 0
BBX 15 16 0 -2
BITMAP
0840
0840
17FC
17FC
2248
6358
E150
AFFE
2FFE
20A0
20A0
2110
2318
2E0E
2C06
0000
ENDCHAR
STARTCHAR 4FA1
ENCODING 20385
SWIDTH 960 0
DWIDTH 16 0
BBX 15 16 0 -2
BITMAP
1000
17FE
17FE
20A0
20A0
67FC
E7FC
A4A4
24A4
24A4
24A4
24A4
24A4
27FC
27FC
0000
ENDCHAR
STARTCHAR 4FAB
ENCODING 20395
SWIDTH 960 0
DWIDTH 16 0
BBX 15 16 0 -2
BITMAP
0840
0840
17FE
17FE
2200
63FC
E1FC
A080
2FFE
2FFE
2110
2320
21F0
2FFC
2F0C
0000
ENDCHAR
STARTCHAR 4FAD
ENCODING 20397
SWIDTH 960 0
DWIDTH 16 0
BBX 15 16 0 -2
BITMAP
0800
0BF8
13F8
1208
2208
63F8
E3F8
A210
25D0
25E8
2C2C
3B86
33E2
2070
2010
0000
ENDCHAR
STARTCHAR 4FAE
ENCODING 20398
SWIDTH 960 0
DWIDTH 16 0
BBX 15 16 0 -2
BITMAP
0900
0900
13FE
13FE
2600
6FF8
EBF8
A248
2248
2FFE
2FFE
2448
2448
27F8
27F8
0000
ENDCHAR
STARTCHAR 4FAF
ENCODING 20399
SWIDTH 960 0
DWIDTH 16 0
BBX 15 16 0 -2
BITMAP
1000
13F0
13F0
2010
2FFE
6FFE
E100
A3F8
27F8
2440
2FFE
2FFE
21B0
2F1E
2E0E
0000
ENDCHAR
STARTCHAR 4FB5
ENCODING 20405
SWIDTH 960 0
DWIDTH 16 0
BBX 15 16 0 -2
BITMAP
0800
0BF0
13F0
1010
23F0
63F0
E010
AFFC
2FFC
2804
23F8
23F8
20A0
2FFC
2F3C
0000
ENDCHAR
STARTCHAR 4FB6
ENCODING 20406
SWIDTH 960 0
DWIDTH 16 0
BBX 15 16 0 -2
BITMAP
0800
0BF8
13F8
1208
2208
63F8
E3F8
A080
2100
27FC
27FC
2404
2404
27FC
27FC
0000
ENDCHAR
STARTCHAR 4FBF
ENCODING 20415
SWIDTH 960 0
DWIDTH 16 0
BBX 15 16 0 -2
BITMAP
1000
1FFE
1FFE
27F8
2488
67F8
E7F8
A488
27F8
27F8
2280
21C0
2370
2E3E
2C0E
0000
ENDCHAR
STARTCHAR 4FC2
ENCODING 20418
SWIDTH 960 0
DWIDTH 16 0
BBX 15 16 0 -2
BITMAP
1038
17F8
17C0
2090
23B0
6368
E0CC
AFFE
2FFE
2042
2248
2248
2E4E
2C46
2040
0000
ENDCHAR
STARTCHAR 4FC3
ENCODING 20419
SWIDTH 960 0
DWIDTH 16 0
BBX 15 16 0 -2
BITMAP
1000
13F8
13F8
3208
2208
63F8
E3F8
A040
2240
227C
227C
2240
2740
2DFE
28FE
0000
ENDCHAR
STARTCHAR 4FC4
ENCODING 20420
SWIDTH 960 0
DWIDTH 16 0
BBX 15 16 0 -2
BITMAP
10A0
1FA8
1F2C
2224
2FFE
6FFE
E220
A224
23A4
2FA8
2E18
2212
223A
2FEE
2DC4
0000
ENDCHAR
STARTCHAR 4FCA
ENCODING 20426
SWIDTH 960 0
DWIDTH 16 0
BBX 15 16 0 -2
BITMAP
0880
0898
17FC
17EC
20A0
61A0
EF3E
AF1E
21F0
23F0
2F30
2CE0
21F0
2FBE
2E0E
0000
ENDCHAR
STARTCHAR 4FCE
ENCODING 20430
SWIDTH 960 0
DWIDTH 16 0
BBX 15 16 0 -2
BITMAP
0000
11F0
11F0
1110
2910
EDF0
C5F0
1110
1110
11F0
29F0
ED10
C510
0FFE
0FFE
0000
ENDCHAR
STARTCHAR 4FD0
ENCODING 20432
SWIDTH 960 0
DWIDTH 16 0
BBX 15 16 0 -2
BITMAP
1044
11C4
1FA4
2F24
2124
6FE4
EFE4
A324
23A4
25E4
2D64
3904
3104
213C
2138
0000
ENDCHAR
STARTCHAR 4FD1
ENCODING 20433
SWIDTH 960 0
DWIDTH 16 0
BBX 15 16 0 -2
BITMAP
0800
0BF8
13F8
10A0
27FC
67FC
E444
A7FC
27FC
2444
27FC
27FC
2444
245C
2458
0000
ENDCHAR
STARTCHAR 4FD4
ENCODING 20436
SWIDTH 960 0
DWIDTH 16 0
BBX 15 16 0 -2
BITMAP
0800
0BF8
13F8
1208
23F8
63F8
E208
A3F8
23F8
2208
23F8
23FA
2122
2F3E
2E1C
0000
ENDCHAR
STARTCHAR 4FD7
ENCODING 20439
SWIDTH 960 0
DWIDTH 16 0
BBX 15 16 0 -2
BITMAP
1220
1230
161C
2C8C
29C0
6160
E330
A618
3C0E
3BF6
23F0
2210
2210
23F0
23F0
0000
ENDCHAR
STARTCHAR 4FD8
ENCODING 20440
SWIDTH 960 0
DWIDTH 16 0
BBX 15 16 0 -2
BITMAP
101C
17FC
17E8
2298
2150
67F8
E7F8
A0B0
2060
2FFE
2FFE
2040
2040
23C0
2380
0000
ENDCHAR
STARTCHAR 4FDA
ENCODING 20442
SWIDTH 960 0
DWIDTH 16 0
BBX 15 16 0 -2
BITMAP
0800
0BF8
13F8
1248
23F8
63F8
E248
A3F8
23F8
2040
27FC
27FC
2040
2FFE
2FFE
0000
ENDCHAR
STARTCHAR 4FDB
ENCODING 20443
SWIDTH 960 0
DWIDTH 16 0
BBX 15 16 0 -2
BITMAP
0900
09F0
13F0
1220
27F8
6FF8
FC88
B488
27F8
27F8
2140
2142
2242
2E7E
2C3C
0000
ENDCHAR
STARTCHAR 4FDD
ENCODING 20445
SWIDTH 960 0
DWIDTH 16 0
BBX 15 16 0 -2
BITMAP
0800
0BF8
13F8
1208
23F8
63F8
E040
AFFE
2FFE
20E0
2150
2358
2E4E
2C46
2040
0000
ENDCHAR
STARTCHAR 4FDF
ENCODING 20447
SWIDTH 960 0
DWIDTH 16 0
BBX 15 16 0 -2
BITMAP
1080
1090
1118
2FFC
2FEC
6200
E3F8
A7F8
2C80
2FFC
2FFC
2120
2330
2E1E
2C0E
0000
ENDCHAR
STARTCHAR 4FE1
ENCODING 20449
SWIDTH 960 0
DWIDTH 16 0
BBX 15 16 0 -2
BITMAP
0800
0BF8
13F8
1000
27FE
67FE
E000
A3F8
23F8
2000
23F8
23F8
2208
23F8
23F8
0000
ENDCHAR
STARTCHAR 4FE3
ENCODING 20451
SWIDTH 960 0
DWIDTH 16 0
BBX 15 16 0 -2
BITMAP
0800
0BF8
13F8
1208
23F8
63F8
E000
A7FC
27FC
2040
2FFE
2FFE
20A0
2FBE
2F1E
0000
ENDCHAR
STARTCHAR 4FE4
ENCODING 20452
SWIDTH 960 0
DWIDTH 16 0
BBX 15 16 0 -2
BITMAP
0910
09B0
17F8
17F8
2048
67F8
E7F8
A440
2FFC
2FFC
2144
2344
2E5C
2C58
2040
0000
ENDCHAR
STARTCHAR 4FE5
ENCODING 20453
SWIDTH 960 0
DWIDTH 16 0
BBX 15 16 0 -2
BITMAP
0840
0FFC
17FC
1040
23F8
63F8
E248
A3F8
23F8
2248
23F8
2FFE
2FFE
2040
2040
0000
ENDCHAR
STARTCHAR 4FEE
ENCODING 20462
SWIDTH 960 0
DWIDTH 16 0
BBX 15 16 0 -2
BITMAP
1080
1080
11FE
2BFE
2E88
6C70
EBDE
ABAE
2868
2BD8
2BB4
29EC
28D8
23F0
23E0
0000
ENDCHAR
STARTCHAR 4FEF
ENCODING 20463
SWIDTH 960 0
DWIDTH 16 0
BBX 15 16 0 -2
BITMAP
0840
0840
17FE
17FE
2488
6488
E5FE
A57E
2748
2768
2528
2908
3908
3138
2130
0000
ENDCHAR
STARTCHAR 4FF3
ENCODING 20467
SWIDTH 960 0
DWIDTH 16 0
BBX 15 16 0 -2
BITMAP
1120
1120
1120
2F3E
2F3E
6120
EF3C
AF3C
2120
2F3E
2F3E
2120
2320
2E20
2C20
0000
ENDCHAR
STARTCHAR 4FF5
ENCODING 20469
SWIDTH 960 0
DWIDTH 16 0
BBX 15 16 0 -2
BITMAP
0840
0FFC
17FC
1040
23F8
63F8
E040
AFFE
2FFE
232C
2F28
2D10
21D8
27CE
2706
0000
ENDCHAR
STARTCHAR 4FF6
ENCODING 20470
SWIDTH 960 0
DWIDTH 16 0
BBX 15 16 0 -2
BITMAP
1200
1200
13FC
23FC
2224
7FE4
FFE8
A228
2B28
2B90
3A90
32A8
2E6C
2DC6
2182
0000
ENDCHAR
STARTCHAR 4FF8
ENCODING 20472
SWIDTH 960 0
DWIDTH 16 0
BBX 15 16 0 -2
BITMAP
0840
0FFC
17FC
1040
23F8
6FFE
EFFE
A150
23F8
2FFE
2C46
27FC
27FC
2040
2040
0000
ENDCHAR
STARTCHAR 4FFA
ENCODING 20474
SWIDTH 960 0
DWIDTH 16 0
BBX 15 16 0 -2
BITMAP
1080
1FFC
1FFC
2140
2220
6FF8
FC9E
B7F6
27F0
2490
27F0
27F2
2082
20FE
207C
0000
ENDCHAR
STARTCHAR 4FFE
ENCODING 20478
SWIDTH 960 0
DWIDTH 16 0
BBX 15 16 0 -2
BITMAP
0880
0880
13F8
13F8
2248
63F8
E3F8
A248
23F8
23F8
2120
2FFE
2FFE
2020
2020
0000
ENDCHAR
STARTCHAR 5005
ENCODING 20485
SWIDTH 960 0
DWIDTH 16 0
BBX 15 16 0 -2
BITMAP
0840
0840
17FC
17FC
2210
6210
E738
ADAC
28C4
2FFE
2FFE
2040
2040
2040
2040
0000
ENDCHAR
STARTCHAR 5006
ENCODING 20486
SWIDTH 960 0
DWIDTH 16 0
BBX 15 16 0 -2
BITMAP
1000
17FE
17FE
2040
27FC
67FC
E444
A774
2774
2554
27FC
26EC
2444
245C
2458
0000
ENDCHAR
STARTCHAR 5009
ENCODING 20489
SWIDTH 960 0
DWIDTH 16 0
BBX 15 16 0 -2
BITMAP
0100
0380
06C0
0D60
3FF8
FFFE
C826
0FE0
0FE0
0800
1FF0
7FF0
6810
0FF0
0FF0
0000
ENDCHAR
STARTCHAR 500B
ENCODING 20491
SWIDTH 960 0
DWIDTH 16 0
BBX 15 16 0 -2
BITMAP
1000
17FC
17FC
2444
27FC
67FC
E444
A5F4
25F4
2514
25F4
25F4
2404
27FC
27FC
0000
ENDCHAR
STARTCHAR 500D
ENCODING 20493
SWIDTH 960 0
DWIDTH 16 0
BBX 15 16 0 -2
BITMAP
1040
1040
17FC
27FC
2310
6130
EFFE
AFFE
2000
23F8
23F8
2208
2208
23F8
23F8
0000
ENDCHAR
STARTCHAR 500F
ENCODING 20495
SWIDTH 960 0
DWIDTH 16 0
BBX 15 16 0 -2
BITMAP
1080
10F8
11F8
2390
2A70
68F8
EBDE
AB56
2850
2BFC
2BFC
28A0
29B0
271E
260E
0000
ENDCHAR
STARTCHAR 5011
ENCODING 20497
SWIDTH 960 0
DWIDTH 16 0
BBX 15 16 0 -2
BITMAP
1000
17BC
17BC
24A4
27BC
67BC
E404
A404
2404
2404
2404
2404
2404
241C
2418
0000
ENDCHAR
STARTCHAR 5012
ENCODING 20498
SWIDTH 960 0
DWIDTH 16 0
BBX 15 16 0 -2
BITMAP
1004
1FD4
1FD4
2494
2FD4
6F54
E214
AFD4
2FD4
2214
2214
23C4
2FC4
2E1C
2018
0000
ENDCHAR
STARTCHAR 5014
ENCODING 20500
SWIDTH 960 0
DWIDTH 16 0
BBX 15 16 0 -2
BITMAP
1000
17FC
17FC
2404
27FC
67FC
E528
A528
25F8
25F8
2624
2A24
3A24
33FC
23FC
0000
ENDCHAR
STARTCHAR 5016
ENCODING 20502
SWIDTH 960 0
DWIDTH 16 0
BBX 15 16 0 -2
BITMAP
1040
17FC
17FC
2040
2FFE
6FFE
E110
A1B0
2FFE
2FFE
2040
27FC
27FC
2040
2040
0000
ENDCHAR
STARTCHAR 5019
ENCODING 20505
SWIDTH 960 0
DWIDTH 16 0
BBX 15 16 0 -2
BITMAP
1000
11F0
11F0
2810
2BFE
6BFE
E900
ABFC
2FFC
2C40
2BFE
2BFE
21B0
2F1E
2E0E
0000
ENDCHAR
STARTCHAR 501A
ENCODING 20506
SWIDTH 960 0
DWIDTH 16 0
BBX 15 16 0 -2
BITMAP
1080
17FC
17FC
2160
2330
6610
FFFE
BFFE
2008
27C8
27C8
2448
27C8
27F8
2030
0000
ENDCHAR
STARTCHAR 501F
ENCODING 20511
SWIDTH 960 0
DWIDTH 16 0
BBX 15 16 0 -2
BITMAP
1120
17FC
17FC
2120
2FFE
6FFE
E000
A3F0
23F0
2210
23F0
23F0
2210
23F0
23F0
0000
ENDCHAR
STARTCHAR 5021
ENCODING 20513
SWIDTH 960 0
DWIDTH 16 0
BBX 15 16 0 -2
BITMAP
0800
0BF8
13F8
1208
23F8
63F8
E208
A7FC
27FC
2404
27FC
27FC
2404
27FC
27FC
0000
ENDCHAR
STARTCHAR 5023
ENCODING 20515
SWIDTH 960 0
DWIDTH 16 0
BBX 15 16 0 -2
BITMAP
1220
1220
1FE0
3FFE
247E
64C8
E7A8
A7A8
24A8
2490
2490
24B8
2928
3FEE
36C6
0000
ENDCHAR
STARTCHAR 5024
ENCODING 20516
SWIDTH 960 0
DWIDTH 16 0
BBX 15 16 0 -2
BITMAP
1040
17FC
17FC
2040
21F8
65F8
E508
A5F8
25F8
2508
25F8
25F8
2400
27FE
27FE
0000
ENDCHAR
STARTCHAR 5025
ENCODING 20517
SWIDTH 960 0
DWIDTH 16 0
BBX 15 16 0 -2
BITMAP
0840
0840
17FC
17FC
24A4
6120
EF3E
AE1E
2000
27FC
27FC
2040
2040
2FFE
2FFE
0000
ENDCHAR
STARTCHAR 5026
ENCODING 20518
SWIDTH 960 0
DWIDTH 16 0
BBX 15 16 0 -2
BITMAP
1290
17F8
17F8
3080
2FFE
6FFE
E220
A7F0
3FFE
382E
23E0
23E8
2208
23F8
21F0
0000
ENDCHAR
STARTCHAR 5028
ENCODING 20520
SWIDTH 960 0
DWIDTH 16 0
BBX 15 16 0 -2
BITMAP
1000
17FC
17FC
2404
27FC
67FC
E440
A7FE
27FE
2440
25F8
29F8
3908
31F8
21F8
0000
ENDCHAR
STARTCHAR 5029
ENCODING 20521
SWIDTH 960 0
DWIDTH 16 0
BBX 15 16 0 -2
BITMAP
1040
17FC
17FC
2040
23F8
63F8
E040
AFFE
2FFE
2208
23F8
23F8
2208
2278
2270
0000
ENDCHAR
STARTCHAR 502A
ENCODING 20522
SWIDTH 960 0
DWIDTH 16 0
BBX 15 16 0 -2
BITMAP
10C0
17FC
173C
2404
27BC
67BC
E404
A7FC
27FC
20A0
20A0
2122
2322
2E3E
2C1C
0000
ENDCHAR
STARTCHAR 502B
ENCODING 20523
SWIDTH 960 0
DWIDTH 16 0
BBX 15 16 0 -2
BITMAP
1080
11C0
1160
2330
27F8
6DEE
E806
A7F8
27F8
2548
27F8
27F8
2548
2558
2558
0000
ENDCHAR
STARTCHAR 502C
ENCODING 20524
SWIDTH 960 0
DWIDTH 16 0
BBX 15 16 0 -2
BITMAP
0840
087C
107C
1040
23F8
63F8
E208
A3F8
23F8
2208
23F8
2FFE
2FFE
2040
2040
0000
ENDCHAR
STARTCHAR 502D
ENCODING 20525
SWIDTH 960 0
DWIDTH 16 0
BBX 15 16 0 -2
BITMAP
0818
0BF8
13E0
1040
2FFE
6FFE
E150
AF5E
2ECE
2080
2FFE
2FFE
2130
2FFC
2F1C
0000
ENDCHAR
STARTCHAR 5036
ENCODING 20534
SWIDTH 960 0
DWIDTH 16 0
BBX 15 16 0 -2
BITMAP
0800
0BF8
13F8
1208
23F8
63F8
E208
A3F8
23F8
2208
2FFE
2FFE
2110
2F1E
2E0E
0000
ENDCHAR
STARTCHAR 5039
ENCODING 20537
SWIDTH 960 0
DWIDTH 16 0
BBX 15 16 0 -2
BITMAP
1080
11C0
1360
27F8
3DDE
7886
E7F8
A7F8
2488
27F8
27F8
2140
2360
2E3C
2C1C
0000
ENDCHAR
STARTCHAR 5043
ENCODING 20547
SWIDTH 960 0
DWIDTH 16 0
BBX 15 16 0 -2
BITMAP
1000
17FC
17FC
2488
24F8
64F8
E488
A7FE
27FE
2498
25F0
2478
25CC
27FE
27FE
0000
ENDCHAR
STARTCHAR 5047
ENCODING 20551
SWIDTH 960 0
DWIDTH 16 0
BBX 15 16 0 -2
BITMAP
1000
17BC
17BC
2484
27BC
67BC
E400
A780
27FC
247C
27A4
2798
2438
24EE
24C6
0000
ENDCHAR
STARTCHAR 5048
ENCODING 20552
SWIDTH 960 0
DWIDTH 16 0
BBX 15 16 0 -2
BITMAP
0800
0BF0
13F0
1210
23F0
63F0
E210
A7FC
2FFC
3C44
37C4
2784
2424
27FC
23D8
0000
ENDCHAR
STARTCHAR 5049
ENCODING 20553
SWIDTH 960 0
DWIDTH 16 0
BBX 15 16 0 -2
BITMAP
1080
1080
17F8
27F8
2088
6FFE
EFFE
A210
27F8
27F8
2120
2FFE
2FFE
2020
2020
0000
ENDCHAR
STARTCHAR 504F
ENCODING 20559
SWIDTH 960 0
DWIDTH 16 0
BBX 15 16 0 -2
BITMAP
1000
1FFC
1FFC
3000
27F8
67F8
E408
A7FC
27FC
26A4
2BFC
3BFC
32A4
22AC
22AC
0000
ENDCHAR
STARTCHAR 5050
ENCODING 20560
SWIDTH 960 0
DWIDTH 16 0
BBX 15 16 0 -2
BITMAP
0840
0FFC
17FC
1110
27FE
67FE
E430
A5E8
2598
2470
25E4
298C
3838
33F0
23C0
0000
ENDCHAR
STARTCHAR 5055
ENCODING 20565
SWIDTH 960 0
DWIDTH 16 0
BBX 15 16 0 -2
BITMAP
1424
17BC
17B8
2462
2FFE
6F9C
E040
A3F8
23F8
2208
23F8
23F8
2208
23F8
23F8
0000
ENDCHAR
STARTCHAR 5056
ENCODING 20566
SWIDTH 960 0
DWIDTH 16 0
BBX 15 16 0 -2
BITMAP
1088
17F8
17F8
2090
2FFE
6FFE
E100
A7F0
3FF0
3A10
23F0
23F0
2210
23F0
23F0
0000
ENDCHAR
STARTCHAR 505A
ENCODING 20570
SWIDTH 960 0
DWIDTH 16 0
BBX 15 16 0 -2
BITMAP
1220
1220
1220
2FBE
2FFE
6248
E2C8
AFA8
2FA8
28B0
2890
2F90
2FA8
20EE
20C6
0000
ENDCHAR
STARTCHAR 505C
ENCODING 20572
SWIDTH 960 0
DWIDTH 16 0
BBX 15 16 0 -2
BITMAP
1040
17FC
17FC
2000
21F0
61F0
E110
AFFE
2FFE
2802
27FC
27FC
2040
21C0
2180
0000
ENDCHAR
STARTCHAR 5065
ENCODING 20581
SWIDTH 960 0
DWIDTH 16 0
BBX 15 16 0 -2
BITMAP
1020
1EF8
1EF8
2428
25FE
69FE
FE28
BEFC
2AFC
2A20
2FFE
25FE
2E20
3BFE
31FE
0000
ENDCHAR
STARTCHAR 506C
ENCODING 20588
SWIDTH 960 0
DWIDTH 16 0
BBX 15 16 0 -2
BITMAP
1100
1100
13FC
2FFC
2DA4
6764
E6C4
A1E8
2738
26B0
21C8
254C
2516
2DF2
28E0
0000
ENDCHAR
STARTCHAR 5072
ENCODING 20594
SWIDTH 960 0
DWIDTH 16 0
BBX 15 16 0 -2
BITMAP
0800
0BF8
13F8
1248
33F8
63F8
E248
A3F8
23F8
20A0
22B4
22B6
228E
2EF8
2C70
0000
ENDCHAR
STARTCHAR 5074
ENCODING 20596
SWIDTH 960 0
DWIDTH 16 0
BBX 15 16 0 -2
BITMAP
1004
1794
1794
2494
2794
6794
E494
A794
2794
2494
2794
2784
2284
2EDC
2CD8
0000
ENDCHAR
STARTCHAR 5075
ENCODING 20597
SWIDTH 960 0
DWIDTH 16 0
BBX 15 16 0 -2
BITMAP
0840
087E
107E
1040
23F8
63F8
E208
A3F8
23F8
2208
23F8
23F8
2120
2F3E
2E1E
0000
ENDCHAR
STARTCHAR 5076
ENCODING 20598
SWIDTH 960 0
DWIDTH 16 0
BBX 15 16 0 -2
BITMAP
1000
17F8
17F8
2488
27F8
67F8
E488
A7F8
27F8
2080
2FFC
2FFC
2894
2BFC
2BEC
0000
ENDCHAR
STARTCHAR 5078
ENCODING 20600
SWIDTH 960 0
DWIDTH 16 0
BBX 15 16 0 -2
BITMAP
0880
09C0
1360
1638
2FFE
6BE6
E008
A7A8
27A8
24A8
27A8
27A8
2488
25B8
25B0
0000
ENDCHAR
STARTCHAR 507D
ENCODING 20605
SWIDTH 960 0
DWIDTH 16 0
BBX 15 16 0 -2
BITMAP
1480
1680
1FE0
2FE0
2120
63F0
E3F0
A610
2FFC
3FFC
32A4
2554
2D54
293C
2038
0000
ENDCHAR
STARTCHAR 5080
ENCODING 20608
SWIDTH 960 0
DWIDTH 16 0
BBX 15 16 0 -2
BITMAP
1080
1080
17F8
27F8
2448
67F8
E7F8
A448
27F8
27F8
2158
217C
2266
2E7E
2C3C
0000
ENDCHAR
STARTCHAR 5085
ENCODING 20613
SWIDTH 960 0
DWIDTH 16 0
BBX 15 16 0 -2
BITMAP
1048
17FE
17FE
2040
23F8
63F8
E248
A3F8
23F8
2010
2FFE
2FFE
2210
2370
2160
0000
ENDCHAR
STARTCHAR 508D
ENCODING 20621
SWIDTH 960 0
DWIDTH 16 0
BBX 15 16 0 -2
BITMAP
1040
17FC
17FC
2110
2FFE
6FFE
E842
A7FC
27FC
2100
21F8
21F8
2308
2E78
2C70
0000
ENDCHAR
STARTCHAR 5091
ENCODING 20625
SWIDTH 960 0
DWIDTH 16 0
BBX 15 16 0 -2
BITMAP
1408
17BE
17BE
2CA8
2B7E
637E
EE08
AC48
2040
2FFE
2FFE
2150
2358
2E4E
2C46
0000
ENDCHAR
STARTCHAR 5098
ENCODING 20632
SWIDTH 960 0
DWIDTH 16 0
BBX 15 16 0 -2
BITMAP
0100
0380
0EE0
FD7E
F11E
3938
6D6C
5554
3938
6D6C
FFFE
FFFE
0100
0100
0100
0000
ENDCHAR
STARTCHAR 5099
ENCODING 20633
SWIDTH 960 0
DWIDTH 16 0
BBX 15 16 0 -2
BITMAP
1090
17FC
17FC
2090
27FE
67FE
E400
A5FC
25FC
2524
25FC
29FC
3924
312C
212C
0000
ENDCHAR
STARTCHAR 509A
ENCODING 20634
SWIDTH 960 0
DWIDTH 16 0
BBX 15 16 0 -2
BITMAP
1220
1220
1FA0
2FFE
257E
6DC4
F8C4
B564
2528
2528
2210
2210
2528
2DEE
28C6
0000
ENDCHAR
STARTCHAR 50AC
ENCODING 20652
SWIDTH 960 0
DWIDTH 16 0
BBX 15 16 0 -2
BITMAP
1244
13FC
13FC
2120
23FC
67FC
EE40
ABFC
23FC
2240
23FC
23FC
2240
23FE
23FE
0000
ENDCHAR
STARTCHAR 50AD
ENCODING 20653
SWIDTH 960 0
DWIDTH 16 0
BBX 15 16 0 -2
BITMAP
1020
17FE
17FE
2428
27FE
67FE
E428
A5FC
25FC
2524
25FC
29FC
3924
313C
2138
0000
ENDCHAR
STARTCHAR 50B2
ENCODING 20658
SWIDTH 960 0
DWIDTH 16 0
BBX 15 16 0 -2
BITMAP
1220
17A0
17A0
227E
2FFE
6F84
E224
AFA8
2FA8
2418
2790
2798
28A8
3BEE
3346
0000
ENDCHAR
STARTCHAR 50B3
ENCODING 20659
SWIDTH 960 0
DWIDTH 16 0
BBX 15 16 0 -2
BITMAP
1040
17FE
17FE
2248
23F8
63F8
E248
AFFE
2FFE
2010
2FFE
2FFE
2210
2370
2160
0000
ENDCHAR
STARTCHAR 50B4
ENCODING 20660
SWIDTH 960 0
DWIDTH 16 0
BBX 15 16 0 -2
BITMAP
1000
17FC
17FC
2488
24F8
64F8
E400
A5DC
25DC
2554
25DC
25DC
2400
27FE
27FE
0000
ENDCHAR
STARTCHAR 50B5
ENCODING 20661
SWIDTH 960 0
DWIDTH 16 0
BBX 15 16 0 -2
BITMAP
1040
13FC
13FC
2040
2FFE
6FFE
E208
A3F8
23F8
2208
23F8
23F8
2110
2F1E
2E0E
0000
ENDCHAR
STARTCHAR 50B7
ENCODING 20663
SWIDTH 960 0
DWIDTH 16 0
BBX 15 16 0 -2
BITMAP
1200
13FC
17FC
2E10
2BF0
63F0
E210
AFFE
2FFE
2100
2FFC
2FFC
2244
2FFC
2DB8
0000
ENDCHAR
STARTCHAR 50BE
ENCODING 20670
SWIDTH 960 0
DWIDTH 16 0
BBX 15 16 0 -2
BITMAP
1000
13FE
13FE
2840
2AF8
6AF8
EE88
ACF8
28F8
2A88
2AF8
2EF8
2650
21DE
218E
0000
ENDCHAR
STARTCHAR 50C2
ENCODING 20674
SWIDTH 960 0
DWIDTH 16 0
BBX 15 16 0 -2
BITMAP
1040
13F8
13F8
2248
2FFE
6FFE
E248
A3F8
23F8
2080
2FFE
2FFE
21B0
2FFC
2F8C
0000
ENDCHAR
STARTCHAR 50C5
ENCODING 20677
SWIDTH 960 0
DWIDTH 16 0
BBX 15 16 0 -2
BITMAP
1110
1FFE
1FFE
2110
23F8
63F8
E248
A3F8
23F8
2040
27FC
27FC
2040
2FFE
2FFE
0000
ENDCHAR
STARTCHAR 50C9
ENCODING 20681
SWIDTH 960 0
DWIDTH 16 0
BBX 15 16 0 -2
BITMAP
0100
0380
06C0
0FE0
3BB8
F01E
FEFE
3EF8
2288
3EF8
3EF8
0820
1C70
F7DE
E38E
0000
ENDCHAR
STARTCHAR 50CA
ENCODING 20682
SWIDTH 960 0
DWIDTH 16 0
BBX 15 16 0 -2
BITMAP
1000
1FFC
1FFC
2120
27F8
67F8
E528
AFFE
2FFE
2630
3FFE
3BEE
2208
23F8
21F0
0000
ENDCHAR
STARTCHAR 50CD
ENCODING 20685
SWIDTH 960 0
DWIDTH 16 0
BBX 15 16 0 -2
BITMAP
1790
1790
1210
3FD0
3FFC
6ABC
EF94
AF94
2A94
2F94
2FB4
2224
23E4
2FDC
2E98
0000
ENDCHAR
STARTCHAR 50CF
ENCODING 20687
SWIDTH 960 0
DWIDTH 16 0
BBX 15 16 0 -2
BITMAP
11E0
11E0
1320
2FF8
2FF8
6488
E7F8
A7FC
218C
2FD8
2EF0
21B8
2F2E
2EE6
20C0
0000
ENDCHAR
STARTCHAR 50D1
ENCODING 20689
SWIDTH 960 0
DWIDTH 16 0
BBX 15 16 0 -2
BITMAP
13F8
13F8
1080
2FFE
2FFE
6330
EFFE
ADEE
2000
27FC
27FC
2524
25E4
25FC
241C
0000
ENDCHAR
STARTCHAR 50D5
ENCODING 20693
SWIDTH 960 0
DWIDTH 16 0
BBX 15 16 0 -2
BITMAP
14A4
1FFE
1FFE
2110
27FC
67FC
E040
A3F8
23F8
2040
2FFE
2FFE
20A0
2FBE
2F1E
0000
ENDCHAR
STARTCHAR 50D6
ENCODING 20694
SWIDTH 960 0
DWIDTH 16 0
BBX 15 16 0 -2
BITMAP
1040
1FFE
1FFE
2040
27FC
67FC
E208
A3F8
23F8
20A0
2FFE
2FFE
2208
23F8
23F8
0000
ENDCHAR
STARTCHAR 50DA
ENCODING 20698
SWIDTH 960 0
DWIDTH 16 0
BBX 15 16 0 -2
BITMAP
1040
17FC
17FC
24A4
23B8
6F1E
EFFE
A3F8
2208
23F8
23F8
2040
2258
2FDE
2D86
0000
ENDCHAR
STARTCHAR 50DE
ENCODING 20702
SWIDTH 960 0
DWIDTH 16 0
BBX 15 16 0 -2
BITMAP
101C
17FC
17E8
2250
23F0
63F0
E210
A3F8
23F8
2208
27FC
2FFC
3AA4
33FC
2158
0000
ENDCHAR
STARTCHAR 50E3
ENCODING 20707
SWIDTH 960 0
DWIDTH 16 0
BBX 15 16 0 -2
BITMAP
1210
17BC
17BC
2210
2FFE
6FFE
E528
AFFC
3BFE
320A
23F8
23F8
2208
23F8
23F8
0000
ENDCHAR
STARTCHAR 50E5
ENCODING 20709
SWIDTH 960 0
DWIDTH 16 0
BBX 15 16 0 -2
BITMAP
0840
0BF8
13F8
1040
27FC
67FC
E110
AFFE
2FFE
2000
27FC
27FC
20A2
2FBE
2F1C
0000
ENDCHAR
STARTCHAR 50E7
ENCODING 20711
SWIDTH 960 0
DWIDTH 16 0
BBX 15 16 0 -2
BITMAP
1110
17FC
17FC
2444
27FC
67FC
E444
A7FC
27FC
2208
23F8
23F8
2208
23F8
23F8
0000
ENDCHAR
STARTCHAR 50ED
ENCODING 20717
SWIDTH 960 0
DWIDTH 16 0
BBX 15 16 0 -2
BITMAP
1110
177C
177C
2550
2FFE
6FFE
E6A8
BFFE
3BFE
2208
23F8
23F8
2208
23F8
23F8
0000
ENDCHAR
STARTCHAR 50EE
ENCODING 20718
SWIDTH 960 0
DWIDTH 16 0
BBX 15 16 0 -2
BITMAP
1040
17FC
17FC
2110
2FFE
6FFE
E000
A3F8
23F8
2248
27FC
27FC
2040
2FFE
2FFE
0000
ENDCHAR
STARTCHAR 50F5
ENCODING 20725
SWIDTH 960 0
DWIDTH 16 0
BBX 15 16 0 -2
BITMAP
1000
17FE
17FE
2248
23F8
63F8
E248
AFFE
2FFE
2248
23F8
23F8
2248
2FFE
2FFE
0000
ENDCHAR
STARTCHAR 50F9
ENCODING 20729
SWIDTH 960 0
DWIDTH 16 0
BBX 15 16 0 -2
BITMAP
1000
1FFE
1FFE
2120
27FC
67FC
E524
A7FC
27FC
2208
23F8
23F8
2120
2F3E
2E1E
0000
ENDCHAR
STARTCHAR 50FB
ENCODING 20731
SWIDTH 960 0
DWIDTH 16 0
BBX 15 16 0 -2
BITMAP
1010
1790
17FC
24FC
27A4
67AC
E4FE
A4FE
2F90
2FFE
3CFE
3490
2790
2790
2010
0000
ENDCHAR
STARTCHAR 5100
ENCODING 20736
SWIDTH 960 0
DWIDTH 16 0
BBX 15 16 0 -2
BITMAP
1110
17FC
17FC
3040
2FFE
6FFE
E1A8
A32C
2FFE
2FFE
23A8
2F1A
2D3A
27EE
26C6
0000
ENDCHAR
STARTCHAR 5101
ENCODING 20737
SWIDTH 960 0
DWIDTH 16 0
BBX 15 16 0 -2
BITMAP
1120
13FC
17FC
2E40
2BF8
63F8
E240
A3FC
23FC
2000
27BC
27BC
24E4
24EC
240C
0000
ENDCHAR
STARTCHAR 5102
ENCODING 20738
SWIDTH 960 0
DWIDTH 16 0
BBX 15 16 0 -2
BITMAP
10A0
17F8
17F8
24A8
27F8
67F8
E000
A7FC
27FC
2400
27FE
2FFE
3924
37FE
27CE
0000
ENDCHAR
STARTCHAR 5104
ENCODING 20740
SWIDTH 960 0
DWIDTH 16 0
BBX 15 16 0 -2
BITMAP
0840
0FFC
17FC
1110
3FFE
6FFE
E208
A3F8
23F8
2208
23F8
23FC
22A6
2EFE
2C78
0000
ENDCHAR
STARTCHAR 5109
ENCODING 20745
SWIDTH 960 0
DWIDTH 16 0
BBX 15 16 0 -2
BITMAP
0840
08E0
11B0
13F8
2EEE
6C06
E7BC
A7BC
24A4
27BC
27BC
2210
2338
2FEE
2CC6
0000
ENDCHAR
STARTCHAR 5112
ENCODING 20754
SWIDTH 960 0
DWIDTH 16 0
BBX 15 16 0 -2
BITMAP
1000
17FC
17FC
2040
2FFE
6FFE
EA4A
A7FC
27FC
2080
27FC
27FC
24A4
24AC
24AC
0000
ENDCHAR
STARTCHAR 5114
ENCODING 20756
SWIDTH 960 0
DWIDTH 16 0
BBX 15 16 0 -2
BITMAP
1040
17FC
17FC
2040
2FFE
6FFE
E004
A7FC
27FC
2048
2FFE
2FFE
2948
2F78
2F30
0000
ENDCHAR
STARTCHAR 5115
ENCODING 20757
SWIDTH 960 0
DWIDTH 16 0
BBX 15 16 0 -2
BITMAP
1040
1FFE
1FFE
20A2
2FFE
6F5C
E554
AF5E
2BFA
23F8
2208
23F8
23F8
2E08
2C08
0000
ENDCHAR
STARTCHAR 5116
ENCODING 20758
SWIDTH 960 0
DWIDTH 16 0
BBX 15 16 0 -2
BITMAP
1010
17D0
17FE
253E
27E0
67C0
E53C
A7FC
27C0
2000
23F8
23F8
22A8
2FFE
2FFE
0000
ENDCHAR
STARTCHAR 5118
ENCODING 20760
SWIDTH 960 0
DWIDTH 16 0
BBX 15 16 0 -2
BITMAP
1080
17F0
17F0
2090
2FFE
6FFE
E090
BFFE
3FFE
2A48
3FFC
37F4
2550
3FFE
3FFE
0000
ENDCHAR
STARTCHAR 511A
ENCODING 20762
SWIDTH 960 0
DWIDTH 16 0
BBX 15 16 0 -2
BITMAP
1120
17FC
17FC
2120
27F8
67F8
E528
AFFC
2FFC
2904
27F8
26F8
2130
27E0
27C0
0000
ENDCHAR
STARTCHAR 511F
ENCODING 20767
SWIDTH 960 0
DWIDTH 16 0
BBX 15 16 0 -2
BITMAP
1248
17FC
17FC
2514
23F8
63F8
E208
A3F8
23F8
2208
23F8
23F8
2110
2F1E
2E0E
0000
ENDCHAR
STARTCHAR 5121
ENCODING 20769
SWIDTH 960 0
DWIDTH 16 0
BBX 15 16 0 -2
BITMAP
0800
0BF8
13F8
1248
23F8
63F8
E000
AFBE
2FBE
2AAA
2FBE
2FBE
2AAA
2FBE
2FBE
0000
ENDCHAR
STARTCHAR 512A
ENCODING 20778
SWIDTH 960 0
DWIDTH 16 0
BBX 15 16 0 -2
BITMAP
0800
0FFC
17FC
1080
23F0
63F0
E210
AFFE
2FFE
2AAA
27FC
27F8
2090
2FFC
2F1C
0000
ENDCHAR
STARTCHAR 5132
ENCODING 20786
SWIDTH 960 0
DWIDTH 16 0
BBX 15 16 0 -2
BITMAP
1020
177C
177C
2028
2FFE
6FFE
E020
AF78
2FF8
20C8
2F78
2F78
2948
2F78
2F78
0000
ENDCHAR
STARTCHAR 5137
ENCODING 20791
SWIDTH 960 0
DWIDTH 16 0
BBX 15 16 0 -2
BITMAP
1000
1FBE
1FBE
2000
2FBE
6FFE
E94A
A7FC
27FC
2494
27FC
2FFC
396A
37FE
27BC
0000
ENDCHAR
STARTCHAR 513A
ENCODING 20794
SWIDTH 960 0
DWIDTH 16 0
BBX 15 16 0 -2
BITMAP
1510
1FD4
1FE4
253E
2FFE
6FE8
EABE
AFBE
2FA8
223E
2FBE
2FA8
2228
2FBE
2DBE
0000
ENDCHAR
STARTCHAR 513B
ENCODING 20795
SWIDTH 960 0
DWIDTH 16 0
BBX 15 16 0 -2
BITMAP
1248
1FFE
1FFE
2912
29F2
67FC
E7FC
A554
2FFE
2FFE
2040
2FFE
2FFE
2DB6
2492
0000
ENDCHAR
STARTCHAR 513C
ENCODING 20796
SWIDTH 960 0
DWIDTH 16 0
BBX 15 16 0 -2
BITMAP
1000
17BC
17BC
24A4
2FFE
6FFE
E910
AFDE
2FFE
2A74
2BD4
2BC8
3A5C
37F6
2762
0000
ENDCHAR
STARTCHAR 513F
ENCODING 20799
SWIDTH 960 0
DWIDTH 16 0
BBX 15 16 0 -2
BITMAP
0440
0440
0440
0440
0440
0440
0440
0440
0440
0440
0440
0842
1842
F07E
E03C
0000
ENDCHAR
STARTCHAR 5140
ENCODING 20800
SWIDTH 960 0
DWIDTH 16 0
BBX 15 16 0 -2
BITMAP
0000
FFFE
0480
0480
0480
0480
0480
0480
0480
0480
0480
0882
1882
F0FE
E07C
0000
ENDCHAR
STARTCHAR 5141
ENCODING 20801
SWIDTH 960 0
DWIDTH 16 0
BBX 15 16 0 -2
BITMAP
0400
0420
0830
0818
11FC
FFF6
FE46
0440
0440
0440
0440
0842
1842
F07E
E03C
0000
ENDCHAR
STARTCHAR 5143
ENCODING 20803
SWIDTH 960 0
DWIDTH 16 0
BBX 15 16 0 -2
BITMAP
0000
3FF8
3FF8
0000
0000
FFFE
FFFE
0480
0480
0480
0480
0882
1882
F0FE
E07C
0000
ENDCHAR
STARTCHAR 5144
ENCODING 20804
SWIDTH 960 0
DWIDTH 16 0
BBX 15 16 0 -2
BITMAP
0000
1FF0
1FF0
1010
1010
1010
1010
1FF0
1FF0
0480
0480
0882
1882
F0FE
E07C
0000
ENDCHAR
STARTCHAR 5145
ENCODING 20805
SWIDTH 960 0
DWIDTH 16 0
BBX 15 16 0 -2
BITMAP
0100
0100
FFFE
FFFE
0C20
0870
7FF8
7F98
0480
0480
0480
0882
1882
F0FE
E07C
0000
ENDCHAR
STARTCHAR 5146
ENCODING 20806
SWIDTH 960 0
DWIDTH 16 0
BBX 15 16 0 -2
BITMAP
0480
0480
4488
6498
24B0
24A0
0C80
1CE0
F4F8
E49C
0484
0882
1882
F0FE
E07C
0000
ENDCHAR
STARTCHAR 5147
ENCODING 20807
SWIDTH 960 0
DWIDTH 16 0
BBX 15 16 0 -2
BITMAP
2048
2C48
2E88
2388
2348
2E68
2C28
2008
3FF8
3FF8
0480
0882
1882
F0FE
E07C
0000
ENDCHAR
STARTCHAR 5148
ENCODING 20808
SWIDTH 960 0
DWIDTH 16 0
BBX 15 16 0 -2
BITMAP
1100
1100
1FF8
3FF8
6100
4100
FFFE
FFFE
0480
0480
0480
0882
1882
F0FE
E07C
0000
ENDCHAR
STARTCHAR 5149
ENCODING 20809
SWIDTH 960 0
DWIDTH 16 0
BBX 15 16 0 -2
BITMAP
0100
2118
3118
1930
0920
0100
FFFE
FFFE
0480
0480
0480
0882
1882
F0FE
E07C
0000
ENDCHAR
STARTCHAR 514B
ENCODING 20811
SWIDTH 960 0
DWIDTH 16 0
BBX 15 16 0 -2
BITMAP
0100
0100
FFFE
FFFE
0100
1FF0
1FF0
1010
1010
1FF0
1FF0
0482
0C82
F8FE
F07C
0000
ENDCHAR
STARTCHAR 514C
ENCODING 20812
SWIDTH 960 0
DWIDTH 16 0
BBX 15 16 0 -2
BITMAP
0820
0C60
0440
1FF0
1FF0
1010
1010
1010
1FF0
1FF0
0480
0882
1882
F0FE
E07C
0000
ENDCHAR
STARTCHAR 514D
ENCODING 20813
SWIDTH 960 0
DWIDTH 16 0
BBX 15 16 0 -2
BITMAP
0200
07E0
0FE0
1840
7FF8
7FF8
1108
1108
1FF8
1FF8
0280
0682
1C82
F8FE
E07C
0000
ENDCHAR
STARTCHAR 514E
ENCODING 20814
SWIDTH 960 0
DWIDTH 16 0
BBX 15 16 0 -2
BITMAP
0018
3FF8
3FE0
0100
3FF8
3FF8
2108
2108
3FF8
3FF8
02A0
04B2
1C92
F8FE
E07C
0000
ENDCHAR
STARTCHAR 5150
ENCODING 20816
SWIDTH 960 0
DWIDTH 16 0
BBX 15 16 0 -2
BITMAP
2000
23F0
23F0
2210
23F0
23F0
2210
23F0
23F0
0900
0900
0902
1902
F1FE
E0FC
0000
ENDCHAR
STARTCHAR 5152
ENCODING 20818
SWIDTH 960 0
DWIDTH 16 0
BBX 15 16 0 -2
BITMAP
0300
1FF0
1CF0
1010
1EF0
1EF0
1010
1FF0
1FF0
0480
0480
0882
1882
F0FE
E07C
0000
ENDCHAR
STARTCHAR 5154
ENCODING 20820
SWIDTH 960 0
DWIDTH 16 0
BBX 15 16 0 -2
BITMAP
0400
07E0
0FE0
1840
3FF8
FFF8
E108
2108
3FF8
3FF8
04A0
0CB2
1892
F0FE
E07C
0000
ENDCHAR
STARTCHAR 515A
ENCODING 20826
SWIDTH 960 0
DWIDTH 16 0
BBX 15 16 0 -2
BITMAP
1110
1930
7FFC
7FFC
4004
4FE4
0FE0
0820
0820
0FE0
0FE0
0482
0C82
F8FE
F07C
0000
ENDCHAR
STARTCHAR 515C
ENCODING 20828
SWIDTH 960 0
DWIDTH 16 0
BBX 15 16 0 -2
BITMAP
0A00
7FDC
77DC
4444
47C4
47C4
4444
77DC
77DC
0000
0480
0C82
1882
F0FE
E07C
0000
ENDCHAR
STARTCHAR 5162
ENCODING 20834
SWIDTH 960 0
DWIDTH 16 0
BBX 15 16 0 -2
BITMAP
1020
1020
FFFE
FFFE
1020
7CF8
7CF8
4488
7CF8
7CF8
2950
2B52
4E92
CD9E
890C
0000
ENDCHAR
STARTCHAR 5165
ENCODING 20837
SWIDTH 960 0
DWIDTH 16 0
BBX 15 16 0 -2
BITMAP
0000
1F00
1F00
0100
0100
0100
0280
0280
0440
0440
0820
1830
3018
E00E
C006
0000
ENDCHAR
STARTCHAR 5168
ENCODING 20840
SWIDTH 960 0
DWIDTH 16 0
BBX 15 16 0 -2
BITMAP
0100
0380
06C0
0C60
3838
FFFE
CFE6
0100
0100
1FF0
1FF0
0100
0100
7FFC
7FFC
0000
ENDCHAR
STARTCHAR 5169
ENCODING 20841
SWIDTH 960 0
DWIDTH 16 0
BBX 15 16 0 -2
BITMAP
0000
FFFE
FFFE
0100
0100
7FFC
7FFC
5964
4924
4924
5D7C
77DC
6384
413C
4138
0000
ENDCHAR
STARTCHAR 516A
ENCODING 20842
SWIDTH 960 0
DWIDTH 16 0
BBX 15 16 0 -2
BITMAP
0100
0380
06C0
1FF0
FBBE
E02E
3E24
3E6C
32D8
3A90
2AD8
3248
3A6C
2E24
2624
0000
ENDCHAR
STARTCHAR 516B
ENCODING 20843
SWIDTH 960 0
DWIDTH 16 0
BBX 15 16 0 -2
BITMAP
0480
0480
0480
0480
0480
0480
0440
0440
0840
0820
1830
1010
3018
E00E
C006
0000
ENDCHAR
STARTCHAR 516C
ENCODING 20844
SWIDTH 960 0
DWIDTH 16 0
BBX 15 16 0 -2
BITMAP
0440
0440
0440
0820
0820
1210
3218
E20E
C206
0440
0460
0830
08F8
7FFC
7F0C
0000
ENDCHAR
STARTCHAR 516D
ENCODING 20845
SWIDTH 960 0
DWIDTH 16 0
BBX 15 16 0 -2
BITMAP
0100
0100
0100
FFFE
FFFE
0000
0000
0820
0830
0818
100C
3004
E006
C002
0000
0000
ENDCHAR
STARTCHAR 516E
ENCODING 20846
SWIDTH 960 0
DWIDTH 16 0
BBX 15 16 0 -2
BITMAP
0440
0440
0820
1830
3FF8
EFEE
C406
0400
0FE0
0FE0
0020
0020
0040
03C0
0380
0000
ENDCHAR
STARTCHAR 5171
ENCODING 20849
SWIDTH 960 0
DWIDTH 16 0
BBX 15 16 0 -2
BITMAP
0440
0440
0440
7FFC
7FFC
0440
0440
0440
FFFE
FFFE
0000
0440
0C60
783C
701C
0000
ENDCHAR
STARTCHAR 5175
ENCODING 20853
SWIDTH 960 0
DWIDTH 16 0
BBX 15 16 0 -2
BITMAP
0060
0FE0
0F80
0800
0FF8
0FF8
0840
0840
0840
FFFE
FFFE
0440
1C70
F83E
E00E
0000
ENDCHAR
STARTCHAR 5176
ENCODING 20854
SWIDTH 960 0
DWIDTH 16 0
BBX 15 16 0 -2
BITMAP
0820
7FFC
7FFC
0820
0FE0
0FE0
0820
0FE0
0FE0
0820
FFFE
FFFE
0440
7C7C
783C
0000
ENDCHAR
STARTCHAR 5177
ENCODING 20855
SWIDTH 960 0
DWIDTH 16 0
BBX 15 16 0 -2
BITMAP
0000
0FE0
0FE0
0820
0FE0
0FE0
0820
0FE0
0FE0
0820
FFFE
FFFE
0440
7C7C
783C
0000
ENDCHAR
STARTCHAR 5178
ENCODING 20856
SWIDTH 960 0
DWIDTH 16 0
BBX 15 16 0 -2
BITMAP
0480
0480
3FF0
3FF0
2490
3FF0
3FF0
2490
2490
FFFE
FFFE
0440
0C60
783C
701C
0000
ENDCHAR
STARTCHAR 517C
ENCODING 20860
SWIDTH 960 0
DWIDTH 16 0
BBX 15 16 0 -2
BITMAP
0840
FFFE
FFFE
0480
3FF0
3FF0
0490
FFFE
FFFE
0490
3FF0
3FF0
14A0
F4BE
E49E
0000
ENDCHAR
STARTCHAR 5180
ENCODING 20864
SWIDTH 960 0
DWIDTH 16 0
BBX 15 16 0 -2
BITMAP
048C
FCFC
FCF2
0482
FFFE
FFFC
1110
1FF0
1FF0
1110
FFFE
FFFE
0440
7C7C
783C
0000
ENDCHAR
STARTCHAR 5182
ENCODING 20866
SWIDTH 960 0
DWIDTH 16 0
BBX 15 16 0 -2
BITMAP
0000
7FFC
7FFC
4004
4004
4004
4004
4004
4004
4004
4004
4004
4004
403C
4038
0000
ENDCHAR
STARTCHAR 5185
ENCODING 20869
SWIDTH 960 0
DWIDTH 16 0
BBX 15 16 0 -2
BITMAP
0100
0100
0100
3FFC
3FFC
2104
2104
2284
26C4
3C74
3834
2004
2004
203C
2038
0000
ENDCHAR
STARTCHAR 5186
ENCODING 20870
SWIDTH 960 0
DWIDTH 16 0
BBX 15 16 0 -2
BITMAP
0000
3FF8
3FF8
2108
2108
2108
2108
3FF8
3FF8
2008
2008
2008
2008
2078
2070
0000
ENDCHAR
STARTCHAR 5189
ENCODING 20873
SWIDTH 960 0
DWIDTH 16 0
BBX 15 16 0 -2
BITMAP
0100
0100
1FF0
1FF0
1110
1FF0
1FF0
1110
1110
FFFE
FFFE
1010
1010
10F0
10E0
0000
ENDCHAR
STARTCHAR 518A
ENCODING 20874
SWIDTH 960 0
DWIDTH 16 0
BBX 15 16 0 -2
BITMAP
0000
3FF0
3FF0
2490
2490
2490
2490
FFFE
FFFE
2490
2490
2490
2490
24F0
2060
0000
ENDCHAR
STARTCHAR 518C
ENCODING 20876
SWIDTH 960 0
DWIDTH 16 0
BBX 15 16 0 -2
BITMAP
0000
3CF0
3CF0
2490
2490
2490
FFFE
FFFE
2490
2490
2490
2490
4510
DF70
9A60
0000
ENDCHAR
STARTCHAR 518D
ENCODING 20877
SWIDTH 960 0
DWIDTH 16 0
BBX 15 16 0 -2
BITMAP
0000
FFFE
FFFE
0100
1FF0
1FF0
1110
1FF0
1FF0
1110
FFFE
FFFE
1010
10F0
10E0
0000
ENDCHAR
STARTCHAR 518F
ENCODING 20879
SWIDTH 960 0
DWIDTH 16 0
BBX 15 16 0 -2
BITMAP
0000
7FFC
7FFC
4484
4484
4CFC
787C
77C4
47C4
4444
4444
47C4
47C4
403C
4038
0000
ENDCHAR
STARTCHAR 5190
ENCODING 20880
SWIDTH 960 0
DWIDTH 16 0
BBX 15 16 0 -2
BITMAP
0000
7FFC
7FFC
4004
5FF4
5FF4
0000
1FF0
1FF0
1010
1FF0
1FF0
1010
10F0
10E0
0000
ENDCHAR
STARTCHAR 5191
ENCODING 20881
SWIDTH 960 0
DWIDTH 16 0
BBX 15 16 0 -2
BITMAP
0100
3FF8
3FF8
2108
3FF8
3FF8
2108
3FF8
3FF8
1010
17D0
17D0
1010
10F0
10E0
0000
ENDCHAR
STARTCHAR 5192
ENCODING 20882
SWIDTH 960 0
DWIDTH 16 0
BBX 15 16 0 -2
BITMAP
0000
1FF8
1FF8
1008
1FF8
1FF8
1008
1FF8
0FF0
0810
0FF0
0FF0
0810
0FF0
0FF0
0000
ENDCHAR
STARTCHAR 5193
ENCODING 20883
SWIDTH 960 0
DWIDTH 16 0
BBX 15 16 0 -2
BITMAP
0440
7FFC
7FFC
0440
FFFE
FFFE
0100
1FF0
1FF0
1110
FFFE
FFFE
1010
10F0
10E0
0000
ENDCHAR
STARTCHAR 5195
ENCODING 20885
SWIDTH 960 0
DWIDTH 16 0
BBX 15 16 0 -2
BITMAP
0000
3FF8
3FF8
2008
2FE8
2FE8
0880
3FF8
FFF8
F108
3FF8
3FFA
0482
FCFE
F87C
0000
ENDCHAR
STARTCHAR 5196
ENCODING 20886
SWIDTH 960 0
DWIDTH 16 0
BBX 15 16 0 -2
BITMAP
0000
0000
0000
0000
0000
7FFC
7FFC
4004
4004
4004
0000
0000
0000
0000
0000
0000
ENDCHAR
STARTCHAR 5197
ENCODING 20887
SWIDTH 960 0
DWIDTH 16 0
BBX 15 16 0 -2
BITMAP
0000
7FFC
7FFC
4004
4004
07C0
07C0
0440
0440
0440
0440
0842
1842
F07E
E03C
0000
ENDCHAR
STARTCHAR 5199
ENCODING 20889
SWIDTH 960 0
DWIDTH 16 0
BBX 15 16 0 -2
BITMAP
0000
7FFC
7FFC
4804
0FF0
0FF0
1000
1FE0
1FE0
0020
FFFE
FFFE
0040
03C0
0380
0000
ENDCHAR
STARTCHAR 51A0
ENCODING 20896
SWIDTH 960 0
DWIDTH 16 0
BBX 15 16 0 -2
BITMAP
0000
FFFE
FFFE
8012
7E12
7FFC
01FC
FE10
FF10
2990
28F0
2862
4802
CFFE
87FC
0000
ENDCHAR
STARTCHAR 51A2
ENCODING 20898
SWIDTH 960 0
DWIDTH 16 0
BBX 15 16 0 -2
BITMAP
0000
7FFC
7FFC
4004
3FF8
3FF8
0C08
7F18
73B0
0EE0
7DE0
7378
0E5E
7DC6
7180
0000
ENDCHAR
STARTCHAR 51A4
ENCODING 20900
SWIDTH 960 0
DWIDTH 16 0
BBX 15 16 0 -2
BITMAP
0000
7FFC
7FFC
4404
0FC0
1FC0
3080
FFF8
FFF8
2108
3FF8
3FFA
0492
FCFE
F87C
0000
ENDCHAR
STARTCHAR 51A5
ENCODING 20901
SWIDTH 960 0
DWIDTH 16 0
BBX 15 16 0 -2
BITMAP
0000
7FFC
7FFC
4004
0FE0
0FE0
0820
0FE0
0FE0
0100
FFFE
FFFE
0440
7C7C
783C
0000
ENDCHAR
STARTCHAR 51A6
ENCODING 20902
SWIDTH 960 0
DWIDTH 16 0
BBX 15 16 0 -2
BITMAP
0000
7FFC
7FFC
4044
3C78
3C78
0040
FFFC
FFFC
2888
2870
2878
49CA
CFFE
87FC
0000
ENDCHAR
STARTCHAR 51A8
ENCODING 20904
SWIDTH 960 0
DWIDTH 16 0
BBX 15 16 0 -2
BITMAP
0000
7FFC
7FFC
4004
1FF0
1FF0
0820
0FE0
0FE0
0000
1FF0
1FF0
1110
1FF0
1FF0
0000
ENDCHAR
STARTCHAR 51A9
ENCODING 20905
SWIDTH 960 0
DWIDTH 16 0
BBX 15 16 0 -2
BITMAP
0000
7FFC
7FFC
4104
5FE4
1EE0
1020
1FE0
1FE0
1000
3FFC
FFFC
D544
37FC
22B8
0000
ENDCHAR
STARTCHAR 51AA
ENCODING 20906
SWIDTH 960 0
DWIDTH 16 0
BBX 15 16 0 -2
BITMAP
0000
7FFC
7FFC
4444
1FF0
1FF0
1010
FFFE
FFFE
0920
3FF8
FFFE
D116
1170
1160
0000
ENDCHAR
STARTCHAR 51AB
ENCODING 20907
SWIDTH 960 0
DWIDTH 16 0
BBX 15 16 0 -2
BITMAP
0200
0300
0100
0100
0000
0040
0040
0080
0080
0100
0100
0300
0200
0600
0400
0000
ENDCHAR
STARTCHAR 51AC
ENCODING 20908
SWIDTH 960 0
DWIDTH 16 0
BBX 15 16 0 -2
BITMAP
0400
07F0
0FF0
1820
7460
66C0
0380
07C0
1C70
FBBE
E3CE
0040
0F80
0FE0
0060
0000
ENDCHAR
STARTCHAR 51B0
ENCODING 20912
SWIDTH 960 0
DWIDTH 16 0
BBX 15 16 0 -2
BITMAP
4080
6080
2080
208C
0E8C
1ED8
12D0
12A0
22A0
2490
2C98
788E
5086
C780
8700
0000
ENDCHAR
STARTCHAR 51B1
ENCODING 20913
SWIDTH 960 0
DWIDTH 16 0
BBX 15 16 0 -2
BITMAP
4000
6FFC
2FFC
2100
0100
09F0
0BF0
1210
1210
23F0
23F0
6010
4010
DFFE
9FFE
0000
ENDCHAR
STARTCHAR 51B2
ENCODING 20914
SWIDTH 960 0
DWIDTH 16 0
BBX 15 16 0 -2
BITMAP
4040
6040
2040
27FC
07FC
0444
1444
1444
17FC
27FC
2040
6040
4040
C040
8040
0000
ENDCHAR
STARTCHAR 51B3
ENCODING 20915
SWIDTH 960 0
DWIDTH 16 0
BBX 15 16 0 -2
BITMAP
4080
6080
27F0
27F0
0090
0090
1090
1FFE
1FFE
2140
2140
6220
4630
DC1E
980E
0000
ENDCHAR
STARTCHAR 51B4
ENCODING 20916
SWIDTH 960 0
DWIDTH 16 0
BBX 15 16 0 -2
BITMAP
4000
67FC
27FC
2110
0110
0110
2FFE
2FFE
2050
6090
4190
4710
5E10
D8F0
80E0
0000
ENDCHAR
STARTCHAR 51B5
ENCODING 20917
SWIDTH 960 0
DWIDTH 16 0
BBX 15 16 0 -2
BITMAP
4000
63F8
23F8
2208
0208
0208
13F8
13F8
1120
2120
2120
6222
4622
DC3E
981C
0000
ENDCHAR
STARTCHAR 51B6
ENCODING 20918
SWIDTH 960 0
DWIDTH 16 0
BBX 15 16 0 -2
BITMAP
4080
6080
2080
2110
0118
0FFC
1FEC
1000
1000
23F0
23F0
6210
4210
C3F0
83F0
0000
ENDCHAR
STARTCHAR 51B7
ENCODING 20919
SWIDTH 960 0
DWIDTH 16 0
BBX 15 16 0 -2
BITMAP
4080
61C0
2160
2330
0618
1DEE
19E6
2000
2FF8
2FF8
6088
4088
40B8
C0B0
8080
0000
ENDCHAR
STARTCHAR 51BD
ENCODING 20925
SWIDTH 960 0
DWIDTH 16 0
BBX 15 16 0 -2
BITMAP
4004
6FE4
2FF4
2414
0794
0794
2494
2E94
2B94
3914
5114
4204
4604
DC3C
9838
0000
ENDCHAR
STARTCHAR 51C4
ENCODING 20932
SWIDTH 960 0
DWIDTH 16 0
BBX 15 16 0 -2
BITMAP
4080
6FFC
2FFC
2080
07F0
07F0
0090
5FFE
5FFE
4110
5FFE
5FFE
C330
9FFC
9F1C
0000
ENDCHAR
STARTCHAR 51C5
ENCODING 20933
SWIDTH 960 0
DWIDTH 16 0
BBX 15 16 0 -2
BITMAP
4000
67FC
27FC
2444
05F4
15F4
1444
15F4
25F4
2514
65F4
45F4
4404
C7FC
87FC
0000
ENDCHAR
STARTCHAR 51C6
ENCODING 20934
SWIDTH 960 0
DWIDTH 16 0
BBX 15 16 0 -2
BITMAP
4100
6120
2220
23FC
07FC
0E40
0BFC
23FC
2240
23FC
63FC
4240
4240
C3FE
83FE
0000
ENDCHAR
STARTCHAR 51C9
ENCODING 20937
SWIDTH 960 0
DWIDTH 16 0
BBX 15 16 0 -2
BITMAP
4080
6080
2FFC
2FFC
0000
17F0
17F0
1410
27F0
27F0
6080
44B0
5CB8
DB8C
8304
0000
ENDCHAR
STARTCHAR 51CB
ENCODING 20939
SWIDTH 960 0
DWIDTH 16 0
BBX 15 16 0 -2
BITMAP
4000
67FC
27FC
2444
05F4
05F4
1444
15F4
15F4
2404
25F4
65F4
4D14
D9FC
91FC
0000
ENDCHAR
STARTCHAR 51CC
ENCODING 20940
SWIDTH 960 0
DWIDTH 16 0
BBX 15 16 0 -2
BITMAP
4040
67FC
27FC
2040
0FFE
0FFE
2120
2F3E
2E9E
21F0
67F0
4710
40E0
CFFE
8F1E
0000
ENDCHAR
STARTCHAR 51CD
ENCODING 20941
SWIDTH 960 0
DWIDTH 16 0
BBX 15 16 0 -2
BITMAP
0080
9FFE
DFFE
4080
47F8
07F8
1488
17F8
17F8
2488
27F8
67F8
42A0
DEBE
9C9E
0000
ENDCHAR
STARTCHAR 51D6
ENCODING 20950
SWIDTH 960 0
DWIDTH 16 0
BBX 15 16 0 -2
BITMAP
4220
6220
27F8
0FF8
1C40
17F8
37F8
2440
67FC
47FC
0100
FFFE
FFFE
0100
0100
0000
ENDCHAR
STARTCHAR 51DB
ENCODING 20955
SWIDTH 960 0
DWIDTH 16 0
BBX 15 16 0 -2
BITMAP
4040
6FFE
2FFE
2514
05F4
05F4
1404
17FC
17FC
2000
2FFE
6FFE
4450
DDDE
998E
0000
ENDCHAR
STARTCHAR 51DC
ENCODING 20956
SWIDTH 960 0
DWIDTH 16 0
BBX 15 16 0 -2
BITMAP
0040
8FFE
CFFE
6000
27FC
07FC
1514
17FC
17FC
20E0
2FFE
6FFE
4150
CF5E
8E4E
0000
ENDCHAR
STARTCHAR 51DD
ENCODING 20957
SWIDTH 960 0
DWIDTH 16 0
BBX 15 16 0 -2
BITMAP
4B00
6F7E
2C7E
2FA4
0798
047E
27FE
2FD4
2A50
7FDE
5FDE
4250
C570
9DFE
999E
0000
ENDCHAR
STARTCHAR 51E0
ENCODING 20960
SWIDTH 960 0
DWIDTH 16 0
BBX 15 16 0 -2
BITMAP
0000
0FC0
0FC0
0840
0840
0840
0840
0840
0840
0840
0840
1042
3042
E07E
C03C
0000
ENDCHAR
STARTCHAR 51E1
ENCODING 20961
SWIDTH 960 0
DWIDTH 16 0
BBX 15 16 0 -2
BITMAP
0000
1FC0
1FC0
1040
1840
1C40
1640
1240
1240
1040
1040
1042
2042
E07E
C03C
0000
ENDCHAR
STARTCHAR 51E6
ENCODING 20966
SWIDTH 960 0
DWIDTH 16 0
BBX 15 16 0 -2
BITMAP
2000
2000
3CF0
3CF0
2490
6490
4490
E890
A894
1114
1B1C
2E0C
6700
C3FE
80FE
0000
ENDCHAR
STARTCHAR 51E7
ENCODING 20967
SWIDTH 960 0
DWIDTH 16 0
BBX 15 16 0 -2
BITMAP
0000
3FF8
3FF8
2108
2108
2FE8
2FE8
2928
2928
2928
292A
296E
4964
C106
8102
0000
ENDCHAR
STARTCHAR 51E9
ENCODING 20969
SWIDTH 960 0
DWIDTH 16 0
BBX 15 16 0 -2
BITMAP
0000
3FF8
3FF8
2108
2108
2FE8
2FE8
2108
2388
2388
2548
2D6A
492A
C10E
8106
0000
ENDCHAR
STARTCHAR 51EA
ENCODING 20970
SWIDTH 960 0
DWIDTH 16 0
BBX 15 16 0 -2
BITMAP
0000
3FF0
3FF0
2110
2110
2510
25D0
25D0
2510
2510
2512
5FEA
5FEA
C00E
8006
0000
ENDCHAR
STARTCHAR 51ED
ENCODING 20973
SWIDTH 960 0
DWIDTH 16 0
BBX 15 16 0 -2
BITMAP
080C
0BFC
13F0
3020
F7FE
D7FE
1020
11FC
0FFC
0FC0
0840
0842
1842
F07E
E03C
0000
ENDCHAR
STARTCHAR 51F0
ENCODING 20976
SWIDTH 960 0
DWIDTH 16 0
BBX 15 16 0 -2
BITMAP
0000
3FF8
3FF8
2108
27C8
27C8
2448
27C8
27C8
2108
2FE8
2FEA
410A
DFFE
9FF6
0000
ENDCHAR
STARTCHAR 51F1
ENCODING 20977
SWIDTH 960 0
DWIDTH 16 0
BBX 15 16 0 -2
BITMAP
5200
7EF0
7EF0
0090
FE90
FE90
0090
7E90
7E90
4290
7E90
7E92
2592
FF9E
FF0C
0000
ENDCHAR
STARTCHAR 51F5
ENCODING 20981
SWIDTH 960 0
DWIDTH 16 0
BBX 15 16 0 -2
BITMAP
4004
4004
4004
4004
4004
4004
4004
4004
4004
4004
4004
4004
4004
7FFC
7FFC
0000
ENDCHAR
STARTCHAR 51F6
ENCODING 20982
SWIDTH 960 0
DWIDTH 16 0
BBX 15 16 0 -2
BITMAP
0020
4024
4044
4C44
4E84
4384
4184
4344
4664
5C34
5814
4004
4004
7FFC
7FFC
0000
ENDCHAR
STARTCHAR 51F8
ENCODING 20984
SWIDTH 960 0
DWIDTH 16 0
BBX 15 16 0 -2
BITMAP
0000
07C0
07C0
0440
0440
0440
7C7C
7C7C
4004
4004
4004
4004
4004
7FFC
7FFC
0000
ENDCHAR
STARTCHAR 51F9
ENCODING 20985
SWIDTH 960 0
DWIDTH 16 0
BBX 15 16 0 -2
BITMAP
0000
7C7C
7C7C
4444
4444
4444
4444
4444
47C4
47C4
4004
4004
4004
7FFC
7FFC
0000
ENDCHAR
STARTCHAR 51FA
ENCODING 20986
SWIDTH 960 0
DWIDTH 16 0
BBX 15 16 0 -2
BITMAP
0100
2108
2108
2108
2108
3FF8
3FF8
0100
0100
4104
4104
4104
4104
7FFC
7FFC
0000
ENDCHAR
STARTCHAR 51FD
ENCODING 20989
SWIDTH 960 0
DWIDTH 16 0
BBX 15 16 0 -2
BITMAP
0000
FFFE
FFFE
0200
4794
57B4
58A4
4DC4
47E4
5EB4
5894
4394
4304
7FFC
7FFC
0000
ENDCHAR
STARTCHAR 51FE
ENCODING 20990
SWIDTH 960 0
DWIDTH 16 0
BBX 15 16 0 -2
BITMAP
0000
3FF0
3FF0
00C0
4184
5DF4
5DF4
5594
5564
5D74
5DDC
478C
4604
7FFC
7FFC
0000
ENDCHAR
STARTCHAR 5200
ENCODING 20992
SWIDTH 960 0
DWIDTH 16 0
BBX 15 16 0 -2
BITMAP
0000
FFFC
FFFC
0204
0204
0204
0204
0204
0204
0404
0404
080C
1808
F078
E070
0000
ENDCHAR
STARTCHAR 5203
ENCODING 20995
SWIDTH 960 0
DWIDTH 16 0
BBX 15 16 0 -2
BITMAP
0000
FFFC
FFFC
0104
1904
1D04
0704
0304
0184
02C4
0644
0C08
3818
F0F0
C0E0
0000
ENDCHAR
STARTCHAR 5204
ENCODING 20996
SWIDTH 960 0
DWIDTH 16 0
BBX 15 16 0 -2
BITMAP
0000
0000
7FF8
7FF8
1108
1908
0D08
0608
0308
0388
04F0
0C7E
182E
F1E0
E1C0
0000
ENDCHAR
STARTCHAR 5206
ENCODING 20998
SWIDTH 960 0
DWIDTH 16 0
BBX 15 16 0 -2
BITMAP
0480
0480
0440
0860
1830
3018
E00E
DFF6
1FF0
0210
0210
0410
0C20
38E0
30C0
0000
ENDCHAR
STARTCHAR 5207
ENCODING 20999
SWIDTH 960 0
DWIDTH 16 0
BBX 15 16 0 -2
BITMAP
2000
2000
23FC
23FC
3C44
FC44
E044
2044
2484
2484
3D84
1D0C
0308
0E78
0C70
0000
ENDCHAR
STARTCHAR 5208
ENCODING 21000
SWIDTH 960 0
DWIDTH 16 0
BBX 15 16 0 -2
BITMAP
0204
0224
0224
0224
6224
7424
1C24
0C24
0E24
1B24
1104
3184
6084
C03C
8038
0000
ENDCHAR
STARTCHAR 520A
ENCODING 21002
SWIDTH 960 0
DWIDTH 16 0
BBX 15 16 0 -2
BITMAP
0004
7F24
7F24
0824
0824
0824
FFA4
FFA4
0824
0824
0824
0804
0804
083C
0838
0000
ENDCHAR
STARTCHAR 520B
ENCODING 21003
SWIDTH 960 0
DWIDTH 16 0
BBX 15 16 0 -2
BITMAP
0104
0724
7E24
7824
0824
0824
FFA4
FFA4
0824
0824
0824
1004
3004
E03C
C038
0000
ENDCHAR
STARTCHAR 520E
ENCODING 21006
SWIDTH 960 0
DWIDTH 16 0
BBX 15 16 0 -2
BITMAP
1004
1024
2024
3FA4
7FA4
D4A4
94A4
24A4
E4A4
C8A4
1924
7104
6204
1E3C
1C38
0000
ENDCHAR
STARTCHAR 5211
ENCODING 21009
SWIDTH 960 0
DWIDTH 16 0
BBX 15 16 0 -2
BITMAP
0004
7FA4
7FA4
1224
1224
1224
FFA4
FFA4
1224
1224
1224
1204
2204
E23C
C238
0000
ENDCHAR
STARTCHAR 5214
ENCODING 21012
SWIDTH 960 0
DWIDTH 16 0
BBX 15 16 0 -2
BITMAP
0804
0824
0824
7F24
7F24
0924
0924
FFA4
FFA4
0824
1424
1604
2304
E33C
C038
0000
ENDCHAR
STARTCHAR 5217
ENCODING 21015
SWIDTH 960 0
DWIDTH 16 0
BBX 15 16 0 -2
BITMAP
0004
FF84
FFA4
1024
1024
1F24
3F24
2124
7A24
DE24
8404
0C04
3804
F03C
C038
0000
ENDCHAR
STARTCHAR 521D
ENCODING 21021
SWIDTH 960 0
DWIDTH 16 0
BBX 15 16 0 -2
BITMAP
1000
1000
13FC
FFFC
FC44
0844
0A44
1644
3C44
F844
DC84
1488
1188
1778
1670
0000
ENDCHAR
STARTCHAR 5224
ENCODING 21028
SWIDTH 960 0
DWIDTH 16 0
BBX 15 16 0 -2
BITMAP
0804
4924
6B24
2A24
0824
7F24
7F24
0824
0824
FFA4
FFA4
0804
0804
083C
0838
0000
ENDCHAR
STARTCHAR 5225
ENCODING 21029
SWIDTH 960 0
DWIDTH 16 0
BBX 15 16 0 -2
BITMAP
0004
7F24
7F24
4124
4124
7F24
7F24
1024
1F24
1F24
1124
3104
2204
EE3C
CC38
0000
ENDCHAR
STARTCHAR 5227
ENCODING 21031
SWIDTH 960 0
DWIDTH 16 0
BBX 15 16 0 -2
BITMAP
1000
1000
7EFC
7EFC
1024
1024
FF24
FF24
1024
2444
2644
5E44
FA88
E3B8
0330
0000
ENDCHAR
STARTCHAR 5229
ENCODING 21033
SWIDTH 960 0
DWIDTH 16 0
BBX 15 16 0 -2
BITMAP
0104
0724
7E24
7824
0824
FFA4
FFA4
1C24
1E24
2B24
6924
C804
8804
083C
0838
0000
ENDCHAR
STARTCHAR 522A
ENCODING 21034
SWIDTH 960 0
DWIDTH 16 0
BBX 15 16 0 -2
BITMAP
0004
7F24
7F24
5524
5524
5524
FFA4
FFA4
5524
5524
5524
5504
5504
573C
4638
0000
ENDCHAR
STARTCHAR 522E
ENCODING 21038
SWIDTH 960 0
DWIDTH 16 0
BBX 15 16 0 -2
BITMAP
0104
0724
7E24
7824
0824
FFA4
FFA4
0824
0824
7F24
7F24
4104
4104
7F3C
7F38
0000
ENDCHAR
STARTCHAR 5230
ENCODING 21040
SWIDTH 960 0
DWIDTH 16 0
BBX 15 16 0 -2
BITMAP
0004
FFA4
FFA4
2424
4624
FF24
F924
1024
FF24
FF24
1024
1004
1F04
FF3C
F038
0000
ENDCHAR
STARTCHAR 5233
ENCODING 21043
SWIDTH 960 0
DWIDTH 16 0
BBX 15 16 0 -2
BITMAP
0804
FFA4
FFA4
2224
7F24
DDA4
80A4
7F24
7F24
1024
3F24
3F04
0104
1F3C
1E38
0000
ENDCHAR
STARTCHAR 5236
ENCODING 21046
SWIDTH 960 0
DWIDTH 16 0
BBX 15 16 0 -2
BITMAP
0804
4824
7F24
7F24
C824
FFA4
FFA4
0824
7F24
7F24
4924
4904
4B04
4B3C
0838
0000
ENDCHAR
STARTCHAR 5237
ENCODING 21047
SWIDTH 960 0
DWIDTH 16 0
BBX 15 16 0 -2
BITMAP
0004
7FA4
7FA4
40A4
7FA4
7FA4
4424
5FA4
5FA4
54A4
54A4
5484
5784
D73C
8438
0000
ENDCHAR
STARTCHAR 5238
ENCODING 21048
SWIDTH 960 0
DWIDTH 16 0
BBX 15 16 0 -2
BITMAP
0920
0D60
3FF8
3FF8
0100
FFFE
FFFE
0440
1830
FFFE
EFEE
0220
0620
3DE0
39C0
0000
ENDCHAR
STARTCHAR 5239
ENCODING 21049
SWIDTH 960 0
DWIDTH 16 0
BBX 15 16 0 -2
BITMAP
0204
6624
7C24
1C24
3624
E324
C924
0824
FFA4
FFA4
1C24
2A04
EB04
C93C
0838
0000
ENDCHAR
STARTCHAR 523A
ENCODING 21050
SWIDTH 960 0
DWIDTH 16 0
BBX 15 16 0 -2
BITMAP
0804
0824
FFA4
FFA4
0824
7F24
7F24
4924
4B24
4B24
1C24
3E04
EB04
C93C
0838
0000
ENDCHAR
STARTCHAR 523B
ENCODING 21051
SWIDTH 960 0
DWIDTH 16 0
BBX 15 16 0 -2
BITMAP
0804
0824
FFA4
FFA4
1A24
5224
6424
3D24
1924
3224
E624
CE04
3B04
F1BC
C1B8
0000
ENDCHAR
STARTCHAR 5243
ENCODING 21059
SWIDTH 960 0
DWIDTH 16 0
BBX 15 16 0 -2
BITMAP
2204
3624
FF24
FF24
0924
7F24
7F24
4824
FFA4
FFA4
18A4
2884
EB84
CB3C
0838
0000
ENDCHAR
STARTCHAR 5244
ENCODING 21060
SWIDTH 960 0
DWIDTH 16 0
BBX 15 16 0 -2
BITMAP
0004
FFA4
FFA4
24A4
6DA4
DB24
6DA4
24A4
FFA4
FFA4
0824
0804
0F84
FFBC
F838
0000
ENDCHAR
STARTCHAR 5247
ENCODING 21063
SWIDTH 960 0
DWIDTH 16 0
BBX 15 16 0 -2
BITMAP
0004
3E24
3E24
2224
3E24
3E24
2224
3E24
3E24
2224
3E24
3E04
1404
773C
6338
0000
ENDCHAR
STARTCHAR 524A
ENCODING 21066
SWIDTH 960 0
DWIDTH 16 0
BBX 15 16 0 -2
BITMAP
4904
6B24
2A24
0824
7F24
7F24
4124
7F24
7F24
4124
7F24
7F04
4104
4F3C
4E38
0000
ENDCHAR
STARTCHAR 524B
ENCODING 21067
SWIDTH 960 0
DWIDTH 16 0
BBX 15 16 0 -2
BITMAP
1008
1048
FF48
FF48
1048
7E48
7E48
4248
7E48
7E08
2878
2872
4802
CFFE
87FC
0000
ENDCHAR
STARTCHAR 524C
ENCODING 21068
SWIDTH 960 0
DWIDTH 16 0
BBX 15 16 0 -2
BITMAP
0804
0824
FFA4
FFA4
0824
7F24
7F24
4924
7F24
7F24
1C24
2A04
EB04
C93C
0838
0000
ENDCHAR
STARTCHAR 524D
ENCODING 21069
SWIDTH 960 0
DWIDTH 16 0
BBX 15 16 0 -2
BITMAP
0820
FFFE
FFFE
0000
3E08
3E48
2248
3E48
3E48
2248
3E48
3E08
2208
2E78
2C70
0000
ENDCHAR
STARTCHAR 524F
ENCODING 21071
SWIDTH 960 0
DWIDTH 16 0
BBX 15 16 0 -2
BITMAP
4400
6C00
29F8
FFF8
FF28
24A8
24A8
FFE8
FF48
2468
24B8
249E
4516
C770
8660
0000
ENDCHAR
STARTCHAR 5254
ENCODING 21076
SWIDTH 960 0
DWIDTH 16 0
BBX 15 16 0 -2
BITMAP
0004
3F24
3F24
2124
3F24
3F24
1024
3FA4
FFA4
DAA4
76A4
6C84
1904
773C
6638
0000
ENDCHAR
STARTCHAR 5256
ENCODING 21078
SWIDTH 960 0
DWIDTH 16 0
BBX 15 16 0 -2
BITMAP
0804
0824
7F24
7F24
2624
3424
FFA4
FFA4
0024
3E24
3E24
2204
2204
3E3C
3E38
0000
ENDCHAR
STARTCHAR 525B
ENCODING 21083
SWIDTH 960 0
DWIDTH 16 0
BBX 15 16 0 -2
BITMAP
0004
FF84
FFA4
A2A4
94A4
FFA4
FFA4
88A4
AAA4
AAA4
AAA4
BE84
BE84
83BC
8338
0000
ENDCHAR
STARTCHAR 525E
ENCODING 21086
SWIDTH 960 0
DWIDTH 16 0
BBX 15 16 0 -2
BITMAP
0804
0824
FFA4
FFA4
1424
2224
FFA4
FFA4
0124
7924
7924
4904
7904
7F3C
0638
0000
ENDCHAR
STARTCHAR 5263
ENCODING 21091
SWIDTH 960 0
DWIDTH 16 0
BBX 15 16 0 -2
BITMAP
0804
1C24
3624
FFA4
DDA4
0824
7F24
7F24
4924
7F24
7F24
1404
3604
E33C
C338
0000
ENDCHAR
STARTCHAR 5264
ENCODING 21092
SWIDTH 960 0
DWIDTH 16 0
BBX 15 16 0 -2
BITMAP
0804
FFA4
FFA4
2224
1C24
3E24
E3A4
FFA4
3E24
2224
3E24
3E04
2204
E23C
C238
0000
ENDCHAR
STARTCHAR 5265
ENCODING 21093
SWIDTH 960 0
DWIDTH 16 0
BBX 15 16 0 -2
BITMAP
0004
7C24
7C24
0424
7C24
7C24
0424
FFA4
FFA4
4A24
7C24
3E04
EB04
D93C
1838
0000
ENDCHAR
STARTCHAR 5269
ENCODING 21097
SWIDTH 960 0
DWIDTH 16 0
BBX 15 16 0 -2
BITMAP
0304
7F24
7C24
0824
FFA4
FFA4
2AA4
EBA4
EB24
2AA4
EBA4
FD84
3E04
EBBC
C9B8
0000
ENDCHAR
STARTCHAR 526A
ENCODING 21098
SWIDTH 960 0
DWIDTH 16 0
BBX 15 16 0 -2
BITMAP
0820
FFFE
FFFE
0000
3E48
3E48
2248
3E48
3E38
2230
FFFC
FFFC
0604
7C7C
7878
0000
ENDCHAR
STARTCHAR 526F
ENCODING 21103
SWIDTH 960 0
DWIDTH 16 0
BBX 15 16 0 -2
BITMAP
0004
FF24
FF24
0024
7E24
7E24
4224
FF24
FF24
8924
FF24
FF04
8904
FF3C
FF38
0000
ENDCHAR
STARTCHAR 5270
ENCODING 21104
SWIDTH 960 0
DWIDTH 16 0
BBX 15 16 0 -2
BITMAP
7F04
7F24
0824
FFA4
FFA4
2A24
FFA4
FFA4
2A24
FFA4
FFA4
2A04
2B04
E93C
C938
0000
ENDCHAR
STARTCHAR 5271
ENCODING 21105
SWIDTH 960 0
DWIDTH 16 0
BBX 15 16 0 -2
BITMAP
0800
1C00
36FC
FFFC
DDA4
08A4
7FA4
7F64
4964
7F34
7F5C
144E
36CA
E3B8
C330
0000
ENDCHAR
STARTCHAR 5272
ENCODING 21106
SWIDTH 960 0
DWIDTH 16 0
BBX 15 16 0 -2
BITMAP
0804
FFA4
FFA4
88A4
7F24
7F24
0824
FFA4
FFA4
0024
7F24
7F04
4104
7F3C
7F38
0000
ENDCHAR
STARTCHAR 5273
ENCODING 21107
SWIDTH 960 0
DWIDTH 16 0
BBX 15 16 0 -2
BITMAP
1204
1224
FFA4
FFA4
1224
1C24
1624
3F24
EDA4
C0A4
3F24
3F04
2104
3F3C
3F38
0000
ENDCHAR
STARTCHAR 5274
ENCODING 21108
SWIDTH 960 0
DWIDTH 16 0
BBX 15 16 0 -2
BITMAP
4904
7F24
7F24
0024
FFA4
FFA4
0024
3E24
3E24
2224
3E24
3E04
1584
FFBC
FE38
0000
ENDCHAR
STARTCHAR 5275
ENCODING 21109
SWIDTH 960 0
DWIDTH 16 0
BBX 15 16 0 -2
BITMAP
1804
1C24
3624
6BA4
FFA4
BF24
2124
3F24
3F24
6024
7F24
FF04
A104
3F3C
3F38
0000
ENDCHAR
STARTCHAR 527D
ENCODING 21117
SWIDTH 960 0
DWIDTH 16 0
BBX 15 16 0 -2
BITMAP
0004
FFA4
FFA4
1424
7F24
7F24
5524
7F24
7F24
0024
FFA4
FF84
4A04
DB3C
9938
0000
ENDCHAR
STARTCHAR 527F
ENCODING 21119
SWIDTH 960 0
DWIDTH 16 0
BBX 15 16 0 -2
BITMAP
9104
DB24
7F24
7F24
4924
7F24
7F24
0824
FFA4
FFA4
1C24
2E04
EB04
C93C
0838
0000
ENDCHAR
STARTCHAR 5283
ENCODING 21123
SWIDTH 960 0
DWIDTH 16 0
BBX 15 16 0 -2
BITMAP
0804
7F24
7F24
0924
FFA4
FFA4
0924
FFA4
FFA4
4924
7F24
7F04
0004
FFDC
FFD8
0000
ENDCHAR
STARTCHAR 5287
ENCODING 21127
SWIDTH 960 0
DWIDTH 16 0
BBX 15 16 0 -2
BITMAP
0F04
0F24
0824
7FA4
7FA4
49A4
7F24
7724
4024
7FA4
7FA4
5E84
7B04
EFBC
8CB8
0000
ENDCHAR
STARTCHAR 5288
ENCODING 21128
SWIDTH 960 0
DWIDTH 16 0
BBX 15 16 0 -2
BITMAP
0020
3EFC
3EFC
2248
3FFE
7FFE
E220
BEFC
3EFC
0020
7FFC
7FFC
0604
FC7C
F878
0000
ENDCHAR
STARTCHAR 5289
ENCODING 21129
SWIDTH 960 0
DWIDTH 16 0
BBX 15 16 0 -2
BITMAP
1804
7FA4
77A4
52A4
74A4
FDA4
DF24
3E24
6324
FFA4
FFA4
4A04
2F84
FFBC
F838
0000
ENDCHAR
STARTCHAR 528D
ENCODING 21133
SWIDTH 960 0
DWIDTH 16 0
BBX 15 16 0 -2
BITMAP
0804
1C24
3624
FFA4
DDA4
0024
7BA4
7BA4
4AA4
7BA4
7BA4
1104
3B84
EEDC
CC58
0000
ENDCHAR
STARTCHAR 5291
ENCODING 21137
SWIDTH 960 0
DWIDTH 16 0
BBX 15 16 0 -2
BITMAP
0404
7FD4
7FD4
0A54
F5D4
F594
5554
D5F4
BFB4
3F94
2094
3F84
3F84
E09C
C098
0000
ENDCHAR
STARTCHAR 5292
ENCODING 21138
SWIDTH 960 0
DWIDTH 16 0
BBX 15 16 0 -2
BITMAP
0800
1C00
36FC
FFFC
DD24
00A4
77E4
7764
5524
7734
7754
2254
77C8
DDB8
9930
0000
ENDCHAR
STARTCHAR 5294
ENCODING 21140
SWIDTH 960 0
DWIDTH 16 0
BBX 15 16 0 -2
BITMAP
0800
1C00
36FC
FFFC
DD24
00A4
77A4
7764
5564
7734
773C
222E
7746
DDDC
9998
0000
ENDCHAR
STARTCHAR 529B
ENCODING 21147
SWIDTH 960 0
DWIDTH 16 0
BBX 15 16 0 -2
BITMAP
0100
0100
0100
0100
FFFC
FFFC
0104
0204
0204
0204
0404
0C04
1808
F078
E070
0000
ENDCHAR
STARTCHAR 529F
ENCODING 21151
SWIDTH 960 0
DWIDTH 16 0
BBX 15 16 0 -2
BITMAP
0040
0040
FE40
FE40
13FC
13FC
1044
1044
1644
1E44
F884
E084
0188
0778
0670
0000
ENDCHAR
STARTCHAR 52A0
ENCODING 21152
SWIDTH 960 0
DWIDTH 16 0
BBX 15 16 0 -2
BITMAP
1000
1000
1000
FE7C
FE7C
1244
1244
1244
1244
1244
2244
2644
647C
DC7C
9800
0000
ENDCHAR
STARTCHAR 52A3
ENCODING 21155
SWIDTH 960 0
DWIDTH 16 0
BBX 15 16 0 -2
BITMAP
0100
0930
1938
712C
6366
03C2
FF80
FD00
0100
7FF8
7FF8
0208
0E10
FCF0
F0E0
0000
ENDCHAR
STARTCHAR 52A9
ENCODING 21161
SWIDTH 960 0
DWIDTH 16 0
BBX 15 16 0 -2
BITMAP
0040
0040
7C40
7C40
45FC
7DFC
7C44
4444
7C44
7C44
4444
5E84
FE88
E3B8
0330
0000
ENDCHAR
STARTCHAR 52AA
ENCODING 21162
SWIDTH 960 0
DWIDTH 16 0
BBX 15 16 0 -2
BITMAP
2000
21FC
FFFC
FE88
4458
7C70
39F8
ED8E
C506
3FF8
3FF8
0208
0E08
7C78
7070
0000
ENDCHAR
STARTCHAR 52AB
ENCODING 21163
SWIDTH 960 0
DWIDTH 16 0
BBX 15 16 0 -2
BITMAP
1020
1020
7E20
7FFC
11FC
1024
FF24
FF24
1024
2024
2444
4E44
FEC8
F3B8
0330
0000
ENDCHAR
STARTCHAR 52AC
ENCODING 21164
SWIDTH 960 0
DWIDTH 16 0
BBX 15 16 0 -2
BITMAP
2020
2020
3F20
7F20
C1FC
81FC
7924
7924
4924
4924
7944
7B44
02C8
1FB8
1D30
0000
ENDCHAR
STARTCHAR 52AD
ENCODING 21165
SWIDTH 960 0
DWIDTH 16 0
BBX 15 16 0 -2
BITMAP
0020
FE20
FE20
1220
12FC
22FC
EE24
CC24
0024
7C44
7C44
4444
4488
7FB8
7F30
0000
ENDCHAR
STARTCHAR 52B1
ENCODING 21169
SWIDTH 960 0
DWIDTH 16 0
BBX 15 16 0 -2
BITMAP
0020
3FA0
3FA0
2020
3FFC
3FFC
2824
2F24
2F24
2924
2924
4924
D248
BFF8
2DB0
0000
ENDCHAR
STARTCHAR 52B4
ENCODING 21172
SWIDTH 960 0
DWIDTH 16 0
BBX 15 16 0 -2
BITMAP
2210
3330
7FFC
7FFC
4004
4204
0200
7FF8
7FF8
0208
0208
0408
1C10
F8F0
E0E0
0000
ENDCHAR
STARTCHAR 52B5
ENCODING 21173
SWIDTH 960 0
DWIDTH 16 0
BBX 15 16 0 -2
BITMAP
0920
0D60
3FF8
3FF8
0440
FFFE
FFFE
1A30
3218
FFFE
DFF6
0210
0410
3CF0
38E0
0000
ENDCHAR
STARTCHAR 52B9
ENCODING 21177
SWIDTH 960 0
DWIDTH 16 0
BBX 15 16 0 -2
BITMAP
1040
1040
FE40
FE40
29FC
EFFC
C644
4844
2844
3044
1884
2C84
6D88
C778
8670
0000
ENDCHAR
STARTCHAR 52BC
ENCODING 21180
SWIDTH 960 0
DWIDTH 16 0
BBX 15 16 0 -2
BITMAP
1020
1020
FE20
FE20
11FC
11FC
7C24
7C24
0024
7C44
7C44
4444
4488
7FB8
7F30
0000
ENDCHAR
STARTCHAR 52BE
ENCODING 21182
SWIDTH 960 0
DWIDTH 16 0
BBX 15 16 0 -2
BITMAP
1040
1040
FE40
FE40
11FC
A5FC
E444
4844
3A44
3244
E444
CC84
3988
F778
C670
0000
ENDCHAR
STARTCHAR 52C1
ENCODING 21185
SWIDTH 960 0
DWIDTH 16 0
BBX 15 16 0 -2
BITMAP
0020
FF20
FF20
4920
DBFC
92FC
DB24
4924
FF24
FF24
0844
0844
0FC8
FFB8
F930
0000
ENDCHAR
STARTCHAR 52C3
ENCODING 21187
SWIDTH 960 0
DWIDTH 16 0
BBX 15 16 0 -2
BITMAP
0820
FF20
FF20
08FC
FFFC
FF24
8124
7E24
7E24
0524
FF44
FE44
08C8
3BB8
3330
0000
ENDCHAR
STARTCHAR 52C5
ENCODING 21189
SWIDTH 960 0
DWIDTH 16 0
BBX 15 16 0 -2
BITMAP
0820
FFA0
FFA0
08FC
7FFC
7F24
4924
7F24
7F24
1C24
1E44
2B44
EBC8
C9B8
0930
0000
ENDCHAR
STARTCHAR 52C7
ENCODING 21191
SWIDTH 960 0
DWIDTH 16 0
BBX 15 16 0 -2
BITMAP
0000
3FF8
3FF8
0220
1FF0
1FF0
1110
1FF0
1FF0
1110
7FF8
7FF8
0608
FCF8
F8F0
0000
ENDCHAR
STARTCHAR 52C9
ENCODING 21193
SWIDTH 960 0
DWIDTH 16 0
BBX 15 16 0 -2
BITMAP
2040
3C40
7C40
C9F8
FFF8
FE48
9248
FE48
FE48
2888
2BB8
2B32
4802
CFFE
87FC
0000
ENDCHAR
STARTCHAR 52CD
ENCODING 21197
SWIDTH 960 0
DWIDTH 16 0
BBX 15 16 0 -2
BITMAP
0820
0820
FF20
FF20
00FC
7EFC
7E24
4224
7E24
7E24
2A44
6B44
C9C8
B9B8
3130
0000
ENDCHAR
STARTCHAR 52D2
ENCODING 21202
SWIDTH 960 0
DWIDTH 16 0
BBX 15 16 0 -2
BITMAP
2820
FF20
FF20
2820
39FC
7DFC
7C24
5424
7C24
7C24
1044
FE44
FEC8
13B8
1330
0000
ENDCHAR
STARTCHAR 52D5
ENCODING 21205
SWIDTH 960 0
DWIDTH 16 0
BBX 15 16 0 -2
BITMAP
0320
7F20
7C20
0820
FFFC
FFFC
4924
7F24
7F24
4924
FFA4
FFC4
08C8
FFB8
FF30
0000
ENDCHAR
STARTCHAR 52D7
ENCODING 21207
SWIDTH 960 0
DWIDTH 16 0
BBX 15 16 0 -2
BITMAP
0000
0FF0
0FF0
0810
0FF0
0FF0
0000
3EFC
3EFC
2224
3E24
3E24
2344
FFDC
FD98
0000
ENDCHAR
STARTCHAR 52D8
ENCODING 21208
SWIDTH 960 0
DWIDTH 16 0
BBX 15 16 0 -2
BITMAP
2220
FFA0
FFA0
2220
3EFC
3EFC
2224
FFA4
FFA4
5424
77A4
63A4
4064
7FDC
7F98
0000
ENDCHAR
STARTCHAR 52D9
ENCODING 21209
SWIDTH 960 0
DWIDTH 16 0
BBX 15 16 0 -2
BITMAP
0080
7E80
7EFE
15FE
1B90
FE60
FEF0
1B9E
2F4E
2FF8
6BF8
C848
8888
3BB8
3330
0000
ENDCHAR
STARTCHAR 52DD
ENCODING 21213
SWIDTH 960 0
DWIDTH 16 0
BBX 15 16 0 -2
BITMAP
0148
7958
7BFC
4BFC
4840
7FFE
7FFE
4998
4B4E
7FFE
7DF8
4888
4988
FF78
B670
0000
ENDCHAR
STARTCHAR 52DE
ENCODING 21214
SWIDTH 960 0
DWIDTH 16 0
BBX 15 16 0 -2
BITMAP
0AA0
2BA8
3D78
1450
7FFC
7FFC
4104
4104
3FF0
3FF0
0210
0210
0410
3CF0
38E0
0000
ENDCHAR
STARTCHAR 52DF
ENCODING 21215
SWIDTH 960 0
DWIDTH 16 0
BBX 15 16 0 -2
BITMAP
0440
FFFE
FFFE
0440
0FE0
0FE0
0820
FFFE
FFFE
0A20
3FF8
FFFE
C426
3DE0
39C0
0000
ENDCHAR
STARTCHAR 52E0
ENCODING 21216
SWIDTH 960 0
DWIDTH 16 0
BBX 15 16 0 -2
BITMAP
0020
F7A0
F7A0
54A0
33FC
F7FC
DCA4
3E24
EBA4
D9A4
7244
6644
1C88
7BB8
6330
0000
ENDCHAR
STARTCHAR 52E2
ENCODING 21218
SWIDTH 960 0
DWIDTH 16 0
BBX 15 16 0 -2
BITMAP
1040
FE40
FFF8
29F8
EF48
FEC8
10EC
1FB6
FF16
E102
3FF8
3FF8
0208
3E78
3C70
0000
ENDCHAR
STARTCHAR 52E3
ENCODING 21219
SWIDTH 960 0
DWIDTH 16 0
BBX 15 16 0 -2
BITMAP
0820
7F20
7F20
0820
FFFC
FFFC
0024
7E24
7E24
4224
7E44
7E44
24C8
E7B8
C330
0000
ENDCHAR
STARTCHAR 52E4
ENCODING 21220
SWIDTH 960 0
DWIDTH 16 0
BBX 15 16 0 -2
BITMAP
2420
FF20
FF20
2420
7EFC
7EFC
5224
7E24
7E24
1024
FE44
FE44
10C8
FFB8
FF30
0000
ENDCHAR
STARTCHAR 52E6
ENCODING 21222
SWIDTH 960 0
DWIDTH 16 0
BBX 15 16 0 -2
BITMAP
9120
DB20
7F20
7F20
49FC
7FFC
7F24
0824
FFA4
FFA4
1E24
2B44
E944
C9DC
0998
0000
ENDCHAR
STARTCHAR 52E7
ENCODING 21223
SWIDTH 960 0
DWIDTH 16 0
BBX 15 16 0 -2
BITMAP
2020
3F20
7F20
50FC
FFFC
FF24
2424
7F24
FF24
C824
7F64
7F44
48CC
7FB8
7FB0
0000
ENDCHAR
STARTCHAR 52F2
ENCODING 21234
SWIDTH 960 0
DWIDTH 16 0
BBX 15 16 0 -2
BITMAP
0620
7E20
7820
08FC
FFFC
FFA4
4924
7F24
7F24
0864
FFDC
FF98
2CCC
E666
C666
0000
ENDCHAR
STARTCHAR 52F3
ENCODING 21235
SWIDTH 960 0
DWIDTH 16 0
BBX 15 16 0 -2
BITMAP
0320
7F20
7C20
0820
FFFC
FFFC
4924
7F24
7F24
4924
7F44
FF44
FFC8
DBB8
9230
0000
ENDCHAR
STARTCHAR 52F5
ENCODING 21237
SWIDTH 960 0
DWIDTH 16 0
BBX 15 16 0 -2
BITMAP
0020
7FA0
7FA0
4A20
7FFC
7FFC
4424
5F24
5F24
5524
7FA4
7FA4
E4E4
AFDC
2D98
0000
ENDCHAR
STARTCHAR 52F8
ENCODING 21240
SWIDTH 960 0
DWIDTH 16 0
BBX 15 16 0 -2
BITMAP
2220
FFA0
FFA0
2220
77FC
77FC
5524
7F24
FF24
C824
7E44
7E44
48C8
7FB8
7F30
0000
ENDCHAR
STARTCHAR 52F9
ENCODING 21241
SWIDTH 960 0
DWIDTH 16 0
BBX 15 16 0 -2
BITMAP
1000
1000
1000
3FFC
3FFC
6004
C004
8004
0004
0004
0004
0008
0018
00F0
00E0
0000
ENDCHAR
STARTCHAR 52FA
ENCODING 21242
SWIDTH 960 0
DWIDTH 16 0
BBX 15 16 0 -2
BITMAP
0800
0800
0FFC
1FFC
3004
E004
C804
0C04
0604
0204
000C
0008
0018
00F0
00E0
0000
ENDCHAR
STARTCHAR 52FE
ENCODING 21246
SWIDTH 960 0
DWIDTH 16 0
BBX 15 16 0 -2
BITMAP
0800
0800
0FFC
1FFC
1004
3204
E204
C204
0484
04C4
09E4
3FE4
3E08
0078
0070
0000
ENDCHAR
STARTCHAR 52FF
ENCODING 21247
SWIDTH 960 0
DWIDTH 16 0
BBX 15 16 0 -2
BITMAP
0800
0800
1FFC
1FFC
3244
E244
C444
0CC4
1884
7184
6308
0E08
3C18
30F0
00E0
0000
ENDCHAR
STARTCHAR 5301
ENCODING 21249
SWIDTH 960 0
DWIDTH 16 0
BBX 15 16 0 -2
BITMAP
0800
0800
1FF8
1FF8
3088
E908
CD08
0608
0710
0DD0
38F0
F03E
C06E
03C0
0380
0000
ENDCHAR
STARTCHAR 5302
ENCODING 21250
SWIDTH 960 0
DWIDTH 16 0
BBX 15 16 0 -2
BITMAP
1000
1000
3FFC
3FFC
6004
D004
9184
1F84
1E04
1044
1044
1FC4
0F88
0078
0070
0000
ENDCHAR
STARTCHAR 5305
ENCODING 21253
SWIDTH 960 0
DWIDTH 16 0
BBX 15 16 0 -2
BITMAP
1000
1000
3FF8
3FF8
6008
FF88
BF88
0088
1F88
1F90
10F0
10E2
1002
1FFE
0FFC
0000
ENDCHAR
STARTCHAR 5306
ENCODING 21254
SWIDTH 960 0
DWIDTH 16 0
BBX 15 16 0 -2
BITMAP
1000
1000
3FFC
3FFC
6224
C224
BC44
3F44
1BC4
71C4
6364
0628
3C18
38F0
00E0
0000
ENDCHAR
STARTCHAR 5308
ENCODING 21256
SWIDTH 960 0
DWIDTH 16 0
BBX 15 16 0 -2
BITMAP
1000
1000
3FFC
3FFC
6104
E944
AD44
2644
2F44
3944
3148
3FC8
3FD8
0070
0060
0000
ENDCHAR
STARTCHAR 530D
ENCODING 21261
SWIDTH 960 0
DWIDTH 16 0
BBX 15 16 0 -2
BITMAP
2000
3FFC
3FFC
6444
FFE4
BFE4
0404
3FC4
3FC4
2444
3FC4
3FC4
2448
25F8
25B0
0000
ENDCHAR
STARTCHAR 530F
ENCODING 21263
SWIDTH 960 0
DWIDTH 16 0
BBX 15 16 0 -2
BITMAP
1080
FEF8
FFF8
2908
7FE8
FFE8
8228
7DE8
7DE8
2138
7D30
7D02
0502
3DFE
38FC
0000
ENDCHAR
STARTCHAR 5310
ENCODING 21264
SWIDTH 960 0
DWIDTH 16 0
BBX 15 16 0 -2
BITMAP
1000
1FFC
3FFC
E004
DFE4
1FE4
0004
0F84
0F84
0884
3FE4
3FE4
2228
3FF8
3FF0
0000
ENDCHAR
STARTCHAR 5315
ENCODING 21269
SWIDTH 960 0
DWIDTH 16 0
BBX 15 16 0 -2
BITMAP
1000
1000
1000
1010
1030
10E0
13C0
1F00
7C00
7000
1000
1008
1008
1FF8
0FF0
0000
ENDCHAR
STARTCHAR 5316
ENCODING 21270
SWIDTH 960 0
DWIDTH 16 0
BBX 15 16 0 -2
BITMAP
0900
0900
0900
1104
110C
3138
F1F0
D1C0
1100
1100
1100
1102
1102
11FE
10FC
0000
ENDCHAR
STARTCHAR 5317
ENCODING 21271
SWIDTH 960 0
DWIDTH 16 0
BBX 15 16 0 -2
BITMAP
0480
0480
0480
0480
FC8C
FCFC
04F0
0480
0480
0C80
3C80
F482
C482
04FE
047C
0000
ENDCHAR
STARTCHAR 5319
ENCODING 21273
SWIDTH 960 0
DWIDTH 16 0
BBX 15 16 0 -2
BITMAP
0000
3E40
3E40
2244
3E4C
3E78
2270
FF40
FF44
4844
4F7C
6F38
7800
DFFE
87FE
0000
ENDCHAR
STARTCHAR 531A
ENCODING 21274
SWIDTH 960 0
DWIDTH 16 0
BBX 15 16 0 -2
BITMAP
0000
7FFC
7FFC
4000
4000
4000
4000
4000
4000
4000
4000
4000
4000
7FFE
7FFE
0000
ENDCHAR
STARTCHAR 531D
ENCODING 21277
SWIDTH 960 0
DWIDTH 16 0
BBX 15 16 0 -2
BITMAP
0000
7FFC
7FFC
4100
4100
4FF0
4FF0
4910
4910
4970
4970
4100
4100
7FFE
7FFE
0000
ENDCHAR
STARTCHAR 5320
ENCODING 21280
SWIDTH 960 0
DWIDTH 16 0
BBX 15 16 0 -2
BITMAP
0000
7FFC
7FFC
4030
4FF0
4FC0
4800
4FFC
4FFC
4840
4840
5840
5040
7FFE
7FFE
0000
ENDCHAR
STARTCHAR 5321
ENCODING 21281
SWIDTH 960 0
DWIDTH 16 0
BBX 15 16 0 -2
BITMAP
0000
7FFC
7FFC
4000
4FF0
4FF0
4100
47E0
47E0
4100
5FF8
5FF8
4000
7FFE
7FFE
0000
ENDCHAR
STARTCHAR 5323
ENCODING 21283
SWIDTH 960 0
DWIDTH 16 0
BBX 15 16 0 -2
BITMAP
0000
7FFC
7FFC
4000
4FF0
4FF0
4890
4FF0
4FF0
4890
4FF0
4FF0
4080
7FFE
7FFE
0000
ENDCHAR
STARTCHAR 532A
ENCODING 21290
SWIDTH 960 0
DWIDTH 16 0
BBX 15 16 0 -2
BITMAP
0000
7FFC
7FFC
4240
5E7C
5E7C
4240
4678
5E78
5A40
467C
5C7C
5840
7FFE
7FFE
0000
ENDCHAR
STARTCHAR 532F
ENCODING 21295
SWIDTH 960 0
DWIDTH 16 0
BBX 15 16 0 -2
BITMAP
0000
7FFC
7FFC
48A0
4DF8
57F8
5B20
49F8
45F8
4520
49FC
59FC
5000
7FFE
7FFE
0000
ENDCHAR
STARTCHAR 5331
ENCODING 21297
SWIDTH 960 0
DWIDTH 16 0
BBX 15 16 0 -2
BITMAP
0000
7FFC
7FFC
4080
47F0
47F0
4490
7FFE
7FFE
4410
47F0
47F0
4220
7FFE
7FFE
0000
ENDCHAR
STARTCHAR 5333
ENCODING 21299
SWIDTH 960 0
DWIDTH 16 0
BBX 15 16 0 -2
BITMAP
0000
7FFC
7FFC
4360
4630
5FFC
5FFC
4948
4F78
4F78
4420
4E70
4B58
7FFE
7FFE
0000
ENDCHAR
STARTCHAR 5338
ENCODING 21304
SWIDTH 960 0
DWIDTH 16 0
BBX 15 16 0 -2
BITMAP
0000
0000
FFFE
FFFE
2000
2000
2000
2000
2000
2000
2000
2000
2000
3FFE
1FFE
0000
ENDCHAR
STARTCHAR 5339
ENCODING 21305
SWIDTH 960 0
DWIDTH 16 0
BBX 15 16 0 -2
BITMAP
0000
0000
7FFC
7FFC
4480
4480
4480
4488
4888
58F8
7070
6000
4000
7FFE
7FFE
0000
ENDCHAR
STARTCHAR 533A
ENCODING 21306
SWIDTH 960 0
DWIDTH 16 0
BBX 15 16 0 -2
BITMAP
0000
7FFC
7FFC
4010
4C10
4E20
4360
41C0
41C0
4360
5E30
5C30
4000
7FFE
7FFE
0000
ENDCHAR
STARTCHAR 533B
ENCODING 21307
SWIDTH 960 0
DWIDTH 16 0
BBX 15 16 0 -2
BITMAP
0000
7FFC
7FFC
4400
47F0
4FF0
5880
5FF8
5FF8
4360
5E3C
5C1C
4000
7FFE
7FFE
0000
ENDCHAR
STARTCHAR 533F
ENCODING 21311
SWIDTH 960 0
DWIDTH 16 0
BBX 15 16 0 -2
BITMAP
0000
7FFC
7FFC
4240
5FF8
5FF8
4240
7FFC
7FFC
4C20
7FE0
77E0
4000
7FFE
7FFE
0000
ENDCHAR
STARTCHAR 5340
ENCODING 21312
SWIDTH 960 0
DWIDTH 16 0
BBX 15 16 0 -2
BITMAP
0000
7FFC
7FFC
4220
43E0
43E0
4000
5F7C
5F7C
5144
5F7C
5F7C
4000
7FFE
7FFE
0000
ENDCHAR
STARTCHAR 5341
ENCODING 21313
SWIDTH 960 0
DWIDTH 16 0
BBX 15 16 0 -2
BITMAP
0100
0100
0100
0100
0100
0100
FFFE
FFFE
0100
0100
0100
0100
0100
0100
0100
0000
ENDCHAR
STARTCHAR 5343
ENCODING 21315
SWIDTH 960 0
DWIDTH 16 0
BBX 15 16 0 -2
BITMAP
0018
00F8
3FE0
3F00
0100
0100
0100
FFFE
FFFE
0100
0100
0100
0100
0100
0100
0000
ENDCHAR
STARTCHAR 5345
ENCODING 21317
SWIDTH 960 0
DWIDTH 16 0
BBX 15 16 0 -2
BITMAP
1110
1110
1110
1110
1110
FFFE
FFFE
1110
1110
1110
1110
1110
2110
E110
C110
0000
ENDCHAR
STARTCHAR 5346
ENCODING 21318
SWIDTH 960 0
DWIDTH 16 0
BBX 15 16 0 -2
BITMAP
0200
0200
7FC0
7FC0
0440
0C44
1844
F07C
E138
0100
FFFE
FFFE
0100
0100
0100
0000
ENDCHAR
STARTCHAR 5347
ENCODING 21319
SWIDTH 960 0
DWIDTH 16 0
BBX 15 16 0 -2
BITMAP
01A0
07A0
7E20
7C20
0420
0420
FFFE
FFFE
0420
0420
0420
0820
1820
7020
6020
0000
ENDCHAR
STARTCHAR 5348
ENCODING 21320
SWIDTH 960 0
DWIDTH 16 0
BBX 15 16 0 -2
BITMAP
0800
0800
0FF8
1FF8
7100
6100
0100
FFFE
FFFE
0100
0100
0100
0100
0100
0100
0000
ENDCHAR
STARTCHAR 5349
ENCODING 21321
SWIDTH 960 0
DWIDTH 16 0
BBX 15 16 0 -2
BITMAP
0100
0100
7FFC
7FFC
0100
0920
0920
0820
FFFE
FFFE
0820
0820
1020
7020
6020
0000
ENDCHAR
STARTCHAR 534A
ENCODING 21322
SWIDTH 960 0
DWIDTH 16 0
BBX 15 16 0 -2
BITMAP
1110
1910
0930
0920
0100
3FF8
3FF8
0100
0100
FFFE
FFFE
0100
0100
0100
0100
0000
ENDCHAR
STARTCHAR 534D
ENCODING 21325
SWIDTH 960 0
DWIDTH 16 0
BBX 15 16 0 -2
BITMAP
0000
FF04
FF04
0104
0104
0104
0104
7FFC
7FFC
4100
4100
4100
4100
41FE
41FE
0000
ENDCHAR
STARTCHAR 5351
ENCODING 21329
SWIDTH 960 0
DWIDTH 16 0
BBX 15 16 0 -2
BITMAP
0200
1FF0
1FF0
1110
1FF0
1FF0
1110
1FF0
1FF0
0880
1080
FFFE
FFFE
0080
0080
0000
ENDCHAR
STARTCHAR 5352
ENCODING 21330
SWIDTH 960 0
DWIDTH 16 0
BBX 15 16 0 -2
BITMAP
0100
7FFC
7FFC
0820
0820
1450
36D8
2288
FFFE
FFFE
0100
0100
0100
0100
0100
0000
ENDCHAR
STARTCHAR 5353
ENCODING 21331
SWIDTH 960 0
DWIDTH 16 0
BBX 15 16 0 -2
BITMAP
0100
01FC
01FC
0100
1FF0
1FF0
1010
1FF0
1FF0
1010
1FF0
FFFE
FFFE
0100
0100
0000
ENDCHAR
STARTCHAR 5354
ENCODING 21332
SWIDTH 960 0
DWIDTH 16 0
BBX 15 16 0 -2
BITMAP
2080
2080
27F0
FFF0
F890
2110
2770
2660
3FFC
3FFC
24A4
24A4
2CA4
3BFC
3358
0000
ENDCHAR
STARTCHAR 5357
ENCODING 21335
SWIDTH 960 0
DWIDTH 16 0
BBX 15 16 0 -2
BITMAP
0100
FFFE
FFFE
0100
3FF8
3FF8
2448
2FE8
2FE8
2108
2FE8
2FE8
2108
2138
2130
0000
ENDCHAR
STARTCHAR 5358
ENCODING 21336
SWIDTH 960 0
DWIDTH 16 0
BBX 15 16 0 -2
BITMAP
2210
3330
1FF0
1FF0
1110
1FF0
1FF0
1110
1FF0
1FF0
0100
FFFE
FFFE
0100
0100
0000
ENDCHAR
STARTCHAR 535A
ENCODING 21338
SWIDTH 960 0
DWIDTH 16 0
BBX 15 16 0 -2
BITMAP
2048
27FE
27FE
2040
FBF8
FBF8
2248
23F8
23F8
2010
2FFE
2FFE
2210
2370
2160
0000
ENDCHAR
STARTCHAR 535C
ENCODING 21340
SWIDTH 960 0
DWIDTH 16 0
BBX 15 16 0 -2
BITMAP
0100
0100
0100
0100
0100
01C0
01F0
0138
0108
0100
0100
0100
0100
0100
0100
0000
ENDCHAR
STARTCHAR 535E
ENCODING 21342
SWIDTH 960 0
DWIDTH 16 0
BBX 15 16 0 -2
BITMAP
0100
0100
0100
FFFE
FFFE
0100
0100
01C0
01F0
0138
0108
0100
0100
0100
0100
0000
ENDCHAR
STARTCHAR 5360
ENCODING 21344
SWIDTH 960 0
DWIDTH 16 0
BBX 15 16 0 -2
BITMAP
0100
0100
0100
01FC
01FC
0100
0100
0100
1FF0
1FF0
1010
1010
1010
1FF0
1FF0
0000
ENDCHAR
STARTCHAR 5366
ENCODING 21350
SWIDTH 960 0
DWIDTH 16 0
BBX 15 16 0 -2
BITMAP
0820
0820
7F20
7F20
0820
FFB8
FFBC
0826
0822
7F20
7F20
0820
0FA0
FFA0
F820
0000
ENDCHAR
STARTCHAR 5369
ENCODING 21353
SWIDTH 960 0
DWIDTH 16 0
BBX 15 16 0 -2
BITMAP
0000
0000
07E0
07E0
0420
0420
0420
0420
0420
0420
05E0
05C0
0400
0400
0400
0000
ENDCHAR
STARTCHAR 536E
ENCODING 21358
SWIDTH 960 0
DWIDTH 16 0
BBX 15 16 0 -2
BITMAP
0038
3FF8
3FC0
2000
3FFE
3FFE
2000
27F0
27F0
2410
24F0
44E4
C404
87FC
03F8
0000
ENDCHAR
STARTCHAR 536F
ENCODING 21359
SWIDTH 960 0
DWIDTH 16 0
BBX 15 16 0 -2
BITMAP
0300
3F7C
3C7C
2244
2244
2244
2244
2244
2E44
FE44
F27C
0478
0C40
7840
7040
0000
ENDCHAR
STARTCHAR 5370
ENCODING 21360
SWIDTH 960 0
DWIDTH 16 0
BBX 15 16 0 -2
BITMAP
0100
0700
7EFC
78FC
4084
4084
7E84
7E84
4084
4084
4084
7EBC
7EB8
4080
0080
0000
ENDCHAR
STARTCHAR 5371
ENCODING 21361
SWIDTH 960 0
DWIDTH 16 0
BBX 15 16 0 -2
BITMAP
0800
0FC0
1FC0
1080
3FFC
FFFC
E000
27E0
27E0
2420
24E0
64E4
4404
C7FC
83F8
0000
ENDCHAR
STARTCHAR 5373
ENCODING 21363
SWIDTH 960 0
DWIDTH 16 0
BBX 15 16 0 -2
BITMAP
0000
3E7C
3E7C
2244
3E44
3E44
2244
3E44
3E44
2844
245C
2658
2F40
FF40
F140
0000
ENDCHAR
STARTCHAR 5374
ENCODING 21364
SWIDTH 960 0
DWIDTH 16 0
BBX 15 16 0 -2
BITMAP
0800
087C
7F7C
7F44
0844
0844
FFC4
FFC4
1444
1644
225C
2F58
FF40
F140
0040
0000
ENDCHAR
STARTCHAR 5375
ENCODING 21365
SWIDTH 960 0
DWIDTH 16 0
BBX 15 16 0 -2
BITMAP
0080
0380
3F7C
3E7C
2244
3264
3A74
2A54
2254
2E44
FE44
F25C
0458
3C40
3840
0000
ENDCHAR
STARTCHAR 5377
ENCODING 21367
SWIDTH 960 0
DWIDTH 16 0
BBX 15 16 0 -2
BITMAP
0920
0D60
3FF8
3FF8
0280
FFFE
FFFE
1830
3FD8
EFCE
C846
09D0
0990
0FF0
07E0
0000
ENDCHAR
STARTCHAR 5378
ENCODING 21368
SWIDTH 960 0
DWIDTH 16 0
BBX 15 16 0 -2
BITMAP
4000
7F00
7F7C
487C
8844
FFC4
FFC4
0844
4F44
4F44
4844
485C
4F58
FF40
F040
0000
ENDCHAR
STARTCHAR 537B
ENCODING 21371
SWIDTH 960 0
DWIDTH 16 0
BBX 15 16 0 -2
BITMAP
2600
677C
C17C
9844
1C44
3644
6344
C144
BE44
3E44
225C
2258
3E40
3E40
0040
0000
ENDCHAR
STARTCHAR 537F
ENCODING 21375
SWIDTH 960 0
DWIDTH 16 0
BBX 15 16 0 -2
BITMAP
0C00
7FDE
73DE
4A52
4BD2
4BD2
4A52
4BD2
5BD2
FA92
EAD6
1256
32D0
E7D0
C710
0000
ENDCHAR
STARTCHAR 5382
ENCODING 21378
SWIDTH 960 0
DWIDTH 16 0
BBX 15 16 0 -2
BITMAP
0000
3FFE
3FFE
2000
2000
2000
2000
2000
2000
2000
2000
2000
4000
C000
8000
0000
ENDCHAR
STARTCHAR 5384
ENCODING 21380
SWIDTH 960 0
DWIDTH 16 0
BBX 15 16 0 -2
BITMAP
0000
3FFE
3FFE
2000
27F0
27F0
2410
2410
2410
24F0
24E0
4402
C402
87FE
03FC
0000
ENDCHAR
STARTCHAR 5396
ENCODING 21398
SWIDTH 960 0
DWIDTH 16 0
BBX 15 16 0 -2
BITMAP
0000
3FFE
3FFE
2280
22C0
3FC8
3FD8
2274
236C
2518
2574
456C
C91A
B9FE
30FC
0000
ENDCHAR
STARTCHAR 5398
ENCODING 21400
SWIDTH 960 0
DWIDTH 16 0
BBX 15 16 0 -2
BITMAP
0000
3FFC
3FFC
2000
27F0
27F0
2490
27F0
27F0
2080
2FF8
4FF8
C080
BFFE
3FFE
0000
ENDCHAR
STARTCHAR 539A
ENCODING 21402
SWIDTH 960 0
DWIDTH 16 0
BBX 15 16 0 -2
BITMAP
0000
3FFC
3FFC
2420
27E0
27E0
2420
2FF0
2FF0
2020
3FFE
5FFE
C080
8780
0700
0000
ENDCHAR
STARTCHAR 539F
ENCODING 21407
SWIDTH 960 0
DWIDTH 16 0
BBX 15 16 0 -2
BITMAP
0000
3FFC
3FFC
2100
27F0
27F0
2410
27F0
27F0
2410
27F0
47F0
C890
BB9E
330E
0000
ENDCHAR
STARTCHAR 53A0
ENCODING 21408
SWIDTH 960 0
DWIDTH 16 0
BBX 15 16 0 -2
BITMAP
0000
3FFE
3FFE
2000
2F04
2F24
2924
2F24
2F24
2924
2F24
4F24
C504
9D9C
1898
0000
ENDCHAR
STARTCHAR 53A5
ENCODING 21413
SWIDTH 960 0
DWIDTH 16 0
BBX 15 16 0 -2
BITMAP
0000
3FFE
3FFE
28A0
2DA0
3FBE
3FFE
2244
2A90
2A90
2F90
4FA8
C228
9EEE
1CC6
0000
ENDCHAR
STARTCHAR 53A6
ENCODING 21414
SWIDTH 960 0
DWIDTH 16 0
BBX 15 16 0 -2
BITMAP
0000
3FFE
3FFE
2100
27F0
27F0
2410
27F0
27F0
2200
27F0
5FF0
D920
8FFE
0F1E
0000
ENDCHAR
STARTCHAR 53A8
ENCODING 21416
SWIDTH 960 0
DWIDTH 16 0
BBX 15 16 0 -2
BITMAP
0000
3FFE
3FFE
2008
3F88
3FFE
207E
2F48
2F68
2928
2F28
6F08
4A08
DFB8
9FB0
0000
ENDCHAR
STARTCHAR 53A9
ENCODING 21417
SWIDTH 960 0
DWIDTH 16 0
BBX 15 16 0 -2
BITMAP
0000
3FFE
3FFE
2400
2F7C
2F7C
2950
2950
2FFE
2FFE
2A10
2932
4B72
DFDE
9D8C
0000
ENDCHAR
STARTCHAR 53AD
ENCODING 21421
SWIDTH 960 0
DWIDTH 16 0
BBX 15 16 0 -2
BITMAP
3FFE
3FFE
2920
2F28
2F2C
2024
2FFE
2FFE
2920
2F20
2F30
6950
4948
CBCE
8B86
0000
ENDCHAR
STARTCHAR 53AE
ENCODING 21422
SWIDTH 960 0
DWIDTH 16 0
BBX 15 16 0 -2
BITMAP
0000
3FFE
3FFE
2904
3FBC
3FB8
2920
2F3E
2F3E
2928
3FA8
5FA8
CA48
BBC8
3188
0000
ENDCHAR
STARTCHAR 53B0
ENCODING 21424
SWIDTH 960 0
DWIDTH 16 0
BBX 15 16 0 -2
BITMAP
0000
3FFE
3FFE
3260
2AA0
2FBE
2FFE
28C8
2EA8
2EA8
2A90
4E90
CEA8
8BEE
0B46
0000
ENDCHAR
STARTCHAR 53B3
ENCODING 21427
SWIDTH 960 0
DWIDTH 16 0
BBX 15 16 0 -2
BITMAP
0908
3FFE
3FFE
2020
2FA0
2FBE
227E
3FC8
3FA8
2928
2F10
4F10
C938
BFEE
3FC6
0000
ENDCHAR
STARTCHAR 53B6
ENCODING 21430
SWIDTH 960 0
DWIDTH 16 0
BBX 15 16 0 -2
BITMAP
0100
0100
0100
0100
0200
0200
0200
0400
0420
0430
0818
080C
11FC
FFFE
FE06
0000
ENDCHAR
STARTCHAR 53BB
ENCODING 21435
SWIDTH 960 0
DWIDTH 16 0
BBX 15 16 0 -2
BITMAP
0100
0100
3FF8
3FF8
0100
0100
FFFE
FFFE
0200
0240
0460
0430
09F8
7FFC
7E0C
0000
ENDCHAR
STARTCHAR 53C2
ENCODING 21442
SWIDTH 960 0
DWIDTH 16 0
BBX 15 16 0 -2
BITMAP
0200
0620
3FF8
3FD8
0100
FFFE
FFFE
0D60
3F78
F1DE
CF96
0E30
00E0
1FC0
1F00
0000
ENDCHAR
STARTCHAR 53C3
ENCODING 21443
SWIDTH 960 0
DWIDTH 16 0
BBX 15 16 0 -2
BITMAP
0440
0460
7FF0
7FB0
2824
FD7E
F7F6
06C0
1CF0
F9BE
E72E
1E60
19C0
0F80
0E00
0000
ENDCHAR
STARTCHAR 53C8
ENCODING 21448
SWIDTH 960 0
DWIDTH 16 0
BBX 15 16 0 -2
BITMAP
0000
0000
3FF8
3FF8
0810
0820
0420
0440
02C0
0380
0380
06C0
1C70
F83E
E00E
0000
ENDCHAR
STARTCHAR 53C9
ENCODING 21449
SWIDTH 960 0
DWIDTH 16 0
BBX 15 16 0 -2
BITMAP
0000
0000
7FF0
7FF0
1210
0B20
0920
0440
06C0
0380
0380
06C0
1C70
F83E
E00E
0000
ENDCHAR
STARTCHAR 53CA
ENCODING 21450
SWIDTH 960 0
DWIDTH 16 0
BBX 15 16 0 -2
BITMAP
0000
7FE0
7FE0
0440
0480
04F0
04F0
0610
0A10
0920
09A0
10C0
33F0
EF3E
CC0E
0000
ENDCHAR
STARTCHAR 53CB
ENCODING 21451
SWIDTH 960 0
DWIDTH 16 0
BBX 15 16 0 -2
BITMAP
0200
0200
FFFE
FFFE
0200
0200
07F0
07F0
0E20
1A60
31C0
E1C0
C770
3E3E
380E
0000
ENDCHAR
STARTCHAR 53CC
ENCODING 21452
SWIDTH 960 0
DWIDTH 16 0
BBX 15 16 0 -2
BITMAP
0000
FDF8
FDF8
0508
0510
6490
7490
18A0
0C60
0C40
1AE0
1290
3198
E70E
C606
0000
ENDCHAR
STARTCHAR 53CD
ENCODING 21453
SWIDTH 960 0
DWIDTH 16 0
BBX 15 16 0 -2
BITMAP
0000
3FFE
3FFE
2000
2000
3FF0
3FF0
2420
2220
2240
41C0
41C0
C770
BE3E
380E
0000
ENDCHAR
STARTCHAR 53CE
ENCODING 21454
SWIDTH 960 0
DWIDTH 16 0
BBX 15 16 0 -2
BITMAP
0800
4800
4BF8
4BF8
4910
4910
4910
48A0
48A0
5840
F860
E8B0
0998
0F0E
0E06
0000
ENDCHAR
STARTCHAR 53D4
ENCODING 21460
SWIDTH 960 0
DWIDTH 16 0
BBX 15 16 0 -2
BITMAP
1000
1000
1EF8
1EF8
1088
FF48
FF50
1050
5430
5620
D270
9250
10D8
738E
6306
0000
ENDCHAR
STARTCHAR 53D6
ENCODING 21462
SWIDTH 960 0
DWIDTH 16 0
BBX 15 16 0 -2
BITMAP
0000
FF80
FF80
25FC
3DFC
3C88
2488
3C50
3C50
2420
2C30
3C50
F4D8
C78E
0706
0000
ENDCHAR
STARTCHAR 53D7
ENCODING 21463
SWIDTH 960 0
DWIDTH 16 0
BBX 15 16 0 -2
BITMAP
003C
7FFC
7FD0
1B30
0920
7FFC
7FFC
4004
5FF4
1FF0
0440
0380
0FE0
FC7E
F01E
0000
ENDCHAR
STARTCHAR 53D9
ENCODING 21465
SWIDTH 960 0
DWIDTH 16 0
BBX 15 16 0 -2
BITMAP
1000
3800
2DFC
67FC
FE88
BC88
1048
FE50
FE50
1020
5430
5650
D2D8
B38E
3306
0000
ENDCHAR
STARTCHAR 53DB
ENCODING 21467
SWIDTH 960 0
DWIDTH 16 0
BBX 15 16 0 -2
BITMAP
1000
95FE
DDFE
5900
FF00
FFFC
11FC
1148
1D48
FD50
F130
1230
2E58
EDCE
C186
0000
ENDCHAR
STARTCHAR 53DF
ENCODING 21471
SWIDTH 960 0
DWIDTH 16 0
BBX 15 16 0 -2
BITMAP
0300
3F78
3D78
2108
3D78
3D78
2108
3FF8
3FF8
0100
7FF8
7FF8
0440
FFFE
FC7E
0000
ENDCHAR
STARTCHAR 53E1
ENCODING 21473
SWIDTH 960 0
DWIDTH 16 0
BBX 15 16 0 -2
BITMAP
0800
FF7C
FF7C
8144
7E44
FFA8
94A8
7F28
FFB8
A290
3E28
3E28
226C
3EC6
3E82
0000
ENDCHAR
STARTCHAR 53E2
ENCODING 21474
SWIDTH 960 0
DWIDTH 16 0
BBX 15 16 0 -2
BITMAP
1290
FFFE
FFFE
0440
3FF8
3FF8
0100
FFFE
FFFE
2200
3EFC
3EFC
2248
FFFE
FFCE
0000
ENDCHAR
STARTCHAR 53E3
ENCODING 21475
SWIDTH 960 0
DWIDTH 16 0
BBX 15 16 0 -2
BITMAP
0000
0000
3FF8
3FF8
2008
2008
2008
2008
2008
2008
2008
2008
3FF8
3FF8
0000
0000
ENDCHAR
STARTCHAR 53E4
ENCODING 21476
SWIDTH 960 0
DWIDTH 16 0
BBX 15 16 0 -2
BITMAP
0100
0100
0100
FFFE
FFFE
0100
0100
0100
1FF0
1FF0
1010
1010
1010
1FF0
1FF0
0000
ENDCHAR
STARTCHAR 53E5
ENCODING 21477
SWIDTH 960 0
DWIDTH 16 0
BBX 15 16 0 -2
BITMAP
1000
1000
1FFC
3FFC
2004
6004
DF84
9F84
1084
1084
1F84
1F84
0008
0078
0070
0000
ENDCHAR
STARTCHAR 53E8
ENCODING 21480
SWIDTH 960 0
DWIDTH 16 0
BBX 15 16 0 -2
BITMAP
0000
0000
7BFC
7BFC
4844
4844
4844
4844
4884
7884
7884
0108
0318
0EF0
0CE0
0000
ENDCHAR
STARTCHAR 53E9
ENCODING 21481
SWIDTH 960 0
DWIDTH 16 0
BBX 15 16 0 -2
BITMAP
0000
0000
7CFC
7CFC
4484
4484
4484
4484
4484
7C84
7CBC
00B8
0080
0080
0080
0000
ENDCHAR
STARTCHAR 53EA
ENCODING 21482
SWIDTH 960 0
DWIDTH 16 0
BBX 15 16 0 -2
BITMAP
0000
1FF0
1FF0
1010
1010
1010
1010
1FF0
1FF0
0000
0440
0C60
3838
F01E
C006
0000
ENDCHAR
STARTCHAR 53EB
ENCODING 21483
SWIDTH 960 0
DWIDTH 16 0
BBX 15 16 0 -2
BITMAP
0010
0090
7890
7890
4890
4890
4890
4890
489E
78FE
7BF0
0390
0010
0010
0010
0000
ENDCHAR
STARTCHAR 53EC
ENCODING 21484
SWIDTH 960 0
DWIDTH 16 0
BBX 15 16 0 -2
BITMAP
0000
FFFC
FFFC
0204
0204
0408
1C78
F870
E000
1FF0
1FF0
1010
1010
1FF0
1FF0
0000
ENDCHAR
STARTCHAR 53ED
ENCODING 21485
SWIDTH 960 0
DWIDTH 16 0
BBX 15 16 0 -2
BITMAP
0120
0120
0120
7920
7920
4920
4920
4920
4910
7A10
7A10
0218
0408
1C0E
1806
0000
ENDCHAR
STARTCHAR 53EE
ENCODING 21486
SWIDTH 960 0
DWIDTH 16 0
BBX 15 16 0 -2
BITMAP
0000
07FE
7FFE
7820
4820
4820
4820
4820
4820
7820
7820
0020
0020
01E0
01C0
0000
ENDCHAR
STARTCHAR 53EF
ENCODING 21487
SWIDTH 960 0
DWIDTH 16 0
BBX 15 16 0 -2
BITMAP
0000
FFFE
FFFE
0010
0010
3F10
3F10
2110
2110
3F10
3F10
0010
0010
01F0
01E0
0000
ENDCHAR
STARTCHAR 53F0
ENCODING 21488
SWIDTH 960 0
DWIDTH 16 0
BBX 15 16 0 -2
BITMAP
0200
0200
0610
0418
0C7C
FFFE
FF86
0000
0000
1FF0
1FF0
1010
1010
1FF0
1FF0
0000
ENDCHAR
STARTCHAR 53F1
ENCODING 21489
SWIDTH 960 0
DWIDTH 16 0
BBX 15 16 0 -2
BITMAP
0100
0100
0100
7900
7900
4906
497E
4FF8
4F80
4900
7900
7904
0104
01FC
00F8
0000
ENDCHAR
STARTCHAR 53F2
ENCODING 21490
SWIDTH 960 0
DWIDTH 16 0
BBX 15 16 0 -2
BITMAP
0100
0100
3FF8
3FF8
2108
2108
2108
3FF8
3FF8
0900
0600
0700
1DC0
F8FE
E03E
0000
ENDCHAR
STARTCHAR 53F3
ENCODING 21491
SWIDTH 960 0
DWIDTH 16 0
BBX 15 16 0 -2
BITMAP
0200
0200
0200
FFFE
FFFE
0C00
1800
3800
EFF0
CFF0
0810
0810
0810
0FF0
0FF0
0000
ENDCHAR
STARTCHAR 53F6
ENCODING 21494
SWIDTH 960 0
DWIDTH 16 0
BBX 15 16 0 -2
BITMAP
0040
0040
0040
7840
7840
4840
4FFE
4FFE
4840
4840
7840
7840
0040
0040
0040
0000
ENDCHAR
STARTCHAR 53F7
ENCODING 21495
SWIDTH 960 0
DWIDTH 16 0
BBX 15 16 0 -2
BITMAP
0000
0FE0
0FE0
0820
0FE0
0FE0
0000
FFFE
FFFE
0800
0FF0
0FF0
0010
03F0
03E0
0000
ENDCHAR
STARTCHAR 53F8
ENCODING 21496
SWIDTH 960 0
DWIDTH 16 0
BBX 15 16 0 -2
BITMAP
0000
FFFC
FFFC
0004
3FC4
3FC4
0004
1F84
1F84
1084
1F84
1F84
0004
003C
0038
0000
ENDCHAR
STARTCHAR 53FA
ENCODING 21498
SWIDTH 960 0
DWIDTH 16 0
BBX 15 16 0 -2
BITMAP
0000
0780
0780
7880
7880
4880
4880
4940
4940
7920
7A20
0210
0618
1C0E
1806
0000
ENDCHAR
STARTCHAR 5401
ENCODING 21505
SWIDTH 960 0
DWIDTH 16 0
BBX 15 16 0 -2
BITMAP
0000
03FC
7BFC
7840
4840
4840
4FFE
4FFE
4840
7840
7840
0040
0040
03C0
0380
0000
ENDCHAR
STARTCHAR 5403
ENCODING 21507
SWIDTH 960 0
DWIDTH 16 0
BBX 15 16 0 -2
BITMAP
0200
0200
07FC
F7FC
FC00
9BF0
93F0
9030
9060
F0C0
F180
0304
0604
07FC
03F8
0000
ENDCHAR
STARTCHAR 5404
ENCODING 21508
SWIDTH 960 0
DWIDTH 16 0
BBX 15 16 0 -2
BITMAP
0400
07F0
07F0
0C60
1AC0
7380
6380
06C0
1C70
FFFE
EFEE
0820
0820
0FE0
0FE0
0000
ENDCHAR
STARTCHAR 5408
ENCODING 21512
SWIDTH 960 0
DWIDTH 16 0
BBX 15 16 0 -2
BITMAP
0100
0380
06C0
0C60
3838
FFFE
CFE6
0000
0000
1FF0
1FF0
1010
1010
1FF0
1FF0
0000
ENDCHAR
STARTCHAR 5409
ENCODING 21513
SWIDTH 960 0
DWIDTH 16 0
BBX 15 16 0 -2
BITMAP
0100
0100
FFFE
FFFE
0100
0100
7FFC
7FFC
0000
1FF0
1FF0
1010
1010
1FF0
1FF0
0000
ENDCHAR
STARTCHAR 540A
ENCODING 21514
SWIDTH 960 0
DWIDTH 16 0
BBX 15 16 0 -2
BITMAP
0000
0FE0
0FE0
0820
0820
0FE0
0FE0
0100
3FF8
3FF8
2108
2108
2178
2170
0100
0000
ENDCHAR
STARTCHAR 540B
ENCODING 21515
SWIDTH 960 0
DWIDTH 16 0
BBX 15 16 0 -2
BITMAP
0010
0010
F810
F810
8BFE
8BFE
8810
8A10
8B10
F990
F890
0010
0010
00F0
00E0
0000
ENDCHAR
STARTCHAR 540C
ENCODING 21516
SWIDTH 960 0
DWIDTH 16 0
BBX 15 16 0 -2
BITMAP
0000
7FFC
7FFC
4004
4FE4
4FE4
4004
47C4
47C4
4444
47C4
47C4
4004
403C
4038
0000
ENDCHAR
STARTCHAR 540D
ENCODING 21517
SWIDTH 960 0
DWIDTH 16 0
BBX 15 16 0 -2
BITMAP
0200
0200
07F8
0FF8
1C30
7660
62C0
0380
07F8
1FF8
FC08
E408
0408
07F8
07F8
0000
ENDCHAR
STARTCHAR 540E
ENCODING 21518
SWIDTH 960 0
DWIDTH 16 0
BBX 15 16 0 -2
BITMAP
0038
3FF8
3FC0
2000
3FFE
3FFE
2000
2000
27F0
27F0
2410
4410
C410
87F0
07F0
0000
ENDCHAR
STARTCHAR 540F
ENCODING 21519
SWIDTH 960 0
DWIDTH 16 0
BBX 15 16 0 -2
BITMAP
0100
0100
FFFE
FFFE
0100
1FF0
1FF0
1110
1FF0
1FF0
0900
0700
0FC0
FCFE
F03E
0000
ENDCHAR
STARTCHAR 5410
ENCODING 21520
SWIDTH 960 0
DWIDTH 16 0
BBX 15 16 0 -2
BITMAP
0040
0040
0040
7840
7840
4BFC
4BFC
4840
4840
4840
7840
7840
0040
0FFE
0FFE
0000
ENDCHAR
STARTCHAR 5411
ENCODING 21521
SWIDTH 960 0
DWIDTH 16 0
BBX 15 16 0 -2
BITMAP
0200
0200
0400
7FFC
7FFC
4004
47C4
47C4
4444
4444
47C4
47C4
4004
403C
4038
0000
ENDCHAR
STARTCHAR 541B
ENCODING 21531
SWIDTH 960 0
DWIDTH 16 0
BBX 15 16 0 -2
BITMAP
0000
3FE0
3FE0
0220
FFFE
FFFE
0220
3FE0
3FE0
0800
1FF0
FFF0
E810
0FF0
0FF0
0000
ENDCHAR
STARTCHAR 541D
ENCODING 21533
SWIDTH 960 0
DWIDTH 16 0
BBX 15 16 0 -2
BITMAP
0100
0100
FFFE
FFFE
0820
07C0
1FF0
FC7E
E00E
1FF0
1FF0
1010
1010
1FF0
1FF0
0000
ENDCHAR
STARTCHAR 541F
ENCODING 21535
SWIDTH 960 0
DWIDTH 16 0
BBX 15 16 0 -2
BITMAP
0040
0040
00A0
78A0
7910
4BF8
4EEE
4C06
4BF8
7BF8
7808
0010
0030
00E0
00C0
0000
ENDCHAR
STARTCHAR 5420
ENCODING 21536
SWIDTH 960 0
DWIDTH 16 0
BBX 15 16 0 -2
BITMAP
0040
0050
0058
7848
7FFE
4FFE
4840
4840
48A0
48A0
78A0
7910
0318
0E0E
0C06
0000
ENDCHAR
STARTCHAR 5426
ENCODING 21542
SWIDTH 960 0
DWIDTH 16 0
BBX 15 16 0 -2
BITMAP
0000
FFFE
FFFE
0300
0760
1D78
F91C
E106
0102
1FF0
1FF0
1010
1010
1FF0
1FF0
0000
ENDCHAR
STARTCHAR 5429
ENCODING 21545
SWIDTH 960 0
DWIDTH 16 0
BBX 15 16 0 -2
BITMAP
0120
0120
7910
7910
4A08
4A0C
4FFE
4DFA
4888
7888
7888
0108
0310
0EF0
0CE0
0000
ENDCHAR
STARTCHAR 542B
ENCODING 21547
SWIDTH 960 0
DWIDTH 16 0
BBX 15 16 0 -2
BITMAP
0100
0380
06C0
0C60
3FF8
F7DE
C006
0FE0
0FE0
0080
1FF0
1FF0
1010
1FF0
1FF0
0000
ENDCHAR
STARTCHAR 542C
ENCODING 21548
SWIDTH 960 0
DWIDTH 16 0
BBX 15 16 0 -2
BITMAP
0004
001C
79F8
79E0
4900
4900
49FE
49FE
4910
7910
7910
0210
0E10
0C10
0010
0000
ENDCHAR
STARTCHAR 542D
ENCODING 21549
SWIDTH 960 0
DWIDTH 16 0
BBX 15 16 0 -2
BITMAP
0040
0040
7BFC
7BFC
4800
4800
49E0
49E0
4920
7920
7920
0122
0222
0E3E
0C1C
0000
ENDCHAR
STARTCHAR 542E
ENCODING 21550
SWIDTH 960 0
DWIDTH 16 0
BBX 15 16 0 -2
BITMAP
0080
0080
7880
7910
4938
4FFC
4FEC
4920
4920
7920
7920
0222
0622
1C3E
181C
0000
ENDCHAR
STARTCHAR 5436
ENCODING 21558
SWIDTH 960 0
DWIDTH 16 0
BBX 15 16 0 -2
BITMAP
0040
0040
7840
7BFC
4BFC
4A44
4A44
4AA4
4AB4
7B9C
7B0C
0204
0204
021C
0218
0000
ENDCHAR
STARTCHAR 5438
ENCODING 21560
SWIDTH 960 0
DWIDTH 16 0
BBX 15 16 0 -2
BITMAP
0000
07F0
07F0
7910
7920
4978
4978
4A88
7A88
7A90
0450
0C60
39F8
379E
0606
0000
ENDCHAR
STARTCHAR 5439
ENCODING 21561
SWIDTH 960 0
DWIDTH 16 0
BBX 15 16 0 -2
BITMAP
0100
0100
01FE
7BFE
7A0C
4E48
4C40
4840
4840
78A0
78A0
0110
0318
0E0E
0C06
0000
ENDCHAR
STARTCHAR 543B
ENCODING 21563
SWIDTH 960 0
DWIDTH 16 0
BBX 15 16 0 -2
BITMAP
0100
0100
0100
F3FC
F7FC
9CA4
98A4
9124
9744
9644
F088
F188
0718
06F0
00E0
0000
ENDCHAR
STARTCHAR 543C
ENCODING 21564
SWIDTH 960 0
DWIDTH 16 0
BBX 15 16 0 -2
BITMAP
0020
0FA0
FFA0
F0A0
93A0
9320
9260
93E0
9FA0
FE20
F220
0222
0222
0E3E
0C1C
0000
ENDCHAR
ENDFONT
